<?xml version="1.0" encoding="UTF-8" standalone="no"?>
<svg xmlns:dc="http://purl.org/dc/elements/1.1/"
     xmlns:cc="http://creativecommons.org/ns#"
     xmlns:rdf="http://www.w3.org/1999/02/22-rdf-syntax-ns#"
     xmlns:svg="http://www.w3.org/2000/svg"
     xmlns="http://www.w3.org/2000/svg"
     viewBox="0 0 400 400"
     class="nicermediapages-SVG"
     id="svg8358"
     height="400"
     width="400"
     version="1.0">
	<metadata id="metadata171">
		<rdf:RDF>
			<cc:Work rdf:about="">
				<dc:format>image/svg+xml</dc:format>
				<dc:type rdf:resource="http://purl.org/dc/dcmitype/StillImage"/>
				<dc:title/>
			</cc:Work>
		</rdf:RDF>
	</metadata>
	<defs id="defs8360"/>
	<path d="m 199.98448,8.4531241 c -4.35686,0 -7.99092,2.7706999 -9.9375,5.9999999 -1.94658,3.229301 -2.86047,6.977217 -3.40625,10.8125 -1.02207,7.182324 -0.61696,14.521047 -0.375,18.5625 -1.16937,-0.724096 -2.54238,-1.208138 -4.09375,-1.0625 -2.6436,0.248171 -4.70994,2.149625 -5.71875,3.9375 -1.00881,1.787875 -1.45174,3.644978 -1.71875,5.53125 -0.52436,3.70431 -0.29891,7.596702 0.15625,10.71875 -0.51291,-0.112014 -1.03576,-0.227308 -1.625,-0.1875 -0.54025,0.0365 -0.86906,0.141799 -1.15625,0.21875 -2.66606,0.714369 -4.22173,3.178675 -4.75,5.03125 -0.52827,1.852575 -0.52775,3.584447 -0.4375,5.3125 0.0193,0.36944 0.0933,0.695626 0.125,1.0625 -0.57277,-0.195139 -1.12282,-0.429964 -1.8125,-0.4375 -0.55095,-0.006 -1.13566,0.096 -1.59375,0.21875 -0.52778,0.141417 -0.96481,0.496101 -1.4375,0.78125 -0.52074,-1.479109 -1.23963,-2.925211 -2.28125,-4.34375 -1.14545,-1.559938 -2.39888,-3.631766 -5.90625,-3.8125 -0.57882,-0.02983 -0.96958,0.01852 -1.46875,0.125 -1.19959,0.255903 -2.23679,0.956664 -3.09375,1.8125 -0.88435,-2.124344 -1.99737,-4.673248 -3.53125,-7.125 -0.91858,-1.468261 -1.94934,-2.877361 -3.375,-4.09375 -1.42566,-1.216389 -3.42082,-2.291673 -5.78125,-2.25 -0.65655,0.01159 -1.26958,0.110656 -1.90625,0.28125 -2.53046,0.678034 -4.4953,3.10973 -5.0625,5.28125 l -7.96875,-15.0625 c -1.74706,-3.307882 -3.8199,-6.232748 -6.28125,-8.53125 -2.46135,-2.298502 -5.41989,-4.089417 -8.9375,-4.21875 -1.69451,-0.0623 -3.37271,0.340162 -4.8125,1.03125 -4.000395,1.920155 -5.882151,6.325569 -5.8125,10.15625 0.06965,3.830681 1.505623,7.567518 3.6875,10.9375 l 9.65625,14.90625 c -0.76472,-0.237904 -1.56783,-0.469513 -2.53125,-0.4375 -1.06524,0.0354 -2.12503,0.333755 -3.0625,0.875 -2.11735,1.222455 -3.3908,3.881958 -3.4375,5.9375 -0.0467,2.055542 0.53355,3.731016 1.25,5.34375 1.4329,3.225469 3.67029,6.263404 5.625,8.78125 l 1.125,1.46875 c -1.31667,0.06248 -3.00999,0.509996 -4.34375,1.84375 -1.72359,1.723589 -2.34641,4.733084 -1.78125,6.843746 0.54803,2.0467 1.66205,3.53357 2.9375,5 -0.48762,0.11334 -0.96583,0.21803 -1.5625,0.5625 -1.20099,0.69339 -2.02157,1.81482 -2.5,3.06251 -2.206899,-1.81954 -4.476617,-3.12174 -7.1875,-3.34376 -0.456583,-0.0374 -0.900186,-0.0379 -1.34375,0 -1.366662,0.1167 -2.943412,0.75591 -4.0625,1.875 -0.656338,0.65635 -1.271892,1.71532 -1.625,2.90626 l -1.09375,-0.84375 c -4.099209,-3.11437 -8.317514,-5.23747 -12.8125,-5.12501 -2.029515,0.0508 -4.567894,0.82798 -6.09375,2.9375 -1.75684,2.42887 -1.703854,5.17412 -0.96875,7.59376 l -15.0625,-9.28126 c -4.362924,-2.68417 -10.03011,-5.13353 -15.75,-5.09375 -3.436098,0.0239 -7.480794,1.41721 -9.53125,4.96875 -1.33059,2.30468 -1.571424,5.02328 -1.0625,7.31251 0.508924,2.28923 1.633367,4.2582 2.96875,6 2.670765,3.4836 6.288029,6.19009 9.875,7.90625 l 15.0625,7.21875 c -1.38315,0.60739 -2.673087,1.50525 -3.5,2.9375 -1.023385,1.77255 -1.112314,4.04293 -0.5625,5.75 0.549814,1.70707 1.528233,2.98408 2.625,4.09375 2.193533,2.21934 5.027345,3.86504 8.15625,5.0625 0.01042,4e-5 0.02083,4e-5 0.03125,0 l 2.15625,0.8125 c -0.575782,0.59009 -1.065227,1.28249 -1.375,2.09375 -0.875222,2.29211 -0.577328,5.16806 0.90625,7.3125 1.116323,1.61359 2.84539,2.67871 4.78125,3.46875 -0.507293,0.6276 -0.968672,1.30832 -1.1875,2.125 -0.22793,0.85065 -0.217344,1.78733 -0.0625,2.6875 -0.0455,-0.002 -0.07942,-0.0298 -0.125,-0.0312 -0.447544,-0.0155 -0.848476,-0.008 -1.1875,0 -1.378866,0.0326 -2.802982,0.16302 -4.34375,0.8125 -1.540768,0.64948 -3.360357,2.22108 -3.9375,4.375 -0.428256,1.59827 -0.06533,3.23884 0.5625,4.5625 l -2.875,-0.34375 c -1.556068,-0.19187 -3.988679,-0.52377 -6.5625,-0.5625 -0.438087,-0.007 -0.953917,-0.0259 -1.59375,0 -1.914444,0.0775 -3.88775,0.27362 -5.90625,1.28125 -2.0185,1.00763 -4.125,3.66136 -4.125,6.46875 0,2.03096 0.975514,3.83106 2.15625,5.1875 l -21.78125,-0.5313 c -0.251653,-0.006 -0.621177,-0.0232 -1.09375,0 -2.761279,0.13532 -5.66985,0.94218 -8.28125,2.75 -2.6114,1.80782 -4.90625,5.06124 -4.90625,9 0,4.49041 3.00829,7.94315 6.3125,9.875 3.30421,1.93185 7.179902,2.81995 11.03125,2.59375 l 18.6875,-1.09375 c -0.223528,0.25094 -0.482302,0.42984 -0.6875,0.71875 -1.067121,1.50248 -1.699132,3.73879 -1.28125,5.84375 0.414227,2.08655 1.845955,3.96625 3.40625,4.9375 1.560295,0.97125 3.147024,1.3179 4.65625,1.5 3.018452,0.3642 5.995655,-0.038 8.40625,-0.40625 l 3.59375,-0.5625 c -0.106302,0.64505 -0.304829,1.25285 -0.21875,1.96875 0.281335,2.33983 2.112037,4.46045 4.1875,5.34375 2.075463,0.8833 4.318541,0.94015 6.8125,0.46875 0.03137,-0.0101 0.06262,-0.0205 0.09375,-0.0312 l 1.125,-0.25 c -0.243184,0.89605 -0.345799,1.85747 -0.09375,2.875 0.130063,0.52507 0.370853,0.97027 0.625,1.40625 -1.526813,0.63094 -3.040974,1.41043 -4.46875,2.5 -1.094664,0.83537 -2.183558,1.8279 -2.96875,3.375 -0.785192,1.5471 -1.020651,3.9264 -0.125,5.8125 0.382593,0.80568 0.98956,1.43627 1.625,2 l -0.5,0.1875 c -0.04182,0.01 -0.08349,0.0202 -0.125,0.0312 -3.674523,1.57229 -6.793891,3.28134 -9.1875,5.625 -1.196805,1.17183 -2.234182,2.52977 -2.8125,4.28125 -0.578318,1.75148 -0.540695,3.8716 0.1875,5.65625 0.824026,2.01951 2.772988,3.43058 4.5625,4 l -18.25,9.6875 c -0.151391,0.0847 -0.297588,0.17869 -0.4375,0.28125 -1.590129,1.11159 -3.983041,2.79503 -5.875,5.4375 -1.891959,2.64247 -3.061569,7.18987 -0.84375,11.03125 1.249049,2.16342 3.370474,3.60626 5.40625,4.25 2.035776,0.64374 4.040108,0.66212 5.9375,0.46875 3.794783,-0.38674 7.234171,-1.67982 9.78125,-3.09375 0.06326,-0.0297 0.125783,-0.061 0.1875,-0.0937 l 15.34375,-9.5 c -0.138834,1.9397 0.192122,3.9904 1.28125,5.71875 1.038841,1.64855 2.75499,2.84822 4.4375,3.34375 1.68251,0.49553 3.265871,0.40229 4.6875,0.125 2.833472,-0.55267 5.170929,-1.8872 7.09375,-3.375 h 0.03125 v 0.0312 l 6,-4.65625 c 0.23662,1.21789 0.69813,2.38435 1.53125,3.3125 2.876504,3.20462 8.050021,2.68053 11.34375,-0.21875 0.0105,-0.0104 0.0209,-0.0208 0.0312,-0.0312 l 1.25,-1.125 c 0.43911,1.18279 1.09884,2.26823 2.0625,3.03125 0.51551,0.40817 1.10901,0.57442 1.6875,0.8125 -1.54254,1.93966 -2.60669,3.62953 -3.0625,5.65625 -0.2325,1.03377 -0.32565,2.2118 0.0937,3.5 0.4194,1.2882 1.48572,2.5619 2.6875,3.1875 0.19169,0.0998 0.3755,0.11021 0.5625,0.1875 l -0.78125,0.96875 c -0.01,0.0113 -0.0214,0.0201 -0.0312,0.0312 l -0.0937,0.125 c -2.39979,2.76258 -4.4322,5.64721 -5.5625,8.6875 -0.575702,1.54853 -0.950376,3.18727 -0.6875,5.09375 0.262876,1.90648 1.56671,4.06294 3.40625,5.125 1.54175,0.89013 3.25456,0.88641 4.8125,0.625 l -8.21875,12.125 c -0.03236,0.0514 -0.06362,0.1035 -0.09375,0.15625 -1.942561,3.18856 -3.437619,7.27696 -3.78125,11.5625 -0.343631,4.28554 0.755228,9.52652 5.28125,12.1875 4.37782,2.57384 9.38987,1.20743 12.75,-1 3.36013,-2.20743 5.88376,-5.21322 7.5625,-7.96875 0.0444,-0.0819 0.0861,-0.16533 0.125,-0.25 l 7.21875,-13.75 c 0.76601,1.2119 1.73749,2.2691 3.09375,2.9375 2.25609,1.11185 5.11507,0.96713 7.375,-0.25 2.25993,-1.21713 3.98319,-3.31689 5.21875,-6.03125 0.0108,-0.0311 0.0212,-0.0624 0.0312,-0.0937 l 4.53125,-10.6875 c 1.08279,1.39122 2.45149,2.53997 4.09375,2.90625 3.66947,0.81841 7.26848,-1.26369 9.34375,-4.71875 0.5281,0.42492 1.01386,0.9142 1.6875,1.15625 0.93025,0.33425 1.93191,0.2932 2.90625,0.15625 0.0391,1.4558 0.29112,2.8803 0.9375,4.125 1.11221,2.14173 3.23993,3.69832 5.5625,4.03125 0.9782,0.14022 1.93306,-0.0305 2.84375,-0.28125 l -1.25,9.6875 v 0.0312 c -0.41385,3.08554 -0.11232,5.82398 1.03125,8.125 1.14767,2.30927 3.32873,4.14949 5.875,4.59375 1.90687,0.3327 3.73629,-0.32836 5.34375,-1.34375 -0.33476,5.33566 -0.54243,8.58841 -0.8125,12.875 -0.17989,2.85539 0.23358,7.03191 2.03125,11.3125 0.89883,2.1403 2.18666,4.28322 4.1875,6.03125 2.00084,1.74803 4.80841,2.96875 7.90625,2.96875 3.09784,0 5.93466,-1.2228 7.9375,-2.96875 2.00284,-1.74595 3.28409,-3.8916 4.1875,-6.03125 1.80681,-4.27929 2.21184,-8.44599 2.03125,-11.3125 -0.26999,-4.28536 -0.47653,-7.54149 -0.8125,-12.875 1.60138,1.00742 3.44503,1.67622 5.34375,1.34375 2.54724,-0.44602 4.70158,-2.28533 5.84375,-4.59375 1.1381,-2.30018 1.44483,-5.04164 1.03125,-8.125 v -0.0312 l -1.25,-9.6875 c 0.91069,0.25075 1.86555,0.42147 2.84375,0.28125 2.32257,-0.33293 4.45029,-1.88952 5.5625,-4.03125 0.64638,-1.2447 0.89845,-2.6692 0.9375,-4.125 0.97434,0.13695 1.976,0.178 2.90625,-0.15625 0.67364,-0.24205 1.1594,-0.73133 1.6875,-1.15625 2.07527,3.45506 5.67428,5.53716 9.34375,4.71875 1.65594,-0.36933 3.04106,-1.52825 4.125,-2.9375 l 4.53125,10.71875 c 0.01,0.0314 0.0205,0.0626 0.0312,0.0937 1.23466,2.71237 2.96174,4.81276 5.21875,6.03125 2.25701,1.21849 5.12,1.36562 7.375,0.25 1.36264,-0.67414 2.29858,-1.74811 3.0625,-2.96875 l 7.25,13.78125 c 0.0389,0.0847 0.0806,0.16807 0.125,0.25 1.67499,2.74938 4.17831,5.75945 7.53125,7.96875 3.35294,2.2093 8.37526,3.57202 12.75,1 4.52292,-2.65917 5.64643,-7.90104 5.3125,-12.1875 -0.33393,-4.28646 -1.83542,-8.36858 -3.78125,-11.5625 -0.0301,-0.0528 -0.0614,-0.10484 -0.0937,-0.15625 l -8.21875,-12.125 c 1.55794,0.26141 3.27075,0.26513 4.8125,-0.625 1.84217,-1.06357 3.14947,-3.21583 3.40625,-5.125 0.25678,-1.90917 -0.13852,-3.57857 -0.71875,-5.125 -1.13914,-3.03615 -3.16553,-5.89731 -5.56245,-8.65625 l -0.125,-0.15625 -0.78125,-0.96875 c 0.19023,-0.0788 0.3674,-0.0853 0.5625,-0.1875 1.20397,-0.63096 2.27516,-1.89918 2.6875,-3.1875 0.41234,-1.28832 0.32848,-2.46976 0.0937,-3.5 -0.45881,-2.0142 -1.49701,-3.72483 -3.03125,-5.65625 0.57807,-0.23913 1.17266,-0.40242 1.6875,-0.8125 0.95468,-0.76042 1.62691,-1.82774 2.0625,-3 l 1.21875,1.09375 c 0.0104,0.0105 0.0208,0.0209 0.0312,0.0312 3.29373,2.89927 8.46725,3.42338 11.34375,0.21875 0.83312,-0.92815 1.29463,-2.09461 1.53125,-3.3125 l 6.03125,4.65625 v -0.0312 h 0.0312 c 1.92282,1.4878 4.26028,2.82233 7.09375,3.375 1.42163,0.27729 3.00499,0.37053 4.6875,-0.125 1.68251,-0.49553 3.39866,-1.69521 4.4375,-3.34375 1.08644,-1.72408 1.42045,-3.75415 1.28125,-5.6875 l 15.3125,9.46875 c 0.0617,0.0328 0.12424,0.0641 0.1875,0.0937 2.54708,1.41393 5.98647,2.70701 9.78125,3.09375 1.89739,0.19337 3.90172,0.17499 5.9375,-0.46875 2.03578,-0.64374 4.1572,-2.08658 5.40625,-4.25 2.21782,-3.84138 1.04821,-8.38878 -0.84375,-11.03125 -1.89196,-2.64247 -4.28487,-4.32591 -5.875,-5.4375 -0.13991,-0.10256 -0.28611,-0.19655 -0.4375,-0.28125 l -18.25,-9.6875 c 1.78951,-0.56942 3.73847,-1.98049 4.5625,-4 0.7282,-1.78465 0.76582,-3.90477 0.1875,-5.65625 -0.57832,-1.75148 -1.6157,-3.10942 -2.8125,-4.28125 -2.39361,-2.34366 -5.51297,-4.05271 -9.1875,-5.625 -0.0415,-0.0111 -0.0832,-0.0215 -0.125,-0.0312 l -0.5,-0.1875 c 0.63544,-0.56373 1.24241,-1.19432 1.625,-2 0.89292,-1.88034 0.65413,-4.26412 -0.125,-5.8125 -0.77913,-1.54838 -1.84581,-2.5377 -2.9375,-3.375 -1.43244,-1.09865 -2.96521,-1.86661 -4.5,-2.5 0.25023,-0.4291 0.49402,-0.89002 0.625,-1.40625 0.25484,-1.0044 0.17026,-1.9528 -0.0625,-2.84375 l 1.09375,0.21875 c 0.0311,0.0108 0.0624,0.0212 0.0937,0.0312 2.49396,0.4714 4.73704,0.41455 6.8125,-0.46875 2.07546,-0.8833 3.90616,-3.00392 4.1875,-5.34375 0.0861,-0.7159 -0.11245,-1.3237 -0.21875,-1.96875 l 3.59375,0.5625 c 2.4106,0.36827 5.3878,0.77045 8.40625,0.40625 1.50923,-0.1821 3.09596,-0.52875 4.65625,-1.5 1.56029,-0.97125 2.99203,-2.85095 3.40625,-4.9375 0.41789,-2.10496 -0.21413,-4.34127 -1.28125,-5.84375 -0.2052,-0.28891 -0.46397,-0.46781 -0.6875,-0.71875 l 18.6875,1.09375 c 3.85179,0.22622 7.75211,-0.66439 11.0625,-2.59375 3.31039,-1.92936 6.3125,-5.37613 6.3125,-9.875 0,-4.20885 -2.6266,-7.57366 -5.46875,-9.34375 -2.84215,-1.77009 -5.92855,-2.47874 -8.84375,-2.40625 l -21.75,0.53125 c 1.18074,-1.35644 2.15625,-3.15654 2.15625,-5.1875 0,-1.60136 -0.6196,-3.30678 -1.625,-4.5 -1.0054,-1.19322 -2.23043,-1.87538 -3.375,-2.3125 -2.28914,-0.87423 -4.48974,-0.96963 -6.625,-0.9375 -2.57323,0.0387 -5.03099,0.3698 -6.59375,0.5625 l -2.8748,0.3438 c 0.62783,-1.32366 0.99076,-2.96422 0.5625,-4.5625 -0.662,-2.47061 -2.86765,-4.05297 -4.59375,-4.625 -1.7261,-0.57203 -3.32351,-0.61629 -4.875,-0.5625 -0.0459,0.002 -0.0792,0.0294 -0.125,0.0312 0.15224,-0.89778 0.16453,-1.84019 -0.0625,-2.6875 -0.22427,-0.83697 -0.75886,-1.46493 -1.28125,-2.09375 1.97646,-0.79007 3.74111,-1.86101 4.875,-3.5 1.48358,-2.14444 1.78147,-5.02039 0.90625,-7.3125 -0.30655,-0.80282 -0.80688,-1.47596 -1.375,-2.0625 l 2.1875,-0.84375 c 0.0104,4e-5 0.0208,4e-5 0.0312,0 3.1315,-1.19845 5.96937,-2.83876 8.15625,-5.0625 1.09344,-1.11187 2.05014,-2.38664 2.59375,-4.09375 0.54361,-1.70711 0.45807,-3.98233 -0.5625,-5.75 -0.83235,-1.44168 -2.10066,-2.37191 -3.46875,-2.96875 l 15.03125,-7.1875 c 3.58697,-1.71616 7.20423,-4.42265 9.875,-7.90625 1.33538,-1.7418 2.45983,-3.71077 2.96875,-6 0.50892,-2.28923 0.26809,-5.00783 -1.0625,-7.31251 -2.05046,-3.55154 -6.09515,-4.94485 -9.53125,-4.96875 -5.71989,-0.0398 -11.38708,2.40958 -15.75,5.09375 l -15.03125,9.25001 c 0.73556,-2.41249 0.78614,-5.13633 -0.96875,-7.56251 -1.56928,-2.16956 -4.09729,-2.88675 -6.125,-2.9375 -4.49499,-0.11246 -8.71329,2.01064 -12.8125,5.12501 l -1.09375,0.8125 c -0.35493,-1.1724 -0.94579,-2.22704 -1.59375,-2.87501 -1.57927,-1.57927 -3.72388,-2.01533 -5.4375,-1.875 -2.72924,0.22352 -4.9875,1.55275 -7.1875,3.37501 -0.47638,-1.25923 -1.29001,-2.39517 -2.5,-3.09376 -0.58232,-0.33619 -1.05331,-0.41644 -1.53125,-0.53125 1.28854,-1.48 2.40047,-2.99909 2.9375,-5.0625 0.55145,-2.118808 -0.099,-5.09901 -1.8125,-6.812496 -1.25291,-1.252903 -2.98885,-1.780939 -4.3125,-1.84375 -0.023,-0.0011 -0.0396,9.2e-4 -0.0625,0 l 1.1563,-1.4687 c 1.95471,-2.517846 4.1921,-5.555781 5.625,-8.78125 0.71645,-1.612734 1.2967,-3.288208 1.25,-5.34375 -0.0467,-2.055542 -1.32015,-4.715045 -3.4375,-5.9375 -0.83911,-0.484458 -1.95836,-0.83935 -3.03125,-0.875 -0.97504,-0.0324 -1.79085,0.194699 -2.5625,0.4375 l 9.65625,-14.90625 c 2.17887,-3.36534 3.60695,-7.108221 3.6875,-10.9375 0.0806,-3.829279 -1.77765,-8.234557 -5.78125,-10.15625 -1.47338,-0.707213 -3.14586,-1.093677 -4.84375,-1.03125 -3.51761,0.129333 -6.47615,1.920248 -8.9375,4.21875 -2.46135,2.298502 -4.53419,5.223368 -6.28125,8.53125 l -7.96875,15.09375 c -0.55855,-2.177524 -2.52256,-4.631925 -5.0625,-5.3125 -0.56267,-0.150766 -1.21288,-0.269561 -1.875,-0.28125 -2.36052,-0.04167 -4.35362,1.035802 -5.78125,2.25 -1.42763,1.214198 -2.48326,2.625823 -3.40625,4.09375 -1.54124,2.451194 -2.64283,4.995918 -3.53125,7.125 -0.85696,-0.855836 -1.89416,-1.556597 -3.09375,-1.8125 -0.34836,-0.07431 -0.89647,-0.152882 -1.4375,-0.125 -3.50611,0.180669 -4.7515,2.223276 -5.90625,3.78125 -1.05089,1.417855 -1.78553,2.881081 -2.3125,4.375 -0.46674,-0.279745 -0.88674,-0.642049 -1.40625,-0.78125 -0.58869,-0.157743 -1.06795,-0.224837 -1.625,-0.21875 -0.67845,0.0074 -1.2159,0.247882 -1.78125,0.4375 0.0317,-0.375176 0.10627,-0.715818 0.125,-1.09375 0.0857,-1.728591 0.064,-3.461929 -0.46875,-5.3125 -0.53273,-1.850571 -2.08543,-4.286031 -4.75,-5 -0.54241,-0.145336 -1.3222,-0.319902 -2.3125,-0.1875 -0.17937,0.02398 -0.30057,0.120651 -0.46875,0.15625 0.45437,-3.114673 0.67129,-7.015181 0.15625,-10.71875 -0.26226,-1.885895 -0.68226,-3.740783 -1.6875,-5.53125 -1.00524,-1.790467 -3.07467,-3.689283 -5.71875,-3.9375 -0.49961,-0.0469 -0.84317,-0.05111 -1.125,-0.03125 -1.17739,0.08297 -2.13914,0.496145 -3,1.03125 0.24217,-4.053946 0.64299,-11.346365 -0.375,-18.5 -0.54578,-3.835283 -1.45967,-7.583199 -3.40625,-10.8125 -1.94658,-3.2293 -5.58064,-5.9999999 -9.9375,-5.9999999 z"
	      id="path6212"
	      style="color:#000000;font-style:normal;font-variant:normal;font-weight:normal;font-stretch:normal;font-size:medium;line-height:normal;font-family:Sans;-inkscape-font-specification:Sans;text-indent:0;text-align:start;text-decoration:none;text-decoration-line:none;letter-spacing:normal;word-spacing:normal;text-transform:none;writing-mode:lr-tb;direction:ltr;baseline-shift:baseline;text-anchor:start;display:inline;overflow:visible;visibility:visible;fill:#000000;fill-opacity:1;fill-rule:nonzero;stroke:none;stroke-width:8.5;marker:none;enable-background:accumulate"/>
	<path d="m 199.98448,12.703126 c -11.31173,0 -9.89359,24.416227 -9.4375,31.9375 l 4.90625,80.937504 h 4.53125 4.53125 l 4.90625,-80.937504 c 0.45609,-7.521273 1.87423,-31.9375 -9.4375,-31.9375 z m -93.53125,24.5625 c -0.95982,-0.03529 -1.88553,0.180062 -2.8125,0.625 -4.861565,2.333508 -4.057069,9.298692 -0.40625,14.9375 l 47.09375,72.750004 h 8.875 l -41.125,-77.812504 c -3.14665,-5.957855 -7.46577,-10.347077 -11.625,-10.5 z m 187.0625,0 c -4.15923,0.152923 -8.47835,4.542145 -11.625,10.5 l -41.09375,77.812504 h 8.84375 l 47.09375,-72.750004 c 3.65082,-5.638808 4.48656,-12.603992 -0.375,-14.9375 -0.92697,-0.444938 -1.88393,-0.66029 -2.84375,-0.625 z m -110.9375,9.71875 c -4.21317,0.395517 -4.3008,9.988199 -3.46875,15.53125 l 9.5625,63.062504 h 4.1875 l -4.21875,-64.468754 c -0.24251,-3.726055 -1.84933,-14.520518 -6.0625,-14.125 z m 34.4375,0 c -3.92609,0.276652 -5.45257,10.515384 -5.6875,14.125 l -4.1875,64.468754 h 4.1875 l 9.53125,-63.062504 c 0.83205,-5.543051 0.77567,-15.135733 -3.4375,-15.53125 -0.13166,-0.01236 -0.2796,-0.0089 -0.40625,0 z m -80.1875,12.53125 c -0.2801,0.0049 -0.58606,0.04758 -0.875,0.125 -4.62304,1.23874 -1.26206,10.643034 2.40625,18 l 23.90625,47.937504 h 6.09375 L 146.07823,71.671876 c -1.8646,-4.512378 -5.04845,-12.230427 -9.25,-12.15625 z m 126.34375,0 c -4.20155,-0.07418 -7.41666,7.643872 -9.28125,12.15625 l -22.25,53.906254 h 6.0625 l 23.90625,-47.937504 c 3.66831,-7.356966 7.02929,-16.76126 2.40625,-18 -0.28894,-0.07742 -0.56365,-0.120055 -0.84375,-0.125 z m -89.625,7.5 c -0.10935,0.0074 -0.23131,0.03237 -0.34375,0.0625 -3.59801,0.964085 -1.62123,10.391234 -0.75,14.0625 l 10.53125,44.437504 h 3.3125 l -6.84375,-44.312504 c -0.62621,-4.05011 -2.51635,-14.479014 -5.90625,-14.25 z m 52.5625,0 c -3.18835,0.426288 -4.98774,10.330538 -5.59375,14.25 l -6.84375,44.312504 h 3.3125 l 10.5625,-44.437504 c 0.87123,-3.671266 2.81677,-13.098415 -0.78125,-14.0625 -0.22488,-0.06025 -0.44369,-0.09092 -0.65625,-0.0625 z m -72.3125,4.03125 c -0.12029,-0.0062 -0.25784,0.0063 -0.375,0.03125 -1.87454,0.399885 -2.68626,2.935781 -1.28125,6.65625 l 18.0625,47.843754 h 3.6875 L 158.35948,76.671876 c -0.66483,-2.092779 -2.75813,-5.532021 -4.5625,-5.625 z m 92.40625,0 c -1.80437,0.09298 -3.92891,3.532221 -4.59375,5.625 l -15.53125,48.906254 h 3.6875 l 18.0625,-47.843754 c 1.40501,-3.720469 0.59329,-6.256365 -1.28125,-6.65625 -0.11716,-0.02499 -0.22346,-0.03745 -0.34375,-0.03125 z m -139.25,2.8125 c -0.38398,0.01276 -0.75618,0.117606 -1.09375,0.3125 -3.60071,2.078873 0.93407,8.986745 4.65625,13.78125 l 29.21875,37.625004 h 7.875 L 117.39073,83.078126 c -1.17585,-1.653449 -6.72572,-9.342087 -10.4375,-9.21875 z m 186.09375,0 c -3.71178,-0.123337 -9.29289,7.565301 -10.46875,9.21875 l -30.21875,42.500004 h 7.875 l 29.21875,-37.625004 c 3.72218,-4.794505 8.25696,-11.702377 4.65625,-13.78125 -0.33757,-0.194894 -0.67852,-0.299741 -1.0625,-0.3125 z m -127.84375,4.34375 c -0.1586,-0.0017 -0.30504,0.01863 -0.46875,0.0625 -2.61942,0.701871 -1.81134,5.239328 -0.875,8.21875 l 12.3125,39.093754 h 4.28125 L 169.85948,85.015626 c -0.49363,-1.890124 -2.2773,-6.786507 -4.65625,-6.8125 z m 69.5625,0 c -2.37895,0.02599 -4.16262,4.922376 -4.65625,6.8125 l -10.59375,40.562504 h 4.3125 l 12.28125,-39.093754 c 0.93634,-2.979422 1.77567,-7.516879 -0.84375,-8.21875 -0.16371,-0.04387 -0.3414,-0.06423 -0.5,-0.0625 z m -126.28125,18.0625 c -0.60011,0.02848 -1.14407,0.206573 -1.53125,0.59375 -1.54871,1.548709 -0.75581,3.690894 1.4375,6.187504 l 19.78125,22.53125 h 8.34375 L 113.79698,98.796876 c -1.10389,-1.301344 -3.51218,-2.61668 -5.3125,-2.53125 z m 183.03125,0 c -1.80032,-0.08543 -4.23986,1.229906 -5.34375,2.53125 l -22.71875,26.781254 h 8.34375 l 19.8125,-22.53125 c 2.1933,-2.49661 2.95496,-4.638795 1.40625,-6.187504 -0.38718,-0.387177 -0.89989,-0.565273 -1.5,-0.59375 z M 35.078227,105.20313 c -2.562652,0.0178 -4.70822,0.8228 -5.875,2.84375 -3.111425,5.38922 4.03915,12.42798 9.9375,15.25 l 86.812503,41.53125 v -7.5625 L 48.578227,109.67188 c -3.822838,-2.35191 -9.228913,-4.49846 -13.5,-4.46875 z m 329.812503,0 c -4.27109,-0.0297 -9.67716,2.11684 -13.5,4.46875 l -77.375,47.59375 v 7.5625 l 86.8125,-41.53125 c 5.89835,-2.82202 13.04893,-9.86078 9.9375,-15.25 -1.16678,-2.02095 -3.31235,-2.82593 -5.875,-2.84375 z m -291.875003,3.84375 c -1.223526,0.0306 -2.182558,0.403 -2.75,1.1875 -1.815815,2.51039 0.503487,7.65042 5,10.625 l 50.687503,33.375 v -8.4375 l -42.781253,-32.5 c -3.5544,-2.70045 -7.464492,-4.31735 -10.15625,-4.25 z m 253.937503,0 c -2.69176,-0.0674 -6.60185,1.54955 -10.15625,4.25 l -42.78125,32.5 v 8.4375 l 50.6875,-33.375 c 4.49652,-2.97458 6.84706,-8.11461 5.03125,-10.625 -0.56744,-0.7845 -1.55772,-1.15688 -2.78125,-1.1875 z m -220.03125,0.71875 c -0.51513,-0.0414 -0.96545,0.0232 -1.25,0.1875 -1.13821,0.65714 -1.69429,3.0549 1.8125,6.25 l 18.46875,16.8125 v -7.4375 l -14.28125,-13.8125 c -0.96557,-0.93517 -3.2046,-1.87593 -4.75,-2 z m 186.125,0 c -1.54541,0.12407 -3.78444,1.06483 -4.75,2 l -14.28125,13.8125 v 7.4375 l 18.46875,-16.8125 c 3.50679,-3.1951 2.9507,-5.59286 1.8125,-6.25 -0.28455,-0.16428 -0.73486,-0.22886 -1.25,-0.1875 z m -199.531253,0.46875 c -0.862735,-0.0707 -1.568224,0.13072 -2.0625,0.625 -1.318069,1.31807 -1.246153,3.03868 2.53125,6.03125 l 31.968753,25.34375 v -6.09375 L 98.640727,112.79688 c -1.837611,-1.5688 -3.687108,-2.44474 -5.125,-2.5625 z m 212.937503,0 c -1.43789,0.11776 -3.25614,0.9937 -5.09375,2.5625 l -27.34375,23.34375 v 6.09375 l 32,-25.34375 c 3.7774,-2.99257 3.84932,-4.71318 2.53125,-6.03125 -0.49428,-0.49428 -1.23101,-0.69565 -2.09375,-0.625 z m -250.500003,27.5 c -1.567354,0.0639 -2.768346,0.58262 -3.40625,1.6875 -1.701078,2.94635 2.725687,6.77005 8.0625,8.8125 l 65.343753,24.90625 v -5.53125 L 65.796977,140.39063 c -3.625339,-1.64023 -7.231493,-2.76269 -9.84375,-2.65625 z m 287.250003,0 c -2.52162,0.11938 -5.76845,1.18004 -9.03125,2.65625 l -60.15625,27.21875 v 5.53125 l 65.375,-24.90625 c 5.33682,-2.04245 9.73233,-5.86615 8.03125,-8.8125 -0.74422,-1.28903 -2.25749,-1.78035 -4.21875,-1.6875 z m -276.250003,17.3125 c -1.462901,0.0594 -2.676223,0.50029 -3.09375,1.59375 -0.835055,2.18692 0.424521,4.83171 4.65625,5.90625 l 57.437503,16.28125 v -3.90625 l -54.406253,-19.25 c -1.408321,-0.35762 -3.130849,-0.68442 -4.59375,-0.625 z m 266.062503,0 c -1.4629,-0.0594 -3.18543,0.26738 -4.59375,0.625 l -54.40625,19.25 v 3.90625 l 57.4375,-16.28125 c 4.23173,-1.07454 5.4913,-3.71933 4.65625,-5.90625 -0.41753,-1.09346 -1.63085,-1.53433 -3.09375,-1.59375 z M 71.921977,167.32813 c -1.733007,0.0847 -3.113634,0.57256 -3.4375,1.78125 -0.740265,2.76271 3.811488,4.33387 9.0625,5.4375 l 48.406253,10.1875 v -3.34375 c -13.99885,-2.75824 -47.031253,-13.09375 -47.031253,-13.09375 -1.949035,-0.52224 -4.771848,-1.0777 -7,-0.96875 z m 255.375003,0 c -2.08183,0.0261 -4.48628,0.50454 -6.21875,0.96875 0,0 -33.06365,10.33551 -47.0625,13.09375 v 3.34375 l 48.4375,-10.1875 c 5.25101,-1.10363 9.77151,-2.67479 9.03125,-5.4375 -0.37014,-1.38136 -2.10567,-1.80733 -4.1875,-1.78125 z m -263.250003,7.59375 c -2.51104,-0.0871 -4.77098,0.36015 -5.21875,2.03125 -0.716431,2.67376 3.579736,5.02471 7.9375,5.65625 l 59.187503,8.5625 v -4.1875 l -57.437503,-11.5 c -1.351821,-0.27053 -2.962126,-0.51027 -4.46875,-0.5625 z m 271.875003,0 c -1.50662,0.0522 -3.08568,0.29197 -4.4375,0.5625 l -57.46875,11.5 v 4.1875 l 59.1875,-8.5625 c 4.35776,-0.63154 8.65393,-2.98249 7.9375,-5.65625 -0.44777,-1.6711 -2.70771,-2.1183 -5.21875,-2.03125 z m -290.125003,8.84375 c -3.725946,-0.0561 -7.3125,0.60632 -7.3125,3.5 0,4.62989 8.152036,5.60687 12.53125,5.84375 l 74.937503,4.03125 v -3.71875 l -74.062503,-9.125 c -1.594067,-0.19656 -3.858182,-0.49761 -6.09375,-0.53125 z m 308.406253,0 c -2.23557,0.0336 -4.53093,0.33469 -6.125,0.53125 l -74.0625,9.125 v 3.71875 l 74.96875,-4.03125 c 4.37921,-0.23688 12.53125,-1.21386 12.53125,-5.84375 0,-2.89368 -3.58655,-3.55607 -7.3125,-3.5 z M 14.515727,196.17188 c -4.082464,-0.10151 -9.9375,2.27301 -9.9375,7.5 0,5.22699 6.925125,8.56636 12.84375,8.21875 l 108.531253,-6.375 v -6.5625 z m 370.937503,0 -111.4375,2.78125 v 6.5625 l 108.53125,6.375 c 5.91863,0.34761 12.875,-2.99176 12.875,-8.21875 0,-5.22699 -5.88628,-7.60151 -9.96875,-7.5 z m -259.5,11.09375 -77.781253,7.09375 c -4.251737,0.38804 -10.384954,2.60945 -9.625,6.4375 0.759954,3.82806 7.133285,3.34723 11.65625,2.65625 l 75.750003,-11.5625 z m 148.0625,0 v 4.625 l 75.75,11.5625 c 4.52297,0.69098 10.8963,1.17181 11.65625,-2.65625 0.75996,-3.82805 -5.37327,-6.04946 -9.625,-6.4375 z m -148.0625,6.9375 -63.062503,10.125 c -6.146578,1.34718 -6.169813,7.8053 1.5625,6.34375 l 61.500003,-12.78125 z m 148.0625,0 v 3.6875 l 61.5,12.78125 c 7.73231,1.46155 7.70908,-4.99657 1.5625,-6.34375 z m -148.0625,6 -50.687503,12.21875 c -7.212223,1.81515 -5.951225,7.17323 1.3125,5.03125 l 49.375003,-14.03125 z m 148.0625,0 v 3.21875 l 49.375,14.03125 c 7.26373,2.14198 8.55597,-3.2161 1.34375,-5.03125 z m -148.0625,5.0625 -55.312503,16.75 c -3.649009,1.10565 -8.720569,3.8852 -7.375,6.71875 1.345569,2.83355 6.987079,1.22009 10.125,0.0625 l 52.625003,-19.375 z m 148.0625,0 -0.0625,4.15625 52.625,19.375 c 3.13792,1.15759 8.77943,2.77105 10.125,-0.0625 1.34557,-2.83355 -3.69474,-5.6131 -7.34375,-6.71875 z m -147.875,6.09375 -64.031253,25.3125 c -6.818936,2.91776 -11.066326,6.37695 -9.5625,10.0625 1.503827,3.68556 8.721963,0.89591 13.1875,-1.25 l 61.062503,-29.5625 z m 147.6875,0 -0.65625,4.5625 61.0625,29.5625 c 4.46554,2.14591 11.68367,4.93556 13.1875,1.25 1.50383,-3.68555 -2.74356,-7.14474 -9.5625,-10.0625 z m -146.625,6.4375 -90.281253,47.96875 c -2.960631,2.06965 -8.198034,6.14774 -5.46875,10.875 2.729284,4.72726 11.383291,2.24712 15.375,0.0312 l 82.750003,-51.25 -2.375,-7.625 z m 145.5625,0 -2.375,7.625 82.75,51.25 c 3.99171,2.21587 12.64571,4.69601 15.375,-0.0312 2.72928,-4.72726 -2.50812,-8.80535 -5.46875,-10.875 z m -142.5,9.375 -56.875003,37.4375 c -4.03727,2.65842 -6.158487,6.34845 -4.09375,9.625 2.064737,3.27655 7.149064,1.2909 10.0625,-0.96875 l 53.281253,-41.1875 z m 139.4375,0 -2.375,4.90625 53.3125,41.1875 c 2.91344,2.25965 7.99776,4.2453 10.0625,0.96875 2.06474,-3.27655 -0.0877,-6.96658 -4.125,-9.625 z m -136.03125,6.8125 -39.750003,32.78125 c -4.604151,4.56309 -0.200403,8.90489 4.09375,5.125 l 37.968753,-34.21875 z m 132.625,0 -2.3125,3.6875 37.96875,34.21875 c 4.29416,3.77989 8.6979,-0.56191 4.09375,-5.125 z m -128.90625,5.71875 -29.875,28.40625 c -4.50017,4.52224 0.85539,8.83891 5.1875,4.03125 l 27.40625,-28.9375 z m 125.1875,0 -2.6875,3.5 27.40625,28.9375 c 4.33211,4.80766 9.65642,0.49099 5.15625,-4.03125 z m -121.21875,5.03125 -32.125,35.5625 c -5.40783,6.74405 -0.57835,8.28809 4.5,3.3125 l 29.9375,-36.40625 z m 117.25,0 -2.3125,2.46875 29.96875,36.40625 c 5.07835,4.97559 9.87658,3.43155 4.46875,-3.3125 z m -113.46875,4 -36.59375,45.34375 c -4.46415,5.10012 -7.19791,10.73423 -4.03125,12.5625 3.16666,1.82827 8.5344,-3.67212 13.625,-10.84375 l 30.4375,-43.90625 z m 109.6875,0 -3.4375,3.15625 30.46875,43.90625 c 5.0906,7.17163 10.45835,12.67202 13.625,10.84375 3.16666,-1.82827 0.40164,-7.46238 -4.0625,-12.5625 z m -103.84375,5.1875 -48.46875,71.53125 c -3.134741,5.14542 -5.365563,14.70206 0.0312,17.875 5.39681,3.17293 11.80057,-3.04903 14.53125,-7.53125 l 40.5313,-77.09375 z m 98,0 -6.59375,4.78125 40.53125,77.09375 c 2.73068,4.48222 9.10319,10.70418 14.5,7.53125 5.39679,-3.17294 3.19724,-12.72958 0.0625,-17.875 z m -89.4375,6.03125 -28.09375,55.21875 c -3.21873,7.87557 4.59635,12.11983 8.40625,3.75 l 23.96875,-56.5625 z m 80.90625,0 -4.28125,2.40625 23.96875,56.5625 c 3.8099,8.36983 11.59373,4.12557 8.375,-3.75 z m -73.6875,3.875 -15.5625,38.46875 c -2.53932,7.34341 5.60366,8.91235 7.71875,1.96875 l 12.40625,-38.5 z m 66.46875,0 -4.5625,1.9375 12.375,38.5 c 2.11509,6.9436 10.25807,5.37466 7.71875,-1.96875 z m -59.65625,2.84375 -10.15625,33.25 c -1.61981,5.77948 3.67131,7.777 5.3125,1.8125 l 8.5625,-33.84375 z m 52.8125,0 -3.71875,1.21875 8.5625,33.84375 c 1.64119,5.9645 6.93231,3.96698 5.3125,-1.8125 z m -46.59375,1.9375 -9.0625,38.53125 c -1.74004,7.53271 6.50089,8.57919 7.34375,1.1875 l 6.40625,-38.625 z m 40.40625,0 -4.71875,1.09375 6.40625,38.625 c 0.84286,7.39169 9.0838,6.34521 7.34375,-1.1875 z m -34.125,1.4375 -7.4375,57.46875 c -1.34002,9.87421 7.58056,10.70034 8.53125,2.21875 l 5.75,-58.75 z m 27.8125,0 -6.84375,0.9375 5.78125,58.75 c 0.95069,8.48159 9.84002,7.65546 8.5,-2.21875 z m -18.75,1.09375 c 0,0 -3.34578,53.62279 -5.03125,80.375 -0.24947,3.95975 1.46752,15.78125 9.875,15.78125 8.40748,0 10.15572,-11.8215 9.90625,-15.78125 -1.68547,-26.75221 -5.0625,-80.375 -5.0625,-80.375 l -4.84375,0.0937 -4.84375,-0.0937 z"
	      id="path7214"
	      style="display:inline;fill:#d4d3d3;fill-opacity:1;fill-rule:evenodd;stroke:none"/>
	<path d="m 132.60949,132.06954 v 95.12552 c 0,27.02558 29.34477,57.19791 67.13788,57.19791 37.7931,0 67.60675,-29.82134 67.61248,-57.1436 l 0.02,-95.17983 z"
	      id="path4597"
	      style="display:inline;fill:#fff500;fill-opacity:1;fill-rule:evenodd;stroke:none"/>
	<path style="fill:#da251d;fill-opacity:1;fill-rule:evenodd;stroke:none;stroke-width:0.99884498"
	      id="path8150"
	      d="m 187.76002,137.18764 c 0.89092,-0.20084 2.11556,-0.29829 2.71678,0.0593 9.25053,5.50115 8.22829,14.35974 3.57139,19.49204 -1.02943,-1.89974 -3.583,-2.82694 -5.88822,-3.43484 0.23563,-0.19153 0.39704,-0.66508 0.754,-0.56369 3.87447,0.95155 5.96393,-0.32804 6.37075,-1.54824 -0.79957,0.17794 -2.32785,-0.62419 -2.88331,-1.11043 -1.14812,-1.00501 -1.79137,-1.41969 -3.39273,-1.62237 1.54606,-0.36267 2.85987,0.02 3.86707,0.72593 1.33448,0.93527 2.30235,0.60003 3.08166,0.83927 2.53794,-6.97249 -6.08734,-7.38052 -12.86681,-4.74016 -0.82664,-5.97783 2.15814,-7.53066 4.66942,-8.09676 z"/>
	<path d="m 217.3355,242.4506 c -0.25134,-2.44325 0.82886,-4.14307 2.34257,-5.06911 1.77229,-1.08424 4.88484,-0.87122 6.11965,-0.65699 0.15826,0.29159 -0.045,0.82965 0.22262,1.08908 1.00548,0.97498 3.85161,7.10384 6.06124,8.88447 7.06425,-0.55345 11.85192,-3.21839 17.05151,1.84341 -3.79923,-0.86484 -6.70583,-1.52135 -9.93041,-0.0358 -1.21487,0.35284 -2.68805,0.59357 -3.95612,1.01848 -0.51414,0.17228 -0.39842,0.83818 0.091,1.02434 1.91924,0.73005 4.38342,1.52195 6.31624,2.22299 2.96218,1.39341 4.0585,3.27235 4.55885,5.10559 -1.86314,-1.36271 -3.29306,-2.19914 -4.91768,-3.11291 -1.8196,-1.02346 -3.84417,-2.03929 -6.21396,-1.91714 -0.54716,0.0362 -1.89097,0.16489 -2.39579,0.31252 -3.60303,3.02552 -5.02546,7.69286 -4.7513,11.97258 -2.51655,-2.1013 -2.79138,-5.09641 -1.53852,-7.67852 0.80958,-1.67605 1.57528,-3.18707 1.91832,-4.73791 0.11663,-0.52731 -0.0476,-0.78609 -0.57068,-0.86008 -3.32809,0.2256 -5.36113,1.66929 -7.38652,3.34155 -1.28152,0.13418 -3.38022,0.46085 -3.38022,0.46085 1.61553,-3.15058 6.03499,-3.85106 7.73166,-6.28108 0.64459,-0.98279 0.67086,-1.20509 0.0837,-2.44282 -0.9919,-1.32911 -2.16746,-2.72358 -3.74076,-2.83974 -1.24559,-0.092 -2.61103,-0.87704 -3.71541,-1.64384 z m -35.16781,-1.018 c 0.25134,-2.44325 -0.82886,-4.14307 -2.34257,-5.06911 -1.77229,-1.08424 -4.88484,-0.87122 -6.11965,-0.65699 -0.15826,0.29159 0.0449,0.82965 -0.22261,1.08908 -1.00549,0.97498 -3.85161,7.10383 -6.06125,8.88446 -7.06424,-0.55345 -11.85191,-3.21838 -17.05151,1.84341 3.79923,-0.86484 6.70584,-1.52134 9.93041,-0.0358 1.21487,0.35285 2.68804,0.59358 3.95612,1.01849 0.51415,0.17228 0.39842,0.83818 -0.091,1.02434 -1.91925,0.73005 -4.38342,1.52195 -6.31625,2.22299 -2.96218,1.39341 -4.0585,3.27235 -4.55885,5.10559 1.86314,-1.36272 3.29307,-2.19914 4.91768,-3.11291 1.8196,-1.02346 3.84417,-2.03929 6.21396,-1.91715 0.54716,0.0363 1.89097,0.16489 2.39579,0.31252 3.60303,3.02552 5.02546,7.69287 4.75131,11.97259 2.51654,-2.1013 2.79137,-5.09641 1.53851,-7.67852 -0.80958,-1.67605 -1.57528,-3.18708 -1.91832,-4.73791 -0.11663,-0.52731 0.0476,-0.7861 0.57069,-0.86008 3.32809,0.2256 5.36113,1.66929 7.38651,3.34155 1.28152,0.13418 3.38022,0.46084 3.38022,0.46084 -1.61553,-3.15057 -6.03499,-3.85105 -7.73165,-6.28107 -0.6446,-0.9828 -0.67087,-1.20509 -0.0837,-2.44282 0.99191,-1.32911 2.16747,-2.72358 3.74077,-2.83974 1.24558,-0.092 2.61103,-0.87704 3.7154,-1.64384 z"
	      id="use8156"
	      style="fill:#da251d;fill-opacity:1;fill-rule:evenodd;stroke:none;stroke-width:0.99884498"/>
	<path d="m 249.20652,238.30645 -5.06937,-3.68681 0.21814,-56.44205 -4.51124,1.94069 0.21814,51.59082 -5.06937,-3.22596 0.14544,-45.76974 -4.22038,0.94627 -0.36357,41.52478 -5.06937,-3.22595 -0.14543,-36.7227 -4.14767,0.9217 0.0727,32.64775 -5.06937,-3.22596 1.81786,-35.88253 c 9.53901,0.49826 19.69694,-3.30459 27.47631,-8.58393 5.20987,-3.4119 8.48997,-9.38446 6.68502,-16.54392 -0.20422,-0.82466 -1.71952,-3.90619 -2.39726,-4.01092 2.61204,18.45475 -15.41653,25.23689 -31.74241,26.62816 l 0.0978,-1.10147 c 9.83627,-1.6312 22.74452,-3.11263 28.90922,-17.22004 0,0 1.73748,-7.59929 0.8465,-8.95879 -3.78485,3.52666 -18.79798,2.06888 -18.76909,-3.49067 0.0356,-6.8439 16.02693,-8.26048 23.39394,-1.44481 3.72185,0.0619 5.56603,-2.08833 8.60226,-3.82567 -1.7111,4.16328 -4.15446,6.66059 -8.54935,8.39322 5.14375,2.64602 5.86882,8.08218 6.02757,11.49088 0.32177,6.96843 -0.0572,10.76427 -0.0572,15.34328 l -0.0401,68.94443 -4.82666,-3.68681 -0.0727,-68.54604 c -0.18628,-0.99107 1.22879,-3.04315 1.68506,-4.88905 0.26122,-1.05678 0.0353,-2.04872 -0.17186,-2.16523 0,0 -0.91559,2.4952 -2.35439,4.74631 -1.23709,1.93552 -3.46662,2.70691 -3.84004,3.91515 0,0 0.36112,43.23264 0.2909,63.61561 z m -23.91383,-2.79899 c -6.48485,-6.0463 -12.21479,-13.92519 -16.39443,-20.70444 0.66078,-1.89494 1.38231,-5.21089 2.4487,-7.66215 3.30373,-12.17354 5.09596,-22.74169 4.05163,-33.77299 -0.60247,-6.36402 -3.48681,-14.23645 -4.28893,-20.71227 -0.27404,-2.21237 -1.50972,-7.17763 0.84576,-7.95346 1.55596,0.0996 6.05562,-1.21692 6.42428,-3.57309 -5.74188,1.53029 -10.55883,-3.42745 -15.7934,-5.6667 -3.42433,-1.46487 -7.3068,-1.50165 -10.77285,1.28247 3.27847,1.69898 5.01044,3.62134 6.10452,6.46663 0.33296,0.8659 1.26994,4.70139 0.74672,6.89272 -0.6081,2.5469 -1.60309,4.07389 -3.0301,6.55238 -5.57897,9.68983 -10.81548,19.28272 -10.06566,32.08363 0.50007,8.53745 2.88052,16.9219 4.94669,25.17483 0,0 -11.73667,14.63522 -16.79634,20.95981 5.1156,-0.67346 9.76682,0.72063 9.37128,6.4005 4.55666,-4.45309 7.89927,-10.03127 12.33717,-14.57599 0.24886,-0.25485 0.49687,0.98855 0.51892,1.52508 0.32885,8.00358 -0.67474,17.44245 -3.67368,23.72909 -4.73559,8.07542 -8.50656,9.51402 -16.04138,9.65109 8.08108,6.77275 15.04797,-1.94394 18.44445,-5.80634 0.14455,5.80299 1.35377,12.36737 2.69902,16.89021 0.6077,2.14255 3.23094,1.57495 3.66978,-0.082 1.20149,-4.53647 2.51463,-11.23889 2.32319,-16.32681 4.21685,6.49399 12.57078,10.98097 18.1197,5.43495 -7.12229,0.95521 -13.83913,-3.46123 -16.06872,-9.72737 -2.4712,-6.94516 -3.4372,-18.41275 -2.9698,-24.26053 0.0241,-0.3014 0.28275,-1.44328 0.47658,-1.25445 4.81595,4.6916 9.43349,10.612 13.25186,15.24861 1.10943,-6.08226 3.51941,-6.34417 9.11504,-6.21341 z m -74.00088,-60.81662 v 63.61561 l 5.06936,-3.68681 v -56.2239 l 4.14767,2.30425 v 51.15454 l 5.06937,-3.22596 v -45.62432 l 4.14766,1.38256 v 41.01579 l 5.06937,-3.22596 v -36.86812 l 4.14766,0.9217 v 32.72046 l 5.06937,-3.22596 v -36.10068 c -9.53901,0.49827 -18.8971,-3.15916 -26.67646,-8.43849 -5.20987,-3.62754 -10.59868,-10.10638 -8.79372,-16.90749 0.20421,-0.82467 1.71951,-3.9062 2.39725,-4.01093 -1.23047,17.50947 17.96153,26.40032 33.2694,26.48273 l 0.55667,-0.88332 c -9.87837,-0.42954 -24.41463,-5.062 -30.87252,-19.03789 0,0 -1.44662,-4.98158 -0.55563,-6.34109 5.71124,2.2424 17.1299,1.40699 17.82381,-3.99967 0.89981,-7.01101 -20.68064,-8.33319 -22.44866,-1.66295 -4.30357,0.60724 -6.80217,-2.12469 -9.8384,-3.86203 1.71111,4.16328 5.13609,6.9151 9.53098,8.64772 -5.14375,2.64602 -6.63231,7.86404 -6.79107,11.27274 -0.32177,6.96844 0.56628,10.61884 0.56628,15.19785 l -0.10543,69.59886 4.60852,-3.68681 v -69.12775 c -0.21099,-1.45645 -2.00888,-3.34701 -2.34773,-5.25996 -0.0346,-0.49687 0.47096,-1.4671 0.47096,-1.4671 1.1126,3.93911 5.87852,6.9807 6.48529,8.55238 z"
	      id="use8158"
	      style="display:inline;fill:#000000;fill-opacity:1;fill-rule:evenodd;stroke:none;stroke-width:0.99884498"/>
	<path d="m 200.09311,138.97367 c 0,0.52872 -0.42862,0.95732 -0.95734,0.95732 -0.52871,0 -0.95732,-0.4286 -0.95732,-0.95732 0,-0.52872 0.42861,-0.95732 0.95732,-0.95732 0.52872,0 0.95734,0.4286 0.95734,0.95732 z"
	      id="path8154"
	      style="color:#000000;display:inline;overflow:visible;visibility:visible;opacity:0.8761194;fill:#ffffff;fill-opacity:1;fill-rule:nonzero;stroke:none;stroke-width:1.46263897;marker:none;enable-background:accumulate"/>
</svg>