<?xml version="1.0" encoding="UTF-8" standalone="no"?>
<svg xmlns:dc="http://purl.org/dc/elements/1.1/"
     xmlns:cc="http://creativecommons.org/ns#"
     xmlns:rdf="http://www.w3.org/1999/02/22-rdf-syntax-ns#"
     xmlns:svg="http://www.w3.org/2000/svg"
     xmlns="http://www.w3.org/2000/svg"
     xmlns:sodipodi="http://sodipodi.sourceforge.net/DTD/sodipodi-0.dtd"
     xmlns:inkscape="http://www.inkscape.org/namespaces/inkscape"
     width="410mm"
     height="303mm"
     viewBox="0 0 410 303"
     version="1.1"
     id="svg8"
     inkscape:version="0.92.2 (5c3e80d, 2017-08-06)"
     sodipodi:docname="333.svg">
	<defs id="defs2"/>
	<sodipodi:namedview id="base"
	                    pagecolor="#ffffff"
	                    bordercolor="#666666"
	                    borderopacity="1.0"
	                    inkscape:pageopacity="0.0"
	                    inkscape:pageshadow="2"
	                    inkscape:zoom="0.49497476"
	                    inkscape:cx="912.56084"
	                    inkscape:cy="389.37997"
	                    inkscape:document-units="mm"
	                    inkscape:current-layer="layer1"
	                    showgrid="false"
	                    fit-margin-top="0"
	                    fit-margin-left="0"
	                    fit-margin-right="0"
	                    fit-margin-bottom="0"
	                    inkscape:window-width="1920"
	                    inkscape:window-height="1057"
	                    inkscape:window-x="-8"
	                    inkscape:window-y="-8"
	                    inkscape:window-maximized="1"
	                    inkscape:snap-global="false"
	                    inkscape:measure-start="622.254,868.731"
	                    inkscape:measure-end="0,0"/>
	<metadata id="metadata5">
		<rdf:RDF>
			<cc:Work rdf:about="">
				<dc:format>image/svg+xml</dc:format>
				<dc:type rdf:resource="http://purl.org/dc/dcmitype/StillImage"/>
				<dc:title/>
			</cc:Work>
		</rdf:RDF>
	</metadata>
	<g inkscape:label="Layer 1"
	   inkscape:groupmode="layer"
	   id="layer1"
	   transform="translate(0,6)">
		<g aria-label="Acidente"
		   style="font-style:normal;font-variant:normal;font-weight:bold;font-stretch:normal;font-size:194.9150238px;line-height:0;font-family:'DIN 1451 Engschrift';-inkscape-font-specification:'DIN 1451 Engschrift Bold';letter-spacing:0.06879167px;word-spacing:0px;fill:#000000;fill-opacity:1;stroke:none;stroke-width:1.01518238"
		   id="text848"/>
		<path d="m 382.55871,253.39677 h -1.96953 v 14.54048 h 1.64088 c 6.62909,0 9.77934,-2.80249 9.77934,-7.63051 0,-4.63088 -3.01876,-6.90997 -9.45069,-6.90997 m 12.07507,37.82393 -9.64784,-16.4369 c -0.85446,0.0666 -1.83807,0.0666 -2.75588,0.0666 h -1.64088 v 16.37125 h -8.7934 v -44.99442 h 10.76293 c 12.7277,0 18.63847,4.95243 18.63847,14.01706 0,5.54389 -2.62677,9.97996 -7.81218,12.45851 L 405,291.22156 Z M 362.9413,246.22629 h -8.79105 v 18.71133 h -18.04931 v -18.71133 h -8.79107 v 44.99441 h 8.79107 v -19.10793 h 18.04931 v 19.10793 h 8.79105 z m -43.24178,0 h -26.31217 v 44.99441 h 27.42719 l 0.52568,-7.17748 h -19.16194 v -11.93045 h 15.75118 v -7.17515 h -15.75118 v -11.54085 h 16.99762 z m -30.77227,0 h -8.92255 l -6.88966,31.10411 h -0.13375 l -7.94133,-31.10411 h -8.331 l -8.07274,31.10411 h -0.13376 l -6.82631,-31.10411 h -9.57744 L 244.371,291.2207 h 7.28638 l 8.72304,-30.45628 h 0.13176 l 8.7934,30.45628 h 7.28876 z m -59.97652,2.73675 c -1.44135,-1.04443 -4.72535,-3.52304 -11.08926,-3.52304 -9.05629,0 -14.4366,5.15196 -14.4366,11.54324 0,6.00158 2.68779,9.19363 8.92255,13.30348 l 4.92017,3.25783 c 3.48123,2.28375 4.79342,3.85159 4.79342,6.84655 0,2.22034 -2.16431,4.17786 -6.82624,4.17786 -4.72541,0 -8.07515,-2.73908 -9.57984,-4.23653 l -2.88967,7.30189 c 1.5094,1.24164 5.31688,4.36568 12.60092,4.36568 10.96011,0 15.42254,-6.45461 15.42254,-12.71208 0,-5.74337 -2.69012,-9.32748 -8.8568,-13.11105 l -4.9249,-2.99963 c -3.67605,-2.21329 -4.98824,-3.5864 -4.98824,-6.39121 0,-2.21568 1.90373,-4.04174 6.1056,-4.04174 4.32868,0 7.02113,2.28142 8.07281,3.1287 z m -31.2348,-2.73675 h -26.31217 v 44.99441 h 27.43192 l 0.52102,-7.17748 h -19.15962 v -11.93045 h 15.75118 v -7.17515 h -15.75118 v -11.54085 h 16.99298 z m -60.30044,7.23855 v 30.51738 h 1.43894 c 10.7676,0 16.47655,-4.37041 16.47655,-15.91591 0,-10.82022 -5.38496,-14.60147 -15.8826,-14.60147 z m -8.79346,37.75586 v -44.99441 h 10.82635 c 17.1948,0 25.06805,6.3232 25.06805,21.84002 0,16.23979 -9.84274,23.15439 -25.662,23.15439 z m -8.85441,-44.99441 h -8.79112 v 27.90735 h -0.13641 L 92.203948,246.22629 h -7.54695 v 44.99441 h 8.79579 v -28.10681 h 0.13176 l 18.636122,28.10681 h 7.54695 z m -43.502362,0 h -8.46714 v 26.40989 c 0,8.47547 -2.8216,11.99619 -9.05396,11.99619 -5.97419,0 -8.795788,-3.65211 -8.795788,-11.99619 v -26.40989 h -8.791128 v 26.14702 c 0,13.56636 5.312234,19.62669 17.258266,19.62669 11.94131,0 17.84975,-6.45461 17.84975,-19.62669 z m -59.584519,25.75509 h -2.884953 v 12.19797 h 2.490563 c 6.694889,0 9.518823,-2.15466 9.518823,-6.19639 0,-3.84932 -3.218326,-6.00158 -9.124433,-6.00158 m -0.983541,-18.84514 h -1.901412 v 12.06425 h 1.837998 c 6.232422,0 9.119706,-2.41288 9.119706,-6.45694 0,-3.45497 -2.558637,-5.60731 -9.056292,-5.60731 m 9.779328,14.8714 v 0.12641 c 4.265275,0.8497 9.382612,4.1732 9.382612,10.433 0,7.43335 -5.577467,12.65333 -18.572789,12.65333 H 5 v -44.99443 h 10.697198 c 13.258224,0 17.913099,4.56283 17.913099,11.86479 0,6.45461 -4.265212,8.74067 -8.133771,9.91656"
		      style="fill:#0a426b;fill-opacity:1;fill-rule:nonzero;stroke:none;stroke-width:2.34727216"
		      id="path4819"
		      inkscape:connector-curvature="0"/>
		<path style="fill:#0a426b;fill-opacity:1;fill-rule:nonzero;stroke:none;stroke-width:2.34744573"
		      d="m 169.7501,135.4999 c -0.569,0.0906 -1.14484,0.18571 -1.72702,0.28527 -18.53942,3.16405 -43.80258,10.76722 -64.27308,18.81486 v 21.69996 c 12.34313,-3.72533 25.68391,-8.23542 34.90019,-9.70018 -1.46476,9.21629 -5.97485,22.55706 -9.70018,34.90019 h 21.69997 c 8.04764,-20.4705 15.6508,-45.73366 18.81487,-64.27306 0.0996,-0.58219 0.19462,-1.15803 0.28525,-1.72704 z"
		      id="path5514"
		      inkscape:connector-curvature="0"/>
		<path style="fill:#a3b2b9;fill-opacity:1;fill-rule:nonzero;stroke:none;stroke-width:2.34743118"
		      d="m 169.64985,201.5 c 6.95315,-18.43191 17.3516,-53.74215 21.3,-87.19985 -33.4577,3.9484 -68.76794,14.34688 -87.19985,21.3 V 64.899558 c 18.43191,6.95312 53.74215,17.35159 87.19985,21.29999 -3.9484,-33.4577 -14.34685,-68.76793 -21.3,-87.199839 h 70.7006 c -6.95315,18.431909 -17.35159,53.742139 -21.3,87.199839 33.4577,-3.9484 68.76794,-14.34687 87.19985,-21.29999 v 70.700592 c -18.43191,-6.95312 -53.74215,-17.3516 -87.19985,-21.3 3.94841,33.4577 14.34685,68.76794 21.3,87.19985 z"
		      id="path5522"
		      inkscape:connector-curvature="0"
		      sodipodi:nodetypes="ccccccccccccc"/>
		<path id="path5574"
		      d="m 169.7501,64.999808 c -0.569,-0.0906 -1.14484,-0.18571 -1.72702,-0.28527 -18.53943,-3.16405 -43.80259,-10.76722 -64.27308,-18.81486 v -21.69996 c 12.34313,3.72533 25.68391,8.23542 34.90019,9.70018 -1.46476,-9.21629 -5.97485,-22.55706 -9.70018,-34.900186 h 21.69997 c 8.04764,20.470496 15.6508,45.733656 18.81487,64.273056 0.0996,0.58219 0.19462,1.15803 0.28525,1.72704 z"
		      style="fill:#0a426b;fill-opacity:1;fill-rule:nonzero;stroke:none;stroke-width:2.34744573"
		      inkscape:connector-curvature="0"/>
		<path id="path5587"
		      d="m 240.25019,135.4999 c 0.569,0.0906 1.14484,0.18571 1.72703,0.28527 18.53942,3.16405 43.80258,10.76722 64.27308,18.81487 V 176.3 c -12.34313,-3.72534 -25.68391,-8.23542 -34.90019,-9.70018 1.46475,9.21628 5.97485,22.55705 9.70018,34.90018 h -21.69997 c -8.04764,-20.4705 -15.6508,-45.73365 -18.81487,-64.27306 -0.0996,-0.58219 -0.19462,-1.15803 -0.28526,-1.72704 z"
		      style="fill:#0a426b;fill-opacity:1;fill-rule:nonzero;stroke:none;stroke-width:2.34744573"
		      inkscape:connector-curvature="0"/>
		<path inkscape:connector-curvature="0"
		      style="fill:#0a426b;fill-opacity:1;fill-rule:nonzero;stroke:none;stroke-width:2.34744573"
		      d="m 240.25019,64.999808 c 0.569,-0.0906 1.14484,-0.18571 1.72703,-0.28527 18.53942,-3.16405 43.80258,-10.76722 64.27308,-18.81486 v -21.69996 c -12.34313,3.72533 -25.68391,8.23542 -34.9002,9.70018 1.46476,-9.21629 5.97486,-22.55706 9.70019,-34.900186 h -21.69997 c -8.04764,20.470496 -15.6508,45.733656 -18.81487,64.273056 -0.0996,0.58219 -0.19463,1.15803 -0.28526,1.72704 z"
		      id="path5591"/>
	</g>
</svg>