<?xml version="1.0" encoding="UTF-8" standalone="no"?>
<svg xmlns:dc="http://purl.org/dc/elements/1.1/"
     xmlns:cc="http://creativecommons.org/ns#"
     xmlns:rdf="http://www.w3.org/1999/02/22-rdf-syntax-ns#"
     xmlns:svg="http://www.w3.org/2000/svg"
     xmlns="http://www.w3.org/2000/svg"
     xmlns:sodipodi="http://sodipodi.sourceforge.net/DTD/sodipodi-0.dtd"
     xmlns:inkscape="http://www.inkscape.org/namespaces/inkscape"
     version="1.1"
     x="0px"
     y="0px"
	 width="82.7"
	 height="82.7"
     viewBox="0 0 82.7 82.7">
	<metadata id="metadata71">
		<rdf:RDF>
			<cc:Work rdf:about="">
				<dc:format>image/svg+xml</dc:format>
				<dc:type rdf:resource="http://purl.org/dc/dcmitype/StillImage"/>
			</cc:Work>
		</rdf:RDF>
	</metadata>
	<defs id="defs69"/>
	<sodipodi:namedview pagecolor="#ffffff"
	                    bordercolor="#666666"
	                    borderopacity="1"
	                    objecttolerance="10"
	                    gridtolerance="10"
	                    guidetolerance="10"
	                    inkscape:pageopacity="0"
	                    inkscape:pageshadow="2"
	                    inkscape:window-width="640"
	                    inkscape:window-height="480"
	                    id="namedview67"
	                    showgrid="false"
	                    inkscape:zoom="7.8846971"
	                    inkscape:cx="86.204785"
	                    inkscape:cy="38.824157"
	                    inkscape:current-layer="g62"/>
	<g id="g62">
		<path fill="#FFFFFF"
		      d="M81.7,41c-0.3-0.2-2.7-2-4.2-2l-9.8,0.4l3.7-0.4c1-0.1,2.5-1.6,2.7-1.7l0.3-0.3l-0.4-0.2    c-0.2-0.1-1.8-1-2.8-1c-0.1,0-0.1,0-0.2,0l-8.8,1.5l4.4-0.9c1-0.3,2.2-1.9,2.4-2.1l0.3-0.4l-0.4-0.2c-0.1,0-1.6-0.7-2.7-0.7    c-0.2,0-0.3,0-0.5,0.1l-5.1,1.7l9.3-3.5c0.9-0.4,2-2.2,2.1-2.4l0.2-0.4l-0.5-0.1c-0.1,0-1.3-0.3-2.2-0.3c-0.4,0-0.7,0-0.9,0.1    l-3.5,1.6l8.7-4.6c1.2-0.7,2.5-3.5,2.6-3.8l0.2-0.4l-0.5-0.1c0,0-0.9-0.1-2-0.1c-1.2,0-2.1,0.2-2.7,0.5l-8.4,5.2l3.2-2.2    c0.8-0.6,1.4-2.6,1.4-2.8l0.1-0.5l-0.5,0c-0.2,0-2.3,0-3.1,0.7l-6.9,5.7l3.3-3c0.7-0.7,1-2.8,1-3l0.1-0.4l-0.5,0.1    c-0.2,0-2.3,0.3-3,1l-3.6,4l6.4-7.7c0.6-0.8,0.7-2.9,0.7-3.1l0-0.5l-0.5,0.1c-0.2,0.1-2.2,0.6-2.8,1.4l-2.3,3.2l5.3-8.4    c0.7-1.2,0.4-4.3,0.3-4.6L61.8,6l-0.4,0.2c-0.3,0.1-3.1,1.4-3.8,2.6l-4.6,8.7l1.6-3.5c0.4-0.9-0.1-2.9-0.2-3.2l-0.1-0.5l-0.4,0.2    c-0.2,0.1-2,1.2-2.4,2.1l-3.2,8.5l1.4-4.3c0.3-1-0.6-2.9-0.7-3.1l-0.2-0.4l-0.4,0.3c-0.2,0.1-1.8,1.4-2.1,2.4l-1.1,5.3l1.7-9.8    c0.1-1-0.9-2.8-1-3l-0.2-0.4l-0.3,0.3c-0.2,0.2-1.6,1.7-1.7,2.7L43.3,15l0.4-9.9c0-1.4-1.8-3.9-2-4.2l-0.3-0.4l-0.3,0.4    c-0.2,0.3-2,2.7-2,4.2l0.4,9.8l-0.4-3.8c-0.1-1-1.6-2.5-1.7-2.7L37,8.1l-0.2,0.4c-0.1,0.2-1.1,2-1,3l1.6,9.7l-1.1-5.2    c-0.3-1-1.9-2.3-2.1-2.4l-0.4-0.3l-0.2,0.4C33.6,14,32.8,16,33.1,17l1.5,4.4l-3.2-8.6c-0.4-0.9-2.2-2-2.4-2.1l-0.4-0.2l-0.1,0.5    c-0.1,0.2-0.6,2.2-0.2,3.2l1.6,3.5l-4.6-8.7c-0.7-1.2-3.5-2.5-3.8-2.6L21,6L21,6.5c0,0.3-0.4,3.4,0.4,4.6l5.3,8.5l-2.3-3.3    c-0.6-0.8-2.6-1.4-2.8-1.4L21,14.7l0,0.5c0,0.2,0,2.3,0.7,3.1l6.3,7.6l-3.5-4c-0.7-0.7-2.8-1-3-1L21,20.9l0.1,0.4    c0,0.2,0.3,2.3,1,3.1l3.5,3.1l-7.1-5.9c-0.8-0.6-2.9-0.7-3.1-0.7l-0.5,0l0.1,0.5c0.1,0.2,0.6,2.2,1.4,2.8l3.1,2.2l-8.3-5.2    c-0.5-0.3-1.4-0.5-2.7-0.5c-1,0-1.9,0.1-2,0.1l-0.5,0.1l0.2,0.4c0.1,0.3,1.4,3.1,2.6,3.8l8.9,4.7l-3.6-1.7    c-0.2-0.1-0.5-0.1-0.9-0.1c-1,0-2.2,0.3-2.2,0.3l-0.5,0.1l0.2,0.4c0.1,0.2,1.2,2,2.1,2.4l9.3,3.4L17,33c-0.1,0-0.3-0.1-0.5-0.1    c-1,0-2.6,0.6-2.7,0.7l-0.4,0.2l0.3,0.4c0.1,0.2,1.4,1.9,2.4,2.1l4.6,1l-9.1-1.6c-0.1,0-0.1,0-0.2,0c-1,0-2.6,0.9-2.8,1l-0.4,0.2    l0.3,0.3c0.2,0.2,1.7,1.6,2.7,1.7l3.8,0.4L5.2,39c-1.4,0-3.9,1.8-4.2,2l-0.4,0.3L1,41.6c0.3,0.2,2.7,2,4.2,2h0l10.1-0.4l-4.1,0.4    c-1,0.1-2.5,1.6-2.7,1.7l-0.3,0.3l0.4,0.2c0.2,0.1,1.8,1,2.8,1c0.1,0,0.1,0,0.2,0l8.8-1.5l-4.3,0.9c-1,0.3-2.2,1.9-2.4,2.1    l-0.3,0.4l0.4,0.2c0.1,0,1.6,0.7,2.7,0.7c0.2,0,0.3,0,0.5-0.1l5.1-1.7l-9.3,3.5c-0.9,0.4-2,2.2-2.1,2.4l-0.2,0.4l0.5,0.1    c0.1,0,1.3,0.3,2.2,0.3c0.4,0,0.7,0,0.9-0.1l3.5-1.6l-8.7,4.6c-1.2,0.7-2.5,3.5-2.6,3.8l-0.2,0.4l0.5,0.1c0,0,0.9,0.1,2,0.1    c1.2,0,2.1-0.2,2.7-0.5l8.3-5.2l-3.1,2.2C15.6,59,15.1,61,15,61.2l-0.1,0.5l0.5,0c0.2,0,2.3,0,3.1-0.7l7.1-5.9L22,58.2    c-0.7,0.7-1,2.8-1,3L21,61.7l0.5-0.1c0.2,0,2.3-0.3,3-1l3.5-4l-6.3,7.6c-0.6,0.8-0.7,2.9-0.7,3.1l0,0.5l0.5-0.1    c0.2-0.1,2.2-0.6,2.8-1.4l2.1-3l-5.2,8.2c-0.7,1.2-0.4,4.3-0.3,4.6l0.1,0.5l0.4-0.2c0.3-0.1,3.1-1.4,3.8-2.6l4.6-8.7l-1.6,3.5    c-0.4,0.9,0.1,2.9,0.2,3.2l0.1,0.5l0.4-0.2c0.2-0.1,2-1.2,2.4-2.1l3.2-8.7l-1.5,4.6c-0.3,1,0.6,2.9,0.7,3.1l0.2,0.4l0.4-0.3    c0.2-0.1,1.8-1.4,2.1-2.4l1.1-5.2L35.8,71c-0.1,1,0.9,2.8,1,3l0.2,0.4l0.3-0.3c0.2-0.2,1.6-1.7,1.7-2.7l0.3-3.7l-0.4,9.7    c0,1.4,1.8,3.9,2,4.2l0.3,0.4l0.3-0.4c0.2-0.3,2-2.7,2-4.2l-0.4-10l0.4,3.9c0.1,1,1.6,2.5,1.7,2.7l0.3,0.3L46,74    c0.1-0.2,1.1-2,1-3l-1.6-9.5l1,5c0.3,1,1.9,2.3,2.1,2.4l0.4,0.3l0.2-0.4c0.1-0.2,0.9-2.2,0.6-3.1l-1.5-4.5l3.2,8.7    c0.4,0.9,2.2,2,2.4,2.1l0.4,0.2l0.1-0.5c0.1-0.2,0.6-2.2,0.2-3.2l-1.6-3.4l4.6,8.7c0.7,1.2,3.5,2.5,3.8,2.6l0.4,0.2l0.1-0.5    c0-0.3,0.4-3.4-0.3-4.6l-5.1-8.2l2.1,3c0.6,0.8,2.6,1.4,2.8,1.4l0.5,0.1l0-0.5c0-0.2,0-2.3-0.7-3.1l-6.2-7.5l3.5,3.9    c0.7,0.7,2.8,1,3,1l0.5,0.1l-0.1-0.5c0-0.2-0.3-2.3-1-3.1l-3.5-3.1l7.1,5.9c0.8,0.6,2.9,0.7,3.1,0.7l0.5,0l-0.1-0.5    c-0.1-0.2-0.6-2.2-1.4-2.8l-3.2-2.2l8.4,5.3c0.5,0.3,1.4,0.5,2.7,0.5c1,0,1.9-0.1,2-0.1l0.5-0.1l-0.2-0.4    c-0.1-0.3-1.4-3.1-2.6-3.8l-8.5-4.5l3.3,1.5c0.2,0.1,0.5,0.1,0.9,0.1c1,0,2.2-0.3,2.2-0.3l0.5-0.1L72,53.7c-0.1-0.2-1.2-2-2.1-2.4    l-9.2-3.4l5,1.7c0.1,0,0.3,0.1,0.5,0.1c1,0,2.6-0.6,2.7-0.7l0.4-0.2L69,48.4c-0.1-0.2-1.4-1.9-2.4-2.1l-4.5-0.9l9,1.5    c0.1,0,0.1,0,0.2,0c1,0,2.6-0.9,2.8-1l0.4-0.2l-0.3-0.3c-0.2-0.2-1.7-1.6-2.7-1.7l-3.9-0.4l9.9,0.4h0c1.4,0,3.9-1.8,4.2-2l0.4-0.3    L81.7,41z"
		      id="path54"/>
		<path d="M81.9,40.8c-0.5-0.3-2.9-2.1-4.4-2.1h0l0,0l-4.7,0.2c0.7-0.5,1.4-1.1,1.6-1.3l0.7-0.7l-0.8-0.5c-0.3-0.2-1.9-1-3-1h0    c-0.1,0-0.2,0-0.2,0l0,0l0,0l-3.1,0.5c0.6-0.6,1.2-1.3,1.3-1.5l0.5-0.7L69,33.4c-0.1-0.1-1-0.4-2-0.6l3-1.1l0,0l0,0    c1-0.4,2.1-2.2,2.3-2.5l0.5-0.8l-0.9-0.2c0,0-1.1-0.3-2-0.3l4.1-2.2l0,0l0,0c1.3-0.8,2.5-3.5,2.8-4l0.4-0.9l-1-0.1    c0,0-1-0.1-2-0.1c-1.3,0-2.3,0.2-2.8,0.5l0,0l0,0l-4,2.5c0.4-0.8,0.7-1.7,0.7-1.9l0.3-0.9l-1,0c-0.4,0-2.5,0.1-3.3,0.7l0,0l0,0    l-2.4,2c0.3-0.8,0.4-1.7,0.4-2l0.1-0.9l-0.9,0.1c-0.3,0-1.2,0.2-2,0.5l2-2.5l0,0l0,0c0.7-0.9,0.7-2.9,0.7-3.3l0-1l-0.9,0.3    c-0.2,0.1-1.1,0.3-1.9,0.7l2.5-4l0,0l0,0c0.8-1.3,0.5-4.3,0.4-4.9l-0.1-1l-0.9,0.4c-0.5,0.2-3.2,1.4-4,2.8l0,0l0,0L55,12.8    c0-0.9-0.3-1.8-0.3-2l-0.2-0.9l-0.8,0.5c-0.3,0.2-2.1,1.3-2.5,2.3l0,0l0,0l-1.1,3c-0.2-0.9-0.5-1.7-0.6-1.9L49,12.9l-0.7,0.6    c-0.2,0.2-0.9,0.7-1.5,1.4l0.5-3.2l0,0l0,0c0.1-1.1-0.8-2.9-1-3.2l-0.5-0.8l-0.7,0.7c-0.2,0.2-0.8,0.9-1.3,1.6L44,5.2l0,0v0    c0-1.5-1.7-3.9-2.1-4.4L41.4,0l-0.6,0.8c-0.3,0.5-2.1,2.9-2.1,4.4v0l0,0l0.2,4.7c-0.5-0.7-1.1-1.4-1.3-1.6l-0.7-0.7l-0.5,0.8    c-0.2,0.4-1.2,2.2-1,3.2l0,0l0,0l0.5,3.2c-0.6-0.7-1.3-1.2-1.5-1.4l-0.7-0.6l-0.4,0.8c-0.1,0.2-0.4,1.1-0.6,1.9l-1.1-3l0,0l0,0    c-0.4-1-2.2-2.1-2.5-2.3l-0.8-0.5l-0.2,0.9c-0.1,0.2-0.3,1.1-0.3,2l-2.2-4.1l0,0l0,0c-0.8-1.3-3.5-2.5-4-2.8l-0.9-0.4l-0.1,1    c-0.1,0.6-0.4,3.5,0.4,4.9l0,0l0,0l2.5,4c-0.8-0.4-1.7-0.7-1.9-0.7l-0.9-0.3l0,1c0,0.4,0.1,2.5,0.7,3.3l0,0l0,0l2,2.5    c-0.8-0.3-1.7-0.4-2-0.5l-0.9-0.1l0.1,0.9c0,0.3,0.2,1.1,0.4,2l-2.4-2l0,0l0,0c-0.9-0.7-2.9-0.7-3.3-0.7l-1,0l0.3,0.9    c0.1,0.2,0.3,1.1,0.7,1.9l-4-2.5l0,0l0,0c-0.6-0.3-1.5-0.5-2.8-0.5c-1.1,0-2,0.1-2,0.1l-1,0.1l0.4,0.9c0.2,0.5,1.4,3.2,2.8,4l0,0    l0,0l4.2,2.2c-1,0.1-2,0.3-2,0.3l-0.9,0.2l0.5,0.8c0.2,0.3,1.3,2.1,2.3,2.5l0,0l0,0l3,1.1c-0.9,0.2-1.8,0.6-2,0.6l-0.8,0.3    l0.5,0.7c0.2,0.2,0.7,0.9,1.4,1.5l-3.1-0.5l0,0l0,0c-0.1,0-0.2,0-0.2,0c-1.1,0-2.7,0.9-3,1l-0.8,0.5l0.7,0.7    c0.2,0.2,0.8,0.8,1.6,1.3l-4.7-0.2h0h0c-1.5,0-3.9,1.7-4.4,2.1L0,41.3l0.8,0.6C1.2,42.3,3.6,44,5.2,44h0l0,0l4.7-0.2    c-0.7,0.5-1.4,1.1-1.6,1.3l-0.7,0.7l0.8,0.5c0.3,0.2,1.9,1,3,1c0.1,0,0.2,0,0.2,0l0,0l0,0l3.1-0.5c-0.6,0.6-1.2,1.3-1.3,1.5    L12.9,49l0.8,0.3c0.1,0.1,1,0.4,2,0.6l-3,1.1l0,0l0,0c-1,0.4-2.1,2.2-2.3,2.5l-0.5,0.8l0.9,0.2c0,0,1.1,0.3,2,0.3l-4.1,2.2l0,0    l0,0c-1.3,0.8-2.5,3.5-2.8,4L5.5,62l1,0.1c0,0,1,0.1,2,0.1c1.3,0,2.3-0.2,2.8-0.5l0,0l4-2.5c-0.4,0.8-0.7,1.7-0.7,1.9l-0.3,0.9    l1,0c0.4,0,2.5-0.1,3.3-0.7l0,0l0,0l2.4-2c-0.3,0.8-0.4,1.7-0.4,2l-0.1,0.9l0.9-0.1c0.3,0,1.2-0.2,2-0.5l-2,2.5l0,0l0,0    c-0.7,0.9-0.7,2.9-0.7,3.3l0,1l0.9-0.3c0.2-0.1,1.1-0.3,1.9-0.7l-2.5,4l0,0l0,0c-0.8,1.3-0.5,4.3-0.4,4.9l0.1,1l0.9-0.4    c0.5-0.2,3.2-1.4,4-2.8l0,0l2.2-4.2c0,0.9,0.3,1.8,0.3,2l0.2,0.9l0.8-0.5c0.3-0.2,2.1-1.3,2.5-2.3l0,0l0,0l1.1-3    c0.2,0.9,0.5,1.7,0.6,1.9l0.4,0.8l0.7-0.6c0.2-0.2,0.9-0.7,1.5-1.4L35.4,71l0,0l0,0c-0.1,1.1,0.8,2.9,1,3.2l0.5,0.8l0.7-0.7    c0.2-0.2,0.8-0.8,1.3-1.6l-0.2,4.7l0,0v0c0,1.5,1.7,3.9,2.1,4.4l0.6,0.8l0.6-0.8c0.3-0.5,2.1-2.9,2.1-4.4v0l-0.2-4.7    c0.5,0.7,1.1,1.4,1.3,1.6l0.7,0.7l0.5-0.8c0.2-0.4,1.2-2.2,1-3.2l0,0l0,0l-0.5-3.1c0.6,0.7,1.3,1.2,1.5,1.4l0.7,0.6l0.4-0.8    c0.1-0.2,0.4-1.1,0.6-1.9L51,70l0,0l0,0c0.4,1,2.2,2.1,2.5,2.3l0.8,0.5l0.2-0.9c0.1-0.2,0.3-1.1,0.3-2l2.2,4.1l0,0l0,0    c0.8,1.3,3.5,2.5,4,2.8l0.9,0.4l0.1-1c0.1-0.6,0.4-3.5-0.4-4.9l0,0l-2.5-3.9c0.8,0.4,1.6,0.7,1.9,0.7l0.9,0.3l0-1    c0-0.4-0.1-2.5-0.7-3.3l0,0l0,0l-2-2.5c0.8,0.3,1.7,0.4,2,0.5l0.9,0.1l-0.1-0.9c0-0.3-0.1-1.1-0.4-2l2.4,2l0,0l0,0    c0.9,0.7,2.9,0.7,3.3,0.7l1,0l-0.3-0.9c-0.1-0.2-0.3-1.1-0.7-1.9l4,2.5l0,0l0,0c0.6,0.3,1.5,0.5,2.8,0.5c1.1,0,2-0.1,2-0.1l1-0.1    l-0.4-0.9c-0.2-0.5-1.4-3.2-2.8-4l0,0l0,0l-4.1-2.2c0.9-0.1,1.9-0.3,2-0.3l0.9-0.2l-0.5-0.8c-0.2-0.3-1.3-2.1-2.3-2.5l0,0l0,0    l-3-1.1c0.9-0.2,1.8-0.5,2-0.6l0.8-0.3l-0.5-0.7c-0.2-0.2-0.7-0.9-1.3-1.5l3.1,0.5l0,0l0,0c0.1,0,0.2,0,0.2,0c1.1,0,2.8-0.9,3-1    l0.8-0.5l-0.7-0.7c-0.2-0.2-0.9-0.8-1.6-1.3l4.7,0.2h0h0c1.5,0,3.9-1.7,4.4-2.1l0.8-0.6L81.9,40.8z M71.1,36.1c0,0,0.1,0,0.1,0    c0.9,0,2.6,1,2.6,1s-1.6,1.5-2.5,1.6L67.7,39l-9.9,0.4v-1L71.1,36.1z M68.7,34c0,0-1.3,1.8-2.2,2l-4.1,0.9l-4.6,0.8v-1.5l3-1.1    l4.9-1.6c0.1,0,0.2,0,0.4,0C67.1,33.4,68.7,34,68.7,34 M71.7,28.8c0,0-1.1,1.9-1.9,2.2l-11.9,4.4v-1.3l7.5-4l3.4-1.6    c0.2-0.1,0.5-0.1,0.8-0.1C70.5,28.5,71.7,28.8,71.7,28.8 M71.7,21.6c0.6-0.3,1.6-0.4,2.5-0.4c1,0,1.9,0.1,1.9,0.1s-1.3,3-2.5,3.7    l-15.8,8.4v-1.1v-1.9L71.7,21.6z M64.5,21.9c0.7-0.5,2.9-0.6,2.9-0.6s-0.6,2.1-1.3,2.6L63,26.2l-5.2,3.2v-2L64.5,21.9z M61.4,21.3    c0,0-0.3,2.2-0.9,2.8l-2.7,2.4v0h-3l0.3-0.4l3.4-3.9C59.2,21.6,61.4,21.3,61.4,21.3 M57.1,45.3c0,3.7-1.8,7.5-4.6,10.4    c-2.9,2.9-6.8,4.9-11.1,4.9c-4.3,0-8.3-2-11.1-4.9c-2.9-2.9-4.6-6.8-4.6-10.5l0-0.8V27.2h31.5v17.3L57.1,45.3z M61.4,15.3    c0,0,0,2.2-0.6,2.9l-6.9,8.3h-1.6l4.2-6.8l2.2-3.2C59.3,15.9,61.4,15.3,61.4,15.3 M57.8,9.1c0.7-1.2,3.7-2.5,3.7-2.5    s0.4,3.2-0.3,4.4l-9.7,15.5h-2.9L57.8,9.1z M51.7,12.9c0.3-0.8,2.2-1.9,2.2-1.9s0.5,2.1,0.2,2.9l-1.6,3.5l-4.8,9.1h-1L51.7,12.9z     M48.7,14c0,0,0.9,2,0.6,2.9L48,21l-2,5.5h-1.2l0.9-5.2l1.1-5.1C46.9,15.3,48.7,14,48.7,14 M44,11.2c0.1-0.9,1.6-2.5,1.6-2.5    s1.1,1.9,0.9,2.8L44,26.5h-0.8l0.4-11.4L44,11.2z M41.4,1.2c0,0,1.9,2.6,1.9,4l-0.8,21.3h-2.3L39.4,5.2    C39.4,3.8,41.4,1.2,41.4,1.2 M37.1,8.8c0,0,1.5,1.6,1.6,2.5l0.4,3.8l0.4,11.5h-0.8l-2.5-14.9C36,10.7,37.1,8.8,37.1,8.8 M34,14    c0,0,1.7,1.3,2,2.2l1,4.9l0.9,5.4h-1.1l-2-5.4l-1.4-4.2C33.2,16,34,14,34,14 M28.8,11c0,0,1.9,1.1,2.2,1.9l5,13.6h-1l-4.8-9.1    l-1.6-3.5C28.3,13.1,28.8,11,28.8,11 M21.6,11c-0.7-1.2-0.3-4.4-0.3-4.4s3,1.3,3.7,2.5l9.2,17.5h-2.9L21.6,11z M21.9,18.2    c-0.6-0.7-0.6-2.9-0.6-2.9s2.1,0.6,2.6,1.3l2.3,3.2l4.2,6.7h-1.7L21.9,18.2z M24.2,22.3l3.4,3.8l0.4,0.5h-3v0l-2.6-2.4    c-0.6-0.6-0.9-2.8-0.9-2.8S23.5,21.6,24.2,22.3 M15.3,21.3c0,0,2.2,0,2.9,0.6l6.7,5.6v1.9l-5.2-3.3L16.6,24    C15.9,23.4,15.3,21.3,15.3,21.3 M9,24.9c-1.2-0.7-2.5-3.7-2.5-3.7s0.9-0.1,1.9-0.1c0.9,0,1.9,0.1,2.5,0.4l13.9,8.7v3L9,24.9z     M12.9,31c-0.8-0.3-1.9-2.2-1.9-2.2s1.2-0.3,2.1-0.3c0.3,0,0.6,0,0.8,0.1l3.6,1.7l7.3,3.9v1.3L12.9,31z M14,34    c0,0,1.6-0.6,2.5-0.6c0.1,0,0.3,0,0.4,0l4.8,1.6l3.1,1.2v1.5l-4.3-0.7L16.2,36C15.3,35.8,14,34,14,34 M8.8,37.1c0,0,1.7-1,2.6-1    c0.1,0,0.1,0,0.1,0l13.3,2.3v1L15,39l-3.7-0.3C10.3,38.6,8.8,37.1,8.8,37.1 M5.2,43.3c-1.4,0-4-1.9-4-1.9s2.6-1.9,4-1.9l19.7,0.7    v2.4L5.2,43.3z M11.6,46.6c0,0-0.1,0-0.2,0c-0.9,0-2.6-1-2.6-1s1.6-1.5,2.5-1.6l4-0.4l9.6-0.4v1.1L11.6,46.6z M14,48.7    c0,0,1.3-1.8,2.2-2l4.1-0.8l4.6-0.8l0,0.2c0,0.2,0,0.4,0,0.6c0,0.2,0,0.4,0,0.6c0,0,0,0,0,0l-3.1,1.2l-4.9,1.6c-0.1,0-0.2,0-0.4,0    C15.6,49.3,14,48.7,14,48.7 M11,53.9c0,0,1.1-1.9,1.9-2.2L25,47.2c0,0.2,0.1,0.4,0.1,0.5c0,0,0,0.1,0,0.1c0,0.2,0.1,0.3,0.1,0.5    l-7.9,4.2L14,54.1c-0.2,0.1-0.5,0.1-0.8,0.1C12.2,54.2,11,53.9,11,53.9 M11,61.1c-0.6,0.3-1.6,0.4-2.5,0.4c-1,0-1.9-0.1-1.9-0.1    s1.3-3,2.5-3.7l16.4-8.7c0.2,0.8,0.5,1.6,0.9,2.4L11,61.1z M18.2,60.8c-0.7,0.6-2.9,0.6-2.9,0.6s0.6-2.1,1.3-2.6l3.1-2.2l7-4.4    c0,0,0,0,0,0c0.1,0.2,0.2,0.4,0.3,0.5c0,0.1,0.1,0.1,0.1,0.2c0.1,0.1,0.2,0.3,0.2,0.4L18.2,60.8z M21.3,61.4c0,0,0.3-2.2,0.9-2.8    l3.4-3l2.1-1.7l0,0c0.3,0.5,0.7,0.9,1,1.4l-1.2,1.5l-3.4,3.8C23.5,61.1,21.3,61.4,21.3,61.4 M21.4,67.4c0,0,0-2.2,0.6-2.9l7.3-8.8    c0,0,0,0,0,0c0.3,0.3,0.6,0.6,0.9,0.9c0,0,0,0,0,0l-4,6.4l-2.1,3C23.5,66.8,21.4,67.4,21.4,67.4 M25,73.7    c-0.7,1.2-3.7,2.5-3.7,2.5s-0.4-3.2,0.3-4.4l9.1-14.5c0.1,0.1,0.3,0.3,0.5,0.4c0,0,0.1,0.1,0.1,0.1c0.1,0.1,0.3,0.2,0.4,0.3    c0.1,0.1,0.2,0.1,0.3,0.2c0.1,0.1,0.2,0.1,0.3,0.2c0.2,0.1,0.4,0.3,0.6,0.4L25,73.7z M31,69.7c-0.3,0.8-2.2,1.9-2.2,1.9    s-0.5-2.1-0.2-2.9l1.6-3.5l3.2-6.1c0,0,0,0,0,0c0.2,0.1,0.4,0.2,0.6,0.3c0,0,0,0,0.1,0c0.2,0.1,0.4,0.2,0.6,0.3L31,69.7z M34,68.7    c0,0-0.9-2-0.6-2.9l1.4-4.3l0.5-1.4v0c0.3,0.1,0.6,0.2,0.9,0.3c0,0,0,0,0.1,0c0.3,0.1,0.6,0.2,0.9,0.3L37,61.5l-1,5    C35.8,67.3,34,68.7,34,68.7 M39.1,67.8l-0.3,3.7c-0.1,0.9-1.6,2.5-1.6,2.5S36,72,36.1,71.1l1.7-10.2c0.2,0.1,0.5,0.1,0.7,0.1    c0,0,0,0,0,0c0.2,0,0.5,0.1,0.7,0.1L39.1,67.8z M41.4,81.5c0,0-1.9-2.6-1.9-4L40,61.3c0.2,0,0.4,0,0.6,0c0.2,0,0.5,0,0.7,0    c0.2,0,0.5,0,0.7,0c0.2,0,0.4,0,0.6,0l0.6,16.3C43.3,78.9,41.4,81.5,41.4,81.5 M45.7,73.9c0,0-1.5-1.6-1.6-2.5l-0.4-3.9l-0.2-6.3    c0.2,0,0.5-0.1,0.7-0.1c0,0,0,0,0,0c0.2,0,0.5-0.1,0.7-0.1c0,0,0,0,0,0l1.7,10.2C46.7,72,45.7,73.9,45.7,73.9 M48.7,68.7    c0,0-1.7-1.3-2-2.2l-1-4.8l-0.2-0.9h0c0.3-0.1,0.6-0.2,0.9-0.3c0,0,0,0,0.1,0c0.3-0.1,0.6-0.2,0.9-0.3l0.5,1.4l1.4,4.3    C49.5,66.7,48.7,68.7,48.7,68.7 M53.9,71.7c0,0-1.9-1.1-2.2-1.9L48,59.8c0,0,0,0,0,0c0.2-0.1,0.4-0.2,0.6-0.3c0,0,0,0,0,0    c0.2-0.1,0.4-0.2,0.6-0.3c0,0,0,0,0,0l3.3,6.2l1.6,3.4C54.5,69.6,53.9,71.7,53.9,71.7 M61.1,71.7c0.7,1.2,0.3,4.4,0.3,4.4    s-3-1.3-3.7-2.5l-7.9-14.9c0,0,0,0,0,0c0,0,0,0,0,0c0.2-0.1,0.4-0.3,0.6-0.4c0.1-0.1,0.2-0.1,0.3-0.2c0.1-0.1,0.2-0.1,0.2-0.2    c0.1-0.1,0.3-0.2,0.4-0.3c0,0,0.1-0.1,0.1-0.1c0.1-0.1,0.3-0.2,0.4-0.4c0,0,0,0,0,0L61.1,71.7z M60.8,64.5    c0.6,0.7,0.6,2.9,0.6,2.9s-2.1-0.6-2.6-1.3l-2.1-3l-4-6.4c0.3-0.3,0.6-0.6,0.9-0.9c0,0,0,0,0,0L60.8,64.5z M58.5,60.4l-3.3-3.7    L54,55.2c0.4-0.4,0.7-0.9,1-1.4c0,0,0,0,0,0l2.1,1.8l3.3,3c0.6,0.6,0.9,2.8,0.9,2.8S59.2,61.1,58.5,60.4 M67.4,61.3    c0,0-2.2,0-2.9-0.6l-9.1-7.5l0,0c0.1-0.1,0.2-0.3,0.2-0.4c0-0.1,0.1-0.1,0.1-0.2c0.1-0.2,0.2-0.4,0.3-0.5l6.9,4.3l3.1,2.2    C66.8,59.2,67.4,61.3,67.4,61.3 M73.7,57.7c1.2,0.7,2.5,3.7,2.5,3.7s-0.9,0.1-1.9,0.1c-0.9,0-1.9-0.1-2.5-0.4l-15.3-9.6v0    c0.4-0.8,0.7-1.6,0.9-2.4L73.7,57.7z M69.7,51.7c0.8,0.3,1.9,2.2,1.9,2.2s-1.2,0.3-2.1,0.3c-0.3,0-0.6,0-0.8-0.1l-3.3-1.5l-8-4.2    c0,0,0,0,0,0c0-0.2,0.1-0.3,0.1-0.5c0,0,0-0.1,0-0.1c0-0.2,0.1-0.4,0.1-0.5L69.7,51.7z M68.7,48.7c0,0-1.6,0.6-2.5,0.6    c-0.1,0-0.3,0-0.4,0L61,47.7l-3.2-1.2c0,0,0,0,0,0c0-0.2,0-0.4,0-0.6c0-0.2,0-0.6,0-0.6l0-0.3l4.4,0.7l4.3,0.9    C67.4,46.9,68.7,48.7,68.7,48.7 M73.9,45.6c0,0-1.7,1-2.6,1c-0.1,0-0.1,0-0.2,0l-13.3-2.3v-1l9.7,0.4l3.9,0.4    C72.4,44.1,73.9,45.6,73.9,45.6 M77.5,43.3l-19.7-0.7v-2.4l19.7-0.7c1.4,0,4,1.9,4,1.9S78.9,43.3,77.5,43.3"
		      id="path56"/>
	</g>
</svg>