<?xml version="1.0" encoding="UTF-8"?>
<!-- Generator: Adobe Illustrator 15.1.0, SVG Export Plug-In . SVG Version: 6.00 Build 0)  -->
<!DOCTYPE svg PUBLIC "-//W3C//DTD SVG 1.1//EN" "http://www.w3.org/Graphics/SVG/1.1/DTD/svg11.dtd">
<svg version="1.1" id="svg2" inkscape:version="0.48.0 r9654" sodipodi:docname="Zoll.svg" xmlns:dc="http://purl.org/dc/elements/1.1/" xmlns:cc="http://creativecommons.org/ns#" xmlns:rdf="http://www.w3.org/1999/02/22-rdf-syntax-ns#" xmlns:svg="http://www.w3.org/2000/svg" xmlns:sodipodi="http://sodipodi.sourceforge.net/DTD/sodipodi-0.dtd" xmlns:inkscape="http://www.inkscape.org/namespaces/inkscape" xmlns="http://www.w3.org/2000/svg" xmlns:xlink="http://www.w3.org/1999/xlink" x="0px" y="0px" width="273.393px" height="183.58px" viewBox="0 0 273.393 183.58" enable-background="new 0 0 273.393 183.58" xml:space="preserve">
<filter x="-0.15785706" y="-0.16598074" width="1.3157141" height="1.3319615" id="filter5102" inkscape:collect="always" color-interpolation-filters="sRGB">
	<feGaussianBlur id="feGaussianBlur5104" inkscape:collect="always" stdDeviation="3.3139953"/>
</filter>
<filter x="-0.19676806" y="-0.20689417" width="1.3935361" height="1.4137884" id="filter5098" inkscape:collect="always" color-interpolation-filters="sRGB">
	<feGaussianBlur id="feGaussianBlur5100" inkscape:collect="always" stdDeviation="4.130879"/>
</filter>
<filter x="-0.13581944" y="-0.142809" width="1.2716389" height="1.2856179" id="filter5094" inkscape:collect="always" color-interpolation-filters="sRGB">
	<feGaussianBlur id="feGaussianBlur5096" inkscape:collect="always" stdDeviation="2.851345"/>
</filter>
<filter x="-0.13581944" y="-0.142809" width="1.2716389" height="1.2856179" id="filter5090" inkscape:collect="always" color-interpolation-filters="sRGB">
	<feGaussianBlur id="feGaussianBlur5092" inkscape:collect="always" stdDeviation="2.851345"/>
</filter>
<filter id="filter4951" inkscape:collect="always" color-interpolation-filters="sRGB">
	<feGaussianBlur id="feGaussianBlur4953" inkscape:collect="always" stdDeviation="2.0867941"/>
</filter>
<sodipodi:namedview id="base" fit-margin-bottom="0" fit-margin-right="0" inkscape:guide-bbox="true" inkscape:window-y="-8" inkscape:window-x="-8" inkscape:window-height="850" inkscape:window-width="1440" inkscape:current-layer="layer1" inkscape:document-units="px" inkscape:pageshadow="2" inkscape:pageopacity="0.0" inkscape:window-maximized="1" fit-margin-left="0" fit-margin-top="0" showguides="true" showgrid="false" inkscape:cy="72.719194" inkscape:cx="153.71894" inkscape:zoom="2" borderopacity="1.0" bordercolor="#666666" pagecolor="#ffffff">
	</sodipodi:namedview>
<g id="layer1" transform="translate(-212.85714,-438.96101)" sodipodi:insensitive="true" inkscape:groupmode="layer" inkscape:label="Hintergrund" display="none">

</g>
<g id="layer2" transform="translate(-212.85714,-438.96101)" inkscape:groupmode="layer" inkscape:label="formen">
	<g id="path4933" sodipodi:nodetypes="ccccc" inkscape:connector-curvature="0" filter="url(#filter4951)">
		<polygon fill="#B3B3B3" points="218.214,443.97 218.214,604.505 308.929,587.541 308.929,465.22   "/>
	</g>
	<path id="path3765" sodipodi:nodetypes="ccccc" inkscape:connector-curvature="0" fill="#5487BE" d="M212.857,441.47v160.535   l90.714-16.964V462.72L212.857,441.47z"/>
	<rect id="rect4955" x="261.071" y="601.291" width="15" height="21.25"/>
	<rect id="rect4957" x="283.036" y="601.291" fill="#FE0000" width="15" height="21.25"/>
	<rect id="rect4959" x="304.107" y="601.291" fill="#FFCC00" width="15" height="21.25"/>
	<rect id="rect4961" x="325.714" y="601.291" fill="#5487BE" width="160.536" height="21.25"/>
	<path id="path4963" sodipodi:nodetypes="cccccccccccccccccccccccccc" inkscape:connector-curvature="0" fill="#5487BE" d="   M416.964,545.308H435c0.787-0.013,1.132,0.385,1.116,1.116v1.741c0.034,0.745-0.239,1.238-1.184,1.183h-1.986   c-1.239-0.063-1.963,0.5-1.953,1.953v30.882c0.025,1.036,0.072,2.058,1.959,1.959h7.137c4.743-0.005,1.447-6.69,5.357-6.78h2.59   v9.019c0.028,0.66-0.225,1.079-1.027,1.026h-29.42c-0.936,0.032-1.21-0.49-1.228-1.228v-1.139c0.12-0.737,0.683-0.754,1.269-0.732   h1.388c1.322,0.031,2.032-0.617,2.045-2.045v-30.883c-0.065-1.346-0.734-2.044-2.049-2.05h-1.96   c-0.812,0.001-1.109-0.436-1.118-1.118v-1.832C415.951,545.614,416.354,545.333,416.964,545.308L416.964,545.308z"/>
	<path id="path4965" sodipodi:nodetypes="cccccccccccccccccccccccccc" inkscape:connector-curvature="0" fill="#5487BE" d="   M453.077,545.308h18.036c0.787-0.013,1.132,0.385,1.116,1.116v1.741c0.034,0.745-0.239,1.238-1.184,1.183h-1.986   c-1.239-0.063-1.963,0.5-1.953,1.953v30.882c0.024,1.036,0.072,2.058,1.959,1.959h7.137c4.743-0.005,1.447-6.69,5.357-6.78h2.589   v9.019c0.029,0.66-0.224,1.079-1.026,1.026h-29.42c-0.936,0.032-1.21-0.49-1.228-1.228v-1.139c0.119-0.737,0.682-0.754,1.269-0.732   h1.388c1.321,0.031,2.032-0.617,2.044-2.045v-30.883c-0.064-1.346-0.733-2.044-2.049-2.05h-1.96   c-0.811,0.001-1.109-0.436-1.118-1.118v-1.832C452.063,545.614,452.468,545.333,453.077,545.308L453.077,545.308z"/>
	<path id="path5112" sodipodi:nodetypes="ccccccccccccccccccccc" inkscape:connector-curvature="0" fill="#5487BE" d="   M360.003,587.439h-32.966c-0.622,0.088-1.076-0.126-1.105-1.104v-4.072c0.059-0.197-0.098-0.181,0.572-0.99l24.146-31.903h-17.678   c-2.727-0.01-1.438,5.183-3.914,5.24h-2.336v-8.207c0.044-0.986,0.547-1.283,1.263-1.263h31.945   c0.889-0.011,1.151,0.412,1.073,1.073v3.914l-25.254,33.841h19.13c2.581-0.04,1.544-6.875,3.536-7.009h1.578   c0.573-0.013,1.09,0.062,1.042,1.042l-0.158,8.367C360.913,587.129,360.629,587.439,360.003,587.439L360.003,587.439z"/>
	<path id="path5132" inkscape:connector-curvature="0" fill="#5487BE" d="M389.094,545.125c-15.674,0-21.281,8.09-21.281,22.125   c0,14.036,5.607,22.125,21.281,22.125s21.313-8.089,21.313-22.125C410.406,553.215,404.768,545.125,389.094,545.125z    M389.094,549.25c7.986,0,11.813,3.233,11.813,18c0,14.768-3.826,17.969-11.813,17.969c-8.021,0-11.781-3.201-11.781-17.969   C377.312,552.483,381.072,549.25,389.094,549.25z"/>
</g>
<g id="layer3" transform="translate(-212.85714,-438.96101)" sodipodi:insensitive="true" inkscape:groupmode="layer" inkscape:label="sterne">
	
		<g id="path4986" inkscape:transform-center-y="-1.0803128" sodipodi:type="star" sodipodi:sides="5" sodipodi:cx="379.28571" sodipodi:cy="486.29074" sodipodi:r1="26.488831" sodipodi:r2="10.573989" sodipodi:arg1="-1.5707963" sodipodi:arg2="-0.94247777" inkscape:flatsided="false" inkscape:rounded="0" inkscape:randomized="0" filter="url(#filter5090)">
		<polygon fill="#B3B3B3" points="309.741,468.626 312.396,476.285 320.501,476.443 314.036,481.335 316.392,489.092     309.741,484.455 303.092,489.092 305.446,481.335 298.982,476.443 307.087,476.285   "/>
	</g>
	
		<g id="path4988" inkscape:transform-center-y="-1.0803128" sodipodi:type="star" sodipodi:sides="5" sodipodi:cx="379.28571" sodipodi:cy="486.29074" sodipodi:r1="26.488831" sodipodi:r2="10.573989" sodipodi:arg1="-1.5707963" sodipodi:arg2="-0.94247777" inkscape:flatsided="false" inkscape:rounded="0" inkscape:randomized="0" filter="url(#filter5094)">
		<polygon fill="#B3B3B3" points="310.187,557.822 312.843,565.481 320.947,565.639 314.483,570.531 316.838,578.288     310.187,573.651 303.538,578.288 305.893,570.531 299.429,565.639 307.533,565.481   "/>
	</g>
	
		<g id="path4990" inkscape:transform-center-y="-0.74569144" sodipodi:type="star" sodipodi:sides="5" sodipodi:cx="379.28571" sodipodi:cy="486.29074" sodipodi:r1="26.488831" sodipodi:r2="10.573989" sodipodi:arg1="-1.5707963" sodipodi:arg2="-0.94247777" inkscape:flatsided="false" inkscape:rounded="0" inkscape:randomized="0" filter="url(#filter5098)">
		<polygon fill="#B3B3B3" points="344.266,513.18 346.099,518.467 351.692,518.575 347.23,521.951 348.855,527.305 344.266,524.105     339.676,527.305 341.301,521.951 336.839,518.575 342.434,518.467   "/>
	</g>
	
		<g id="path4992" inkscape:transform-center-y="-0.92949788" sodipodi:type="star" sodipodi:sides="5" sodipodi:cx="379.28571" sodipodi:cy="486.29074" sodipodi:r1="26.488831" sodipodi:r2="10.573989" sodipodi:arg1="-1.5707963" sodipodi:arg2="-0.94247777" inkscape:flatsided="false" inkscape:rounded="0" inkscape:randomized="0" filter="url(#filter5102)">
		<polygon fill="#B3B3B3" points="334.936,486.84 337.22,493.43 344.193,493.566 338.631,497.774 340.657,504.449 334.936,500.46     329.215,504.449 331.24,497.774 325.679,493.566 332.652,493.43   "/>
	</g>
	
		<path id="path4968" inkscape:transform-center-y="-1.5060278" sodipodi:type="star" sodipodi:sides="5" sodipodi:cx="379.28571" sodipodi:cy="486.29074" sodipodi:r1="26.488831" sodipodi:r2="10.573989" sodipodi:arg1="-1.5707963" sodipodi:arg2="-0.94247777" inkscape:flatsided="false" inkscape:rounded="0" inkscape:randomized="0" fill="#FFFFFF" d="   M231.086,504.98l3.7,10.679l11.299,0.22l-9.012,6.818l3.283,10.814l-9.271-6.464l-9.271,6.464l3.283-10.814l-9.013-6.818l11.3-0.22   L231.086,504.98z"/>
	
		<path id="path4970" inkscape:transform-center-y="-1.2594124" sodipodi:type="star" sodipodi:sides="5" sodipodi:cx="379.28571" sodipodi:cy="486.29074" sodipodi:r1="26.488831" sodipodi:r2="10.573989" sodipodi:arg1="-1.5707963" sodipodi:arg2="-0.94247777" inkscape:flatsided="false" inkscape:rounded="0" inkscape:randomized="0" fill="#FFFFFF" d="   M275.097,462.555l3.095,8.929l9.448,0.185l-7.536,5.702l2.745,9.043l-7.752-5.405l-7.752,5.405l2.745-9.043l-7.536-5.702   l9.448-0.185L275.097,462.555z"/>
	
		<path id="path4972" inkscape:transform-center-y="-1.2194174" sodipodi:type="star" sodipodi:sides="5" sodipodi:cx="379.28571" sodipodi:cy="486.29074" sodipodi:r1="26.488831" sodipodi:r2="10.573989" sodipodi:arg1="-1.5707963" sodipodi:arg2="-0.94247777" inkscape:flatsided="false" inkscape:rounded="0" inkscape:randomized="0" fill="#FFFFFF" d="   M274.067,558.897l2.996,8.646l9.148,0.178l-7.297,5.521l2.658,8.756l-7.506-5.233l-7.507,5.233l2.658-8.756l-7.297-5.521   l9.148-0.178L274.067,558.897z"/>
	
		<path id="path4974" inkscape:transform-center-y="-1.3927186" sodipodi:type="star" sodipodi:sides="5" sodipodi:cx="379.28571" sodipodi:cy="486.29074" sodipodi:r1="26.488831" sodipodi:r2="10.573989" sodipodi:arg1="-1.5707963" sodipodi:arg2="-0.94247777" inkscape:flatsided="false" inkscape:rounded="0" inkscape:randomized="0" fill="#FFFFFF" d="   M247.383,475.433l3.422,9.875l10.449,0.203l-8.334,6.306l3.035,10.001l-8.572-5.978l-8.573,5.978l3.036-10.001l-8.334-6.306   l10.448-0.203L247.383,475.433z"/>
	
		<path id="path4976" inkscape:transform-center-y="-1.4260478" sodipodi:type="star" sodipodi:sides="5" sodipodi:cx="379.28571" sodipodi:cy="486.29074" sodipodi:r1="26.488831" sodipodi:r2="10.573989" sodipodi:arg1="-1.5707963" sodipodi:arg2="-0.94247777" inkscape:flatsided="false" inkscape:rounded="0" inkscape:randomized="0" fill="#FFFFFF" d="   M242.285,539.326l3.504,10.11l10.698,0.208l-8.533,6.457l3.108,10.24l-8.777-6.121l-8.778,6.121l3.108-10.24l-8.533-6.457   l10.699-0.208L242.285,539.326z"/>
	
		<path id="path4978" inkscape:transform-center-y="-1.0803128" sodipodi:type="star" sodipodi:sides="5" sodipodi:cx="379.28571" sodipodi:cy="486.29074" sodipodi:r1="26.488831" sodipodi:r2="10.573989" sodipodi:arg1="-1.5707963" sodipodi:arg2="-0.94247777" inkscape:flatsided="false" inkscape:rounded="0" inkscape:randomized="0" fill="#A2B9DB" d="   M306.885,466.84l2.654,7.66l8.104,0.157l-6.464,4.892l2.354,7.757l-6.649-4.636l-6.65,4.636l2.354-7.757l-6.464-4.892l8.104-0.157   L306.885,466.84z"/>
	
		<path id="path4980" inkscape:transform-center-y="-1.0803128" sodipodi:type="star" sodipodi:sides="5" sodipodi:cx="379.28571" sodipodi:cy="486.29074" sodipodi:r1="26.488831" sodipodi:r2="10.573989" sodipodi:arg1="-1.5707963" sodipodi:arg2="-0.94247777" inkscape:flatsided="false" inkscape:rounded="0" inkscape:randomized="0" fill="#A2B9DB" d="   M307.331,556.036l2.654,7.66l8.105,0.157l-6.465,4.892l2.354,7.757l-6.649-4.636l-6.65,4.636l2.355-7.757l-6.465-4.892l8.105-0.157   L307.331,556.036z"/>
	
		<path id="path4982" inkscape:transform-center-y="-0.74569144" sodipodi:type="star" sodipodi:sides="5" sodipodi:cx="379.28571" sodipodi:cy="486.29074" sodipodi:r1="26.488831" sodipodi:r2="10.573989" sodipodi:arg1="-1.5707963" sodipodi:arg2="-0.94247777" inkscape:flatsided="false" inkscape:rounded="0" inkscape:randomized="0" fill="#A2B9DB" d="   M341.409,511.393l1.832,5.287l5.595,0.108l-4.463,3.377l1.626,5.354l-4.59-3.2l-4.591,3.2l1.626-5.354l-4.462-3.377l5.594-0.108   L341.409,511.393z"/>
	
		<path id="path4984" inkscape:transform-center-y="-0.92949788" sodipodi:type="star" sodipodi:sides="5" sodipodi:cx="379.28571" sodipodi:cy="486.29074" sodipodi:r1="26.488831" sodipodi:r2="10.573989" sodipodi:arg1="-1.5707963" sodipodi:arg2="-0.94247777" inkscape:flatsided="false" inkscape:rounded="0" inkscape:randomized="0" fill="#A2B9DB" d="   M332.079,485.055l2.283,6.59l6.974,0.136l-5.562,4.209l2.025,6.674l-5.721-3.989l-5.722,3.989l2.025-6.674l-5.562-4.209   l6.974-0.136L332.079,485.055z"/>
</g>
</svg>