<?xml version="1.0" encoding="UTF-8" standalone="no"?>
<svg xmlns:svg="http://www.w3.org/2000/svg"
     xmlns="http://www.w3.org/2000/svg"
     version="1.0"
     width="1024"
     height="431"
     viewBox="-0.74070018 -0.74070018 62.11280136 26.17140636"
     id="svg13932">
	<defs id="defs13934">
		<clipPath id="clip1">
			<path d="M 974.4375,12.71875 L 1036.9844,12.71875 L 1036.9844,112.23047 L 974.4375,112.23047 L 974.4375,12.71875 z"
			      id="path13937"/>
		</clipPath>
		<clipPath id="clip2">
			<path d="M 973.59766,11.386719 L 1039.2891,11.386719 L 1039.2891,37.972656 L 973.59766,37.972656 L 973.59766,11.386719 z"
			      id="path13940"/>
		</clipPath>
		<clipPath id="clip3">
			<path d="M 0,0 L 1048.75,0 L 1048.75,743.75 L 0,743.75 L 0,0 z"
			      id="path13943"/>
		</clipPath>
		<clipPath id="clip4">
			<path d="M 0,-0.0234375 L 1048.7969,-0.0234375 L 1048.7969,743.67578 L 0,743.67578 L 0,-0.0234375 z"
			      id="path13946"/>
		</clipPath>
		<clipPath id="clip5">
			<path d="M 976.21094,13.613281 L 995.13672,13.613281 L 995.13672,21.265625 L 988.71484,31.914062 L 976.21094,31.914062 L 976.21094,13.613281"
			      id="path13949"/>
		</clipPath>
		<clipPath id="clip6">
			<path d="M 974.4375,12.71875 L 1036.9844,12.71875 L 1036.9844,112.23047 L 974.4375,112.23047 L 974.4375,12.71875 z"
			      id="path13952"/>
		</clipPath>
		<clipPath id="clip7">
			<path d="M 973.59766,11.386719 L 1039.2891,11.386719 L 1039.2891,37.972656 L 973.59766,37.972656 L 973.59766,11.386719 z"
			      id="path13955"/>
		</clipPath>
		<clipPath id="clip8">
			<path d="M 0,0 L 1048.75,0 L 1048.75,743.75 L 0,743.75 L 0,0 z"
			      id="path13958"/>
		</clipPath>
		<clipPath id="clip9">
			<path d="M 0,-0.0234375 L 1048.7969,-0.0234375 L 1048.7969,743.67578 L 0,743.67578 L 0,-0.0234375 z"
			      id="path13961"/>
		</clipPath>
	</defs>
	<g transform="translate(-975.8125,-12.72015)"
	   id="surface0">
		<g clip-path="url(#clip1)"
		   id="g13964">
			<g clip-path="url(#clip2)"
			   id="g13966">
				<g clip-path="url(#clip3)"
				   id="g13968">
					<g clip-path="url(#clip4)"
					   id="g13970">
						<path d="M 975.8125,37.3125 L 976.35938,37.3125 L 976.78906,36.101562 L 978.46875,36.101562 L 978.89844,37.3125 L 979.48438,37.3125 L 977.94141,33.289062 L 977.35547,33.289062 L 975.8125,37.3125 z M 977.62891,33.777344 L 977.64844,33.777344 L 978.29297,35.652344 L 976.96484,35.652344 L 977.62891,33.777344 z"
						      id="path13972"
						      style="fill:#1e1c1c;fill-opacity:1;fill-rule:nonzero;stroke:none"/>
						<path d="M 979.74219,37.3125 L 980.21094,37.3125 L 980.21094,36.023438 C 980.21094,35.28125 980.48438,34.832031 981.24609,34.832031 L 981.24609,34.324219 C 980.73828,34.304688 980.42578,34.539062 980.19141,35.007812 L 980.19141,35.007812 L 980.19141,34.402344 L 979.74219,34.402344 L 979.74219,37.3125 z"
						      id="path13974"
						      style="fill:#1e1c1c;fill-opacity:1;fill-rule:nonzero;stroke:none"/>
						<path d="M 983.8125,35.828125 C 983.8125,36.394531 983.59766,36.960938 982.95312,36.960938 C 982.30859,36.960938 982.05469,36.433594 982.05469,35.847656 C 982.05469,35.300781 982.30859,34.753906 982.93359,34.753906 C 983.53906,34.753906 983.8125,35.28125 983.8125,35.828125 z M 981.60547,37.3125 L 982.07422,37.3125 L 982.07422,36.921875 L 982.09375,36.921875 C 982.28906,37.273438 982.71875,37.371094 983.01172,37.371094 C 983.89062,37.371094 984.32031,36.6875 984.32031,35.867188 C 984.32031,35.046875 983.87109,34.324219 982.99219,34.324219 C 982.60156,34.324219 982.25,34.460938 982.09375,34.792969 L 982.07422,34.792969 L 982.07422,33.289062 L 981.60547,33.289062 L 981.60547,37.3125 z"
						      id="path13976"
						      style="fill:#1e1c1c;fill-opacity:1;fill-rule:nonzero;stroke:none"/>
						<path d="M 986.81641,36.394531 C 986.73828,36.765625 986.46484,36.960938 986.07422,36.960938 C 985.44922,36.960938 985.17578,36.511719 985.19531,36.003906 L 987.32422,36.003906 C 987.36328,35.300781 987.05078,34.324219 986.03516,34.324219 C 985.25391,34.324219 984.6875,34.96875 984.6875,35.847656 C 984.72656,36.746094 985.15625,37.371094 986.05469,37.371094 C 986.69922,37.371094 987.14844,37.039062 987.28516,36.394531 L 986.81641,36.394531 z M 985.19531,35.574219 C 985.21484,35.125 985.50781,34.753906 986.01562,34.753906 C 986.46484,34.753906 986.81641,35.125 986.83594,35.574219 L 985.19531,35.574219 z"
						      id="path13978"
						      style="fill:#1e1c1c;fill-opacity:1;fill-rule:nonzero;stroke:none"/>
						<path d="M 987.82812,37.3125 L 988.29688,37.3125 L 988.29688,34.402344 L 987.82812,34.402344 L 987.82812,37.3125 z M 988.29688,33.289062 L 987.82812,33.289062 L 987.82812,33.875 L 988.29688,33.875 L 988.29688,33.289062 z"
						      id="path13980"
						      style="fill:#1e1c1c;fill-opacity:1;fill-rule:nonzero;stroke:none"/>
						<path d="M 989.66406,33.523438 L 989.17578,33.523438 L 989.17578,34.402344 L 988.70703,34.402344 L 988.70703,34.8125 L 989.17578,34.8125 L 989.17578,36.667969 C 989.17578,37.214844 989.37109,37.3125 989.85938,37.3125 L 990.23047,37.3125 L 990.23047,36.882812 L 990.01562,36.882812 C 989.72266,36.882812 989.66406,36.84375 989.66406,36.628906 L 989.66406,34.8125 L 990.23047,34.8125 L 990.23047,34.402344 L 989.66406,34.402344 L 989.66406,33.523438 z"
						      id="path13982"
						      style="fill:#1e1c1c;fill-opacity:1;fill-rule:nonzero;stroke:none"/>
						<path d="M 992.69141,36.394531 C 992.61328,36.765625 992.33984,36.960938 991.94922,36.960938 C 991.32422,36.960938 991.05078,36.511719 991.07031,36.003906 L 993.19922,36.003906 C 993.23828,35.300781 992.92578,34.324219 991.91016,34.324219 C 991.12891,34.324219 990.5625,34.96875 990.5625,35.847656 C 990.60156,36.746094 991.03125,37.371094 991.92969,37.371094 C 992.57422,37.371094 993.02344,37.039062 993.16016,36.394531 L 992.69141,36.394531 z M 991.07031,35.574219 C 991.08984,35.125 991.38281,34.753906 991.89062,34.753906 C 992.33984,34.753906 992.69141,35.125 992.71094,35.574219 L 991.07031,35.574219 z"
						      id="path13984"
						      style="fill:#1e1c1c;fill-opacity:1;fill-rule:nonzero;stroke:none"/>
						<path d="M 993.64844,37.3125 L 994.11719,37.3125 L 994.11719,36.023438 C 994.11719,35.28125 994.39062,34.832031 995.15234,34.832031 L 995.15234,34.324219 C 994.64453,34.304688 994.33203,34.539062 994.09766,35.007812 L 994.09766,35.007812 L 994.09766,34.402344 L 993.64844,34.402344 L 993.64844,37.3125 z"
						      id="path13986"
						      style="fill:#1e1c1c;fill-opacity:1;fill-rule:nonzero;stroke:none"/>
						<path d="M 995.08984,35.964844 L 996.69141,35.964844 L 996.69141,35.515625 L 995.08984,35.515625 L 995.08984,35.964844 z"
						      id="path13988"
						      style="fill:#1e1c1c;fill-opacity:1;fill-rule:nonzero;stroke:none"/>
						<path d="M 1000.1523,34.460938 C 1000.1328,33.582031 999.50781,33.191406 998.70703,33.191406 C 997.98438,33.191406 997.28125,33.542969 997.28125,34.363281 C 997.28125,35.105469 997.90625,35.300781 998.55078,35.4375 C 999.17578,35.574219 999.80078,35.671875 999.80078,36.21875 C 999.80078,36.804688 999.27344,36.960938 998.80469,36.960938 C 998.19922,36.960938 997.65234,36.667969 997.65234,35.984375 L 997.14453,35.984375 C 997.14453,36.960938 997.90625,37.410156 998.78516,37.410156 C 999.50781,37.410156 1000.3281,37.058594 1000.3281,36.199219 C 1000.3281,35.417969 999.70312,35.183594 999.05859,35.046875 C 998.43359,34.890625 997.80859,34.832031 997.80859,34.324219 C 997.80859,33.796875 998.23828,33.640625 998.6875,33.640625 C 999.23438,33.640625 999.60547,33.894531 999.66406,34.460938 L 1000.1523,34.460938 z"
						      id="path13990"
						      style="fill:#1e1c1c;fill-opacity:1;fill-rule:nonzero;stroke:none"/>
						<path d="M 1002.6406,36.296875 C 1002.6406,36.570312 1002.3867,36.960938 1001.7617,36.960938 C 1001.4688,36.960938 1001.2148,36.84375 1001.2148,36.53125 C 1001.2148,36.179688 1001.4688,36.0625 1001.7812,36.003906 C 1002.0938,35.945312 1002.4453,35.945312 1002.6406,35.808594 L 1002.6406,36.296875 z M 1003.4023,36.921875 C 1003.3438,36.960938 1003.2852,36.960938 1003.2461,36.960938 C 1003.1094,36.960938 1003.1094,36.863281 1003.1094,36.628906 L 1003.1094,35.125 C 1003.1094,34.441406 1002.543,34.324219 1002.0352,34.324219 C 1001.3906,34.324219 1000.8438,34.578125 1000.8242,35.300781 L 1001.293,35.300781 C 1001.3125,34.871094 1001.6055,34.753906 1001.9961,34.753906 C 1002.3086,34.753906 1002.6406,34.8125 1002.6406,35.242188 C 1002.6406,35.59375 1002.1914,35.554688 1001.6836,35.671875 C 1001.1953,35.769531 1000.707,35.90625 1000.707,36.570312 C 1000.707,37.136719 1001.1367,37.371094 1001.6641,37.371094 C 1002.0547,37.371094 1002.4062,37.234375 1002.6602,36.921875 C 1002.6602,37.253906 1002.8164,37.371094 1003.0508,37.371094 C 1003.207,37.371094 1003.3047,37.351562 1003.4023,37.292969 L 1003.4023,36.921875 z"
						      id="path13992"
						      style="fill:#1e1c1c;fill-opacity:1;fill-rule:nonzero;stroke:none"/>
						<path d="M 1003.8086,37.3125 L 1004.2773,37.3125 L 1004.2773,35.496094 C 1004.2773,35.28125 1004.4922,34.753906 1005.0391,34.753906 C 1005.4688,34.753906 1005.5859,35.027344 1005.5859,35.398438 L 1005.5859,37.3125 L 1006.0547,37.3125 L 1006.0547,35.496094 C 1006.0547,35.046875 1006.3477,34.753906 1006.7969,34.753906 C 1007.2461,34.753906 1007.3438,35.046875 1007.3438,35.398438 L 1007.3438,37.3125 L 1007.8125,37.3125 L 1007.8125,35.164062 C 1007.8125,34.578125 1007.4414,34.324219 1006.875,34.324219 C 1006.5039,34.324219 1006.1719,34.519531 1005.9766,34.832031 C 1005.8594,34.460938 1005.5273,34.324219 1005.1953,34.324219 C 1004.7852,34.324219 1004.4727,34.5 1004.2578,34.832031 L 1004.2578,34.832031 L 1004.2578,34.402344 L 1003.8086,34.402344 L 1003.8086,37.3125 z"
						      id="path13994"
						      style="fill:#1e1c1c;fill-opacity:1;fill-rule:nonzero;stroke:none"/>
						<path d="M 1010.2812,36.296875 C 1010.2812,36.570312 1010.0273,36.960938 1009.4023,36.960938 C 1009.1094,36.960938 1008.8555,36.84375 1008.8555,36.53125 C 1008.8555,36.179688 1009.1094,36.0625 1009.4219,36.003906 C 1009.7344,35.945312 1010.0859,35.945312 1010.2812,35.808594 L 1010.2812,36.296875 z M 1011.043,36.921875 C 1010.9844,36.960938 1010.9258,36.960938 1010.8867,36.960938 C 1010.75,36.960938 1010.75,36.863281 1010.75,36.628906 L 1010.75,35.125 C 1010.75,34.441406 1010.1836,34.324219 1009.6758,34.324219 C 1009.0312,34.324219 1008.4844,34.578125 1008.4648,35.300781 L 1008.9336,35.300781 C 1008.9531,34.871094 1009.2461,34.753906 1009.6367,34.753906 C 1009.9492,34.753906 1010.2812,34.8125 1010.2812,35.242188 C 1010.2812,35.59375 1009.832,35.554688 1009.3242,35.671875 C 1008.8359,35.769531 1008.3477,35.90625 1008.3477,36.570312 C 1008.3477,37.136719 1008.7773,37.371094 1009.3047,37.371094 C 1009.6953,37.371094 1010.0469,37.234375 1010.3008,36.921875 C 1010.3008,37.253906 1010.457,37.371094 1010.6914,37.371094 C 1010.8477,37.371094 1010.9453,37.351562 1011.043,37.292969 L 1011.043,36.921875 z"
						      id="path13996"
						      style="fill:#1e1c1c;fill-opacity:1;fill-rule:nonzero;stroke:none"/>
						<path d="M 1011.4336,37.3125 L 1011.9023,37.3125 L 1011.9023,36.023438 C 1011.9023,35.28125 1012.1758,34.832031 1012.9375,34.832031 L 1012.9375,34.324219 C 1012.4297,34.304688 1012.1172,34.539062 1011.8828,35.007812 L 1011.8828,35.007812 L 1011.8828,34.402344 L 1011.4336,34.402344 L 1011.4336,37.3125 z"
						      id="path13998"
						      style="fill:#1e1c1c;fill-opacity:1;fill-rule:nonzero;stroke:none"/>
						<path d="M 1013.3125,37.3125 L 1013.7812,37.3125 L 1013.7812,34.402344 L 1013.3125,34.402344 L 1013.3125,37.3125 z M 1013.7812,33.289062 L 1013.3125,33.289062 L 1013.3125,33.875 L 1013.7812,33.875 L 1013.7812,33.289062 z"
						      id="path14000"
						      style="fill:#1e1c1c;fill-opacity:1;fill-rule:nonzero;stroke:none"/>
						<path d="M 1015.1445,33.523438 L 1014.6562,33.523438 L 1014.6562,34.402344 L 1014.1875,34.402344 L 1014.1875,34.8125 L 1014.6562,34.8125 L 1014.6562,36.667969 C 1014.6562,37.214844 1014.8516,37.3125 1015.3398,37.3125 L 1015.7109,37.3125 L 1015.7109,36.882812 L 1015.4961,36.882812 C 1015.2031,36.882812 1015.1445,36.84375 1015.1445,36.628906 L 1015.1445,34.8125 L 1015.7109,34.8125 L 1015.7109,34.402344 L 1015.1445,34.402344 L 1015.1445,33.523438 z"
						      id="path14002"
						      style="fill:#1e1c1c;fill-opacity:1;fill-rule:nonzero;stroke:none"/>
						<path d="M 1018.1758,36.394531 C 1018.0977,36.765625 1017.8242,36.960938 1017.4336,36.960938 C 1016.8086,36.960938 1016.5352,36.511719 1016.5547,36.003906 L 1018.6836,36.003906 C 1018.7227,35.300781 1018.4102,34.324219 1017.3945,34.324219 C 1016.6133,34.324219 1016.0469,34.96875 1016.0469,35.847656 C 1016.0859,36.746094 1016.5156,37.371094 1017.4141,37.371094 C 1018.0586,37.371094 1018.5078,37.039062 1018.6445,36.394531 L 1018.1758,36.394531 z M 1016.5547,35.574219 C 1016.5742,35.125 1016.8672,34.753906 1017.375,34.753906 C 1017.8242,34.753906 1018.1758,35.125 1018.1953,35.574219 L 1016.5547,35.574219 z"
						      id="path14004"
						      style="fill:#1e1c1c;fill-opacity:1;fill-rule:nonzero;stroke:none"/>
						<path d="M 1019.1328,37.3125 L 1019.6016,37.3125 L 1019.6016,36.023438 C 1019.6016,35.28125 1019.875,34.832031 1020.6367,34.832031 L 1020.6367,34.324219 C 1020.1289,34.304688 1019.8164,34.539062 1019.582,35.007812 L 1019.582,35.007812 L 1019.582,34.402344 L 1019.1328,34.402344 L 1019.1328,37.3125 z"
						      id="path14006"
						      style="fill:#1e1c1c;fill-opacity:1;fill-rule:nonzero;stroke:none"/>
						<path d="M 1020.5742,35.964844 L 1022.1758,35.964844 L 1022.1758,35.515625 L 1020.5742,35.515625 L 1020.5742,35.964844 z"
						      id="path14008"
						      style="fill:#1e1c1c;fill-opacity:1;fill-rule:nonzero;stroke:none"/>
						<path d="M 1023.3906,35.457031 L 1024.582,35.457031 C 1025.0312,35.457031 1025.4414,35.613281 1025.4414,36.140625 C 1025.4414,36.570312 1025.168,36.863281 1024.6992,36.863281 L 1023.3906,36.863281 L 1023.3906,35.457031 z M 1022.8633,37.3125 L 1024.7773,37.3125 C 1025.5586,37.3125 1025.9688,36.746094 1025.9688,36.160156 C 1025.9688,35.652344 1025.7148,35.28125 1025.2266,35.183594 L 1025.2266,35.164062 C 1025.5781,35.027344 1025.8125,34.695312 1025.8125,34.265625 C 1025.8125,33.875 1025.5977,33.582031 1025.3438,33.425781 C 1025.1094,33.289062 1024.6406,33.289062 1024.2891,33.289062 L 1022.8633,33.289062 L 1022.8633,37.3125 z M 1023.3906,33.738281 L 1024.4453,33.738281 C 1024.8945,33.738281 1025.2852,33.816406 1025.2852,34.363281 C 1025.2852,34.792969 1025.0312,35.007812 1024.4453,35.007812 L 1023.3906,35.007812 L 1023.3906,33.738281 z"
						      id="path14010"
						      style="fill:#1e1c1c;fill-opacity:1;fill-rule:nonzero;stroke:none"/>
						<path d="M 1028.9141,34.402344 L 1028.4453,34.402344 L 1028.4453,36.042969 C 1028.4453,36.570312 1028.1719,36.960938 1027.6055,36.960938 C 1027.2344,36.960938 1027.0195,36.726562 1027.0195,36.375 L 1027.0195,34.402344 L 1026.5508,34.402344 L 1026.5508,36.316406 C 1026.5508,36.941406 1026.7852,37.371094 1027.5273,37.371094 C 1027.9375,37.371094 1028.2695,37.214844 1028.4648,36.84375 L 1028.4844,36.84375 L 1028.4844,37.3125 L 1028.9141,37.3125 L 1028.9141,34.402344 z"
						      id="path14012"
						      style="fill:#1e1c1c;fill-opacity:1;fill-rule:nonzero;stroke:none"/>
						<path d="M 1029.6016,37.3125 L 1030.0703,37.3125 L 1030.0703,35.671875 C 1030.0703,35.144531 1030.3438,34.753906 1030.9102,34.753906 C 1031.2812,34.753906 1031.4961,34.988281 1031.4961,35.339844 L 1031.4961,37.3125 L 1031.9648,37.3125 L 1031.9648,35.398438 C 1031.9648,34.773438 1031.7305,34.324219 1030.9883,34.324219 C 1030.5781,34.324219 1030.2656,34.5 1030.0508,34.851562 L 1030.0508,34.851562 L 1030.0508,34.402344 L 1029.6016,34.402344 L 1029.6016,37.3125 z"
						      id="path14014"
						      style="fill:#1e1c1c;fill-opacity:1;fill-rule:nonzero;stroke:none"/>
						<path d="M 1035.2148,33.289062 L 1034.7461,33.289062 L 1034.7461,34.792969 L 1034.7266,34.792969 C 1034.5117,34.441406 1034.1016,34.324219 1033.8086,34.324219 C 1032.9297,34.324219 1032.5,35.027344 1032.5,35.847656 C 1032.5,36.667969 1032.9492,37.371094 1033.8281,37.371094 C 1034.2188,37.371094 1034.5703,37.234375 1034.7266,36.921875 L 1034.7461,36.921875 L 1034.7461,37.3125 L 1035.2148,37.3125 L 1035.2148,33.289062 z M 1033.0078,35.886719 C 1033.0078,35.300781 1033.2227,34.753906 1033.8672,34.753906 C 1034.5117,34.753906 1034.7656,35.28125 1034.7656,35.847656 C 1034.7656,36.394531 1034.5117,36.960938 1033.8867,36.960938 C 1033.2812,36.960938 1033.0078,36.433594 1033.0078,35.886719 z"
						      id="path14016"
						      style="fill:#1e1c1c;fill-opacity:1;fill-rule:nonzero;stroke:none"/>
						<path d="M 976.21094,13.613281 L 995.13672,13.613281 L 995.13672,21.265625 L 988.71484,31.914062 L 976.21094,31.914062 L 976.21094,13.613281"
						      id="path14018"
						      style="fill:#eb1721;fill-opacity:1;fill-rule:nonzero;stroke:none"/>
					</g>
				</g>
			</g>
		</g>
		<g clip-path="url(#clip5)"
		   id="g14020">
			<path d="M 976.59766,20.328125 L 994.71875,20.328125 L 994.71875,25.59375 L 976.59766,25.59375 L 976.59766,20.328125 z"
			      id="path14022"
			      style="fill:#fff000;fill-opacity:1;fill-rule:nonzero;stroke:none"/>
			<path d="M 983.02344,13.832031 L 988.36328,13.832031 L 988.36328,31.660156 L 983.02344,31.660156 L 983.02344,13.832031 z"
			      id="path14024"
			      style="fill:#fff000;fill-opacity:1;fill-rule:nonzero;stroke:none"/>
			<path d="M 780.96875,584.10938 L 796.10938,584.10938 L 796.10938,569.46875 L 780.96875,569.46875 L 780.96875,584.10938 z"
			      transform="matrix(1.25,0,0,-1.25,0,743.75)"
			      id="path14026"
			      style="fill:none;stroke:#eb1721;stroke-width:1.30900002;stroke-linecap:butt;stroke-linejoin:miter;stroke-miterlimit:3.86400008;stroke-opacity:1"/>
			<path d="M 987.1875,18.863281 C 986.79688,18.417969 986.32031,18.089844 985.69922,18.089844 C 984.50781,18.089844 983.57812,18.78125 983.57812,20.042969 C 983.57812,22.117188 986.57031,24.390625 986.57031,25.875 C 986.57031,26.554688 986.05078,26.976562 985.41406,26.976562 C 984.88281,26.976562 984.15625,26.726562 984.15625,25.234375 L 983.58594,25.234375 L 983.58594,27.6875 L 984.20312,27.6875 L 984.20312,27.070312 C 984.68359,27.574219 985.11328,27.816406 985.6875,27.816406 C 986.76172,27.816406 987.96484,27.246094 987.96484,25.542969 C 987.96484,23.453125 984.95703,21.125 984.95703,19.8125 C 984.95703,19.242188 985.31641,18.871094 986.03516,18.871094 C 986.67578,18.871094 987.23047,19.5 987.23047,20.601562 L 987.77344,20.601562 L 987.77344,18.160156 L 987.1875,18.160156 L 987.1875,18.863281"
			      id="path14028"
			      style="fill:#eb1721;fill-opacity:1;fill-rule:nonzero;stroke:none"/>
		</g>
		<g clip-path="url(#clip6)"
		   id="g14030">
			<g clip-path="url(#clip7)"
			   id="g14032">
				<g clip-path="url(#clip8)"
				   id="g14034">
					<g clip-path="url(#clip9)"
					   id="g14036">
						<path d="M 798.825,574.57812 L 801.57812,579.1125 L 802.34062,574.57812 L 798.825,574.57812 z M 792.04688,569.79688 L 800.65312,583.78125 L 804.23125,583.78125 L 807.18125,569.79688 L 803.15625,569.79688 L 802.77813,572.03438 L 797.25312,572.03438 L 795.87188,569.79688 L 792.04688,569.79688 z"
						      transform="matrix(1.25,0,0,-1.25,0,743.75)"
						      id="path14038"
						      style="fill:#fff000;fill-opacity:1;fill-rule:evenodd;stroke:#eb1721;stroke-width:0.65399998;stroke-linecap:butt;stroke-linejoin:miter;stroke-miterlimit:3.86400008;stroke-opacity:1"/>
						<path d="M 819.2875,575.9 L 823,575.9 C 824.10625,575.9 824.6625,575.01875 824.55,574.225 C 824.45625,573.5875 823.8625,572.6875 822.55,572.6875 L 818.53125,572.6875 L 819.2875,575.9 z M 814.35938,569.79688 L 822.55938,569.79688 C 825.56562,569.79688 827.85,571.18125 827.85,573.96875 C 827.85,575.01562 827.09062,576.36875 826.075,576.9125 L 826.08125,576.95312 C 827.45312,577.55 828.82812,578.7875 828.82812,580.44062 C 828.82812,582.12188 827.84062,583.71562 824.92188,583.71562 L 817.54688,583.71562 L 814.35938,569.79688 z M 820.48438,581.0625 L 823.83125,581.0625 C 824.5875,581.0625 825.15625,580.25625 825.06875,579.56562 C 824.975,578.81875 824.4875,578.09375 823.28438,578.09375 L 819.78438,578.09375 L 820.48438,581.0625 z"
						      transform="matrix(1.25,0,0,-1.25,0,743.75)"
						      id="path14040"
						      style="fill:#fff000;fill-opacity:1;fill-rule:evenodd;stroke:#eb1721;stroke-width:0.65399998;stroke-linecap:butt;stroke-linejoin:miter;stroke-miterlimit:3.86400008;stroke-opacity:1"/>
						<path d="M 804.29688,574.54688 C 804.00625,571.00312 806.5375,569.42188 810.4875,569.42188 C 813.3125,569.42188 816.76875,570.94062 816.76875,574.61875 C 816.76875,577.14062 814.50625,578.3625 812.68125,578.56875 C 810.8625,578.775 809.475,579.02812 809.475,580.22188 C 809.475,581.19062 810.43438,581.725 811.61875,581.725 C 812.9,581.725 813.8125,581.19062 813.8125,580.26562 L 817.44062,580.26562 C 817.675,582.76562 814.74375,584.49688 811.95312,584.49688 C 808.3875,584.49688 805.69062,582.45 805.69062,579.96875 C 805.69062,577.43438 806.7375,576.4 810.06562,575.59062 C 811.55625,575.23125 812.69062,574.84687 812.69062,573.925 C 812.69062,572.92188 811.85938,572.12188 810.71875,572.12188 C 808.82812,572.12188 808.025,573.08125 808.025,574.54688 L 804.29688,574.54688 z"
						      transform="matrix(1.25,0,0,-1.25,0,743.75)"
						      id="path14042"
						      style="fill:#fff000;fill-opacity:1;fill-rule:nonzero;stroke:#eb1721;stroke-width:0.65399998;stroke-linecap:butt;stroke-linejoin:miter;stroke-miterlimit:3.86400008;stroke-opacity:1"/>
					</g>
				</g>
			</g>
		</g>
	</g>
</svg>