<?xml version="1.0" encoding="UTF-8" standalone="no"?>
<svg xmlns:svg="http://www.w3.org/2000/svg"
     xmlns="http://www.w3.org/2000/svg"
     version="1.0"
     width="768"
     height="768"
     viewBox="-1.24106256 -1.24106256 43.85087712 43.85087712"
     id="svg10429">
	<defs id="defs10431"/>
	<path d="M 41.119375,20.684375 C 41.119375,9.398125 31.969375,0.24937499 20.683075,0.24937499 C 9.398075,0.24937499 0.24937499,9.398125 0.24937499,20.684375 C 0.24937499,31.970625 9.398075,41.119375 20.683075,41.119375 C 31.969375,41.119375 41.119375,31.970625 41.119375,20.684375 z"
	      id="path7436"
	      style="fill:#ffffff;fill-opacity:1;stroke:#231f20;stroke-width:0.49874997;stroke-linecap:butt;stroke-linejoin:miter;stroke-miterlimit:4;stroke-dasharray:none;stroke-opacity:1"/>
	<path d="M 20.826875,1.224375 L 20.358075,1.255625 L 20.483075,3.786875 L 18.295575,1.380625 L 17.764375,1.411875 L 17.920575,4.599375 L 18.389375,4.568125 L 18.264375,2.036875 L 20.451875,4.443125 L 21.014375,4.411875 L 20.826875,1.224375 z M 22.983075,1.318125 L 22.358075,4.443125 L 22.826875,4.536875 L 23.295575,2.036875 L 23.326875,2.036875 L 24.826875,4.943125 L 25.389375,5.036875 L 25.983075,1.911875 L 25.545575,1.818125 L 25.045575,4.318125 L 25.014375,4.286875 L 23.514375,1.411875 L 22.983075,1.318125 z M 14.608075,2.224375 L 14.108075,2.411875 L 13.764375,5.880625 L 14.264375,5.724375 L 14.326875,4.724375 L 15.826875,4.224375 L 16.514375,4.974375 L 17.014375,4.786875 L 14.608075,2.224375 z M 27.983075,2.630625 L 26.795575,5.568125 L 27.233075,5.755625 L 28.420575,2.786875 L 27.983075,2.630625 z M 14.483075,2.755625 L 15.514375,3.880625 L 14.389375,4.286875 L 14.483075,2.755625 z M 29.670575,3.318125 L 29.451875,3.661875 L 30.451875,4.318125 L 28.951875,6.630625 L 29.358075,6.911875 L 30.858075,4.568125 L 31.858075,5.224375 L 32.076875,4.880625 L 29.670575,3.318125 z M 10.920575,3.818125 L 10.545575,4.068125 L 11.264375,5.130625 L 9.451875,6.349375 L 8.733075,5.286875 L 8.326875,5.536875 L 10.108075,8.193125 L 10.514375,7.943125 L 9.670575,6.693125 L 11.483075,5.474375 L 12.326875,6.724375 L 12.701875,6.443125 L 10.920575,3.818125 z M 33.233075,5.755625 L 31.045575,8.099375 L 32.951875,9.880625 L 33.233075,9.568125 L 31.670575,8.099375 L 32.389375,7.349375 L 33.858075,8.724375 L 34.139375,8.443125 L 32.670575,7.068125 L 33.295575,6.380625 L 34.826875,7.786875 L 35.108075,7.505625 L 33.233075,5.755625 z M 7.045575,7.193125 C 6.621575,7.221105 6.159375,7.438125 5.764375,7.943125 C 4.974375,8.954375 5.370575,9.876875 6.014375,10.380625 C 6.659375,10.884375 7.630575,11.016875 8.420575,10.005625 C 9.210575,8.994375 8.845575,8.071875 8.201875,7.568125 C 7.879375,7.316255 7.469675,7.165155 7.045575,7.193125 z M 7.170575,7.630625 C 7.411875,7.642705 7.639975,7.748125 7.889375,7.943125 C 8.555575,8.464375 8.556875,9.180625 8.108075,9.755625 C 7.659375,10.329375 6.961875,10.525625 6.295575,10.005625 C 5.630575,9.484375 5.659375,8.768125 6.108075,8.193125 C 6.388575,7.834525 6.768475,7.610505 7.170575,7.630625 z M 36.358075,9.068125 L 33.670575,10.818125 L 33.920575,11.193125 L 35.076875,10.474375 L 35.733075,11.505625 C 35.945575,11.836875 35.916875,12.108125 35.451875,12.443125 C 35.140575,12.669375 35.016875,12.736875 34.983075,12.849375 L 35.264375,13.255625 C 35.310575,13.098125 35.403075,13.005625 35.889375,12.661875 C 36.195575,12.443125 36.320575,12.170625 36.201875,11.911875 L 36.233075,11.911875 C 36.515575,12.145625 36.843075,12.153125 37.170575,11.943125 C 37.511875,11.721875 37.765575,11.294375 37.420575,10.755625 L 36.358075,9.068125 z M 36.264375,9.693125 L 36.983075,10.818125 C 37.189375,11.139375 37.113075,11.404375 36.858075,11.568125 C 36.669375,11.689375 36.359375,11.741875 36.108075,11.349375 L 35.420575,10.255625 L 36.264375,9.693125 z M 4.014375,10.599375 L 3.764375,11.005625 L 5.670575,12.193125 C 6.014375,12.410625 6.095575,12.711875 5.889375,13.036875 C 5.675575,13.373125 5.376875,13.454375 5.014375,13.224375 L 4.889375,13.161875 L 4.670575,13.536875 C 5.021875,13.759375 5.663075,14.121875 6.233075,13.224375 C 6.555575,12.714375 6.559375,12.200625 5.858075,11.755625 L 4.014375,10.599375 z M 37.295575,13.286875 L 36.826875,13.443125 L 37.358075,14.943125 L 37.795575,14.786875 L 37.295575,13.286875 z M 2.358075,20.224375 L 2.358075,21.005625 L 3.358075,21.005625 L 3.358075,20.224375 L 2.358075,20.224375 z M 38.233075,20.224375 L 38.233075,21.005625 L 39.233075,21.005625 L 39.233075,20.224375 L 38.233075,20.224375 z M 36.014375,26.286875 L 34.951875,28.630625 L 37.826875,29.943125 L 38.920575,27.568125 L 38.545575,27.411875 L 37.670575,29.349375 L 36.733075,28.911875 L 37.576875,27.068125 L 37.201875,26.911875 L 36.358075,28.755625 L 35.514375,28.349375 L 36.389375,26.443125 L 36.014375,26.286875 z M 5.389375,26.349375 L 3.576875,27.161875 C 2.799375,27.513125 2.615575,28.153125 3.014375,29.036875 C 3.413075,29.921875 3.985575,30.169375 4.764375,29.818125 L 6.576875,29.005625 L 6.389375,28.568125 L 4.514375,29.411875 C 3.989375,29.649375 3.631875,29.383125 3.389375,28.849375 C 3.149375,28.315625 3.208075,27.866875 3.733075,27.630625 L 5.608075,26.786875 L 5.389375,26.349375 z M 34.514375,29.286875 L 33.076875,31.286875 L 35.670575,33.161875 L 35.951875,32.786875 L 34.795575,31.943125 L 35.889375,30.411875 L 35.576875,30.161875 L 34.451875,31.693125 L 33.670575,31.161875 L 34.858075,29.536875 L 34.514375,29.286875 z M 7.201875,29.880625 L 4.733075,31.880625 L 5.045575,32.255625 L 7.014375,30.661875 L 6.358075,33.849375 L 6.701875,34.286875 L 9.170575,32.255625 L 8.858075,31.880625 L 6.889375,33.505625 L 6.889375,33.474375 L 7.545575,30.286875 L 7.201875,29.880625 z M 9.826875,32.755625 L 7.858075,35.286875 L 8.233075,35.568125 L 9.108075,34.443125 L 10.608075,35.630625 L 10.858075,35.286875 L 9.358075,34.130625 L 9.951875,33.380625 L 11.514375,34.599375 L 11.764375,34.286875 L 9.826875,32.755625 z M 31.295575,32.911875 L 30.951875,33.224375 L 33.045575,35.630625 L 34.858075,34.036875 L 34.576875,33.724375 L 33.139375,35.005625 L 31.295575,32.911875 z M 29.951875,34.005625 L 29.576875,34.286875 L 31.358075,36.911875 L 31.733075,36.661875 L 29.951875,34.005625 z M 12.795575,34.818125 L 10.139375,37.130625 L 10.608075,37.349375 L 11.358075,36.661875 L 12.795575,37.318125 L 12.764375,38.318125 L 13.264375,38.568125 L 13.264375,35.036875 L 12.795575,34.818125 z M 28.483075,34.880625 L 28.045575,35.068125 L 28.576875,36.255625 L 26.576875,37.130625 L 26.076875,35.974375 L 25.639375,36.161875 L 26.920575,39.068125 L 27.358075,38.880625 L 26.764375,37.505625 L 28.733075,36.630625 L 29.358075,38.005625 L 29.795575,37.818125 L 28.483075,34.880625 z M 12.826875,35.318125 L 12.795575,36.880625 L 11.701875,36.349375 L 12.826875,35.318125 z M 15.108075,35.880625 L 14.108075,38.911875 L 16.420575,39.661875 L 16.545575,39.255625 L 14.701875,38.661875 L 15.545575,36.036875 L 15.108075,35.880625 z M 17.983075,36.693125 L 17.733075,39.880625 L 20.139375,40.068125 L 20.170575,39.661875 L 18.264375,39.505625 L 18.451875,36.724375 L 17.983075,36.693125 z M 23.701875,37.786875 L 22.139375,37.974375 L 22.201875,38.443125 L 23.764375,38.255625 L 23.701875,37.786875 z"
	      id="path7438"
	      style="fill:#231f20;fill-opacity:1;fill-rule:nonzero;stroke:none"/>
	<path d="M 20.701875,5.630625 C 12.366875,5.630625 5.608075,12.358125 5.608075,20.693125 C 5.608075,29.029375 12.366875,35.786875 20.701875,35.786875 C 29.038075,35.786875 35.795575,29.029375 35.795575,20.693125 C 35.795575,12.358125 29.038075,5.630625 20.701875,5.630625 z M 25.483075,8.411875 L 20.701875,20.693125 L 32.983075,15.880625 L 28.326875,20.724375 L 33.014375,25.568125 L 20.701875,20.693125 L 25.483075,33.005625 L 20.670575,28.286875 L 15.795575,33.005625 L 20.701875,20.693125 L 8.451875,25.536875 L 13.108075,20.693125 L 8.420575,15.880625 L 20.701875,20.693125 L 15.826875,8.505625 L 20.701875,13.161875 L 25.483075,8.411875 z"
	      id="path7488"
	      style="fill:#cc3300;fill-opacity:1;fill-rule:nonzero;stroke:none"/>
	<path d="M 35.793075,20.708125 C 35.793075,12.373125 29.035575,5.615625 20.699375,5.615625 C 12.364375,5.615625 5.606875,12.373125 5.606875,20.708125 C 5.606875,29.044375 12.364375,35.800625 20.699375,35.800625 C 29.035575,35.800625 35.793075,29.044375 35.793075,20.708125 z"
	      id="path7490"
	      style="fill:none;stroke:#231f20;stroke-width:0.49625003;stroke-linecap:butt;stroke-linejoin:miter;stroke-miterlimit:4;stroke-dasharray:none;stroke-opacity:1"/>
</svg>