<?xml version="1.0" encoding="UTF-8" standalone="no"?>
<svg xmlns:xapMM="http://ns.adobe.com/xap/1.0/mm/"
     xmlns:xapGImg="http://ns.adobe.com/xap/1.0/g/img/"
     xmlns:xap="http://ns.adobe.com/xap/1.0/"
     xmlns:pdf="http://ns.adobe.com/pdf/1.3/"
     xmlns:ns0="http://ns.adobe.com/SaveForWeb/1.0/"
     xmlns:ns="http://ns.adobe.com/Variables/1.0/"
     xmlns:i="http://ns.adobe.com/AdobeIllustrator/10.0/"
     xmlns:x="adobe:ns:meta/"
     xmlns:dc="http://purl.org/dc/elements/1.1/"
     xmlns:cc="http://creativecommons.org/ns#"
     xmlns:rdf="http://www.w3.org/1999/02/22-rdf-syntax-ns#"
     xmlns:svg="http://www.w3.org/2000/svg"
     xmlns="http://www.w3.org/2000/svg"
     xmlns:sodipodi="http://sodipodi.sourceforge.net/DTD/sodipodi-0.dtd"
     xmlns:inkscape="http://www.inkscape.org/namespaces/inkscape"
     i:viewOrigin="0 841.8896"
     i:rulerOrigin="0 0"
     i:pageBounds="0 841.8896 595.2764 0"
     width="455"
     height="500"
     viewBox="0 0 455 500"
     overflow="visible"
     xml:space="preserve"
     version="1.1">
	<g id="Layer_1"
	   i:layer="yes"
	   i:dimmedPercent="50"
	   i:rgbTrio="#4F008000FFFF">
		<path i:knockout="Off"
		      fill="#FFFFFF"
		      d="M455.211,0v232.723c-3.121,100.155-61.613,197.582-155.125,242.09       c-23.816,10.936-48.814,19.525-74.975,25.188c-62.275-16.01-121.039-46.855-163.994-101.136       C15.432,342.441-2.139,271.765,0.206,196.014V0H455.211"
		      id="path4"/>
		<path i:knockout="Off"
		      fill="#ED1C29"
		      d="M3.817,3.615c0,26.328,0,192.417,0,192.514       c-2.493,80.674,17.73,148.125,60.131,200.499c38.221,48.298,92.482,81.792,161.248,99.634       c24.701-5.416,49.383-13.717,73.337-24.711c89.784-42.736,149.867-136.53,153.062-238.828V3.615H3.817"
		      id="path6"/>
		<path i:knockout="Off"
		      fill="#FFFFFF"
		      d="M438.346,16.649l-2.207,218.47c-4.647,83.361-45.184,161.416-118.118,207.834       c-27.848,18.369-59.106,28.42-90.747,37.697c-57.787-15.531-113.486-43.193-152.695-95.103       c-39.031-48.691-53.938-107.039-55.639-171.072L16.847,16.649H438.346"
		      id="path8"/>
		<path i:knockout="Off"
		      fill="#ED1C29"
		      d="M407.348,30.537l17.203,0.038l-0.111,179.699       c2.137,95.384-43.315,185.715-129.374,231.173c-21.375,11.854-44.682,20.094-68.387,26.504       c-57.304-14.377-110.146-46.122-147.643-97.41c-30.5-41.766-44.675-90.137-47.201-143.365V30.968l0.007-0.386l246.901,0.007       L407.348,30.537"
		      id="path10"/>
		<path i:knockout="Off"
		      fill="#FFFFFF"
		      d="M228.042,133.345l2.137-0.974l59.058-57.694       c-8.167,21.178-16.712,42.353-25.645,63.334l-33.224,80.808l-1.939,3.5l-2.129-2.136l-32.644-81.785l-26.224-64.694h1.167       L228.042,133.345"
		      id="path12"/>
		<path i:knockout="Off"
		      fill="#FFFFFF"
		      d="M226.3,224.069l-0.397,0.966c-48.758,19.818-97.13,40.406-146.472,58.478       c18.455-19.432,38.853-38.66,57.694-58.865l-0.386-1.75c-19.428-20.004-36.716-37.3-55.558-57.694l0.39-0.386       C130.125,184.823,177.92,203.671,226.3,224.069"
		      id="path14"/>
		<path i:knockout="Off"
		      fill="#FFFFFF"
		      d="M375.874,165.981c-17.485,19.038-37.103,38.664-55.944,57.304v1.363l56.721,57.308       c-6.992-1.167-14.572-5.632-21.754-7.186l-124.528-50.122l1.553-1.363l24.481-9.122l101.021-40.804       C363.252,170.258,369.461,167.921,375.874,165.981"
		      id="path16"/>
		<path i:knockout="Off"
		      fill="#FFFFFF"
		      d="M247.857,274.771l32.247,80.425c2.716,6.026,5.053,12.045,6.992,18.451       c-19.814-17.099-39.629-39.433-59.444-58.081c-20.788,19.038-39.436,41.375-60.417,58.857       c1.75-6.208,4.466-12.814,7.193-19.031l10.485-26.231l42.739-101.986l0.777-0.387       C235.421,242.524,240.865,259.036,247.857,274.771"
		      id="path18"/>
	</g>
</svg>