<?xml version="1.0" encoding="UTF-8" standalone="no"?>
<svg xmlns:dc="http://purl.org/dc/elements/1.1/"
     xmlns:cc="http://creativecommons.org/ns#"
     xmlns:rdf="http://www.w3.org/1999/02/22-rdf-syntax-ns#"
     xmlns:svg="http://www.w3.org/2000/svg"
     xmlns="http://www.w3.org/2000/svg"
     xmlns:sodipodi="http://sodipodi.sourceforge.net/DTD/sodipodi-0.dtd"
     xmlns:inkscape="http://www.inkscape.org/namespaces/inkscape"
     version="1.1"
     id="svg2"
     xml:space="preserve"
     width="380"
     height="380"
     viewBox="0 0 380 380"
     sodipodi:docname="FW.svg"
     inkscape:version="0.92.4 (5da689c313, 2019-01-14)">
	<metadata id="metadata8">
		<rdf:RDF>
			<cc:Work rdf:about="">
				<dc:format>image/svg+xml</dc:format>
				<dc:type rdf:resource="http://purl.org/dc/dcmitype/StillImage"/>
				<dc:title/>
			</cc:Work>
		</rdf:RDF>
	</metadata>
	<defs id="defs6"/>
	<sodipodi:namedview pagecolor="#ffffff"
	                    bordercolor="#666666"
	                    borderopacity="1"
	                    objecttolerance="10"
	                    gridtolerance="10"
	                    guidetolerance="10"
	                    inkscape:pageopacity="0"
	                    inkscape:pageshadow="2"
	                    inkscape:window-width="640"
	                    inkscape:window-height="480"
	                    id="namedview4"
	                    showgrid="false"
	                    inkscape:zoom="2.8284271"
	                    inkscape:cx="87.87842"
	                    inkscape:cy="216.93408"
	                    inkscape:current-layer="g12"/>
	<g id="g10"
	   inkscape:groupmode="layer"
	   inkscape:label="ink_ext_XXXXXX"
	   transform="matrix(1.3333333,0,0,-1.3333333,0,380)">
		<g id="g12"
		   transform="scale(0.1)">
			<path d="m 811.539,2441.27 c 61.188,0 123.063,-0.01 184.246,-0.01 -4.98,32.73 0.711,67.59 -87.496,67.59 -112.394,0.01 -93.18,-34.86 -96.75,-67.58 z m 719.181,-977.38 v 909.08 l 84.64,146.54 h 187.81 l 17.77,-19.19 h -31.31 v -86.78 h 226.25 v 215.53 l 22.06,-14.23 v -201.3 h 179.94 l 64.01,-104.57 h -124.45 l -54.1,-29.88 v 31.29 h -63.29 v -120.92 h 43.4 v -101.73 h -31.31 c -0.73,-19.2 -1.45,-39.11 -2.15,-59.04 -10.67,-12.08 -22.03,-24.9 -32.73,-37.69 -11.36,-28.46 -7.8,-54.06 1.46,-78.27 17.76,-16.35 33.42,-16.35 46.93,0 6.4,69.01 19.23,114.54 54.07,107.43 1.42,-56.91 9.97,-113.82 -29.86,-162.19 -17.11,-9.25 -36.29,-14.24 -57.64,-14.93 -27.04,3.55 -48.38,12.78 -59.05,32.71 -12.09,19.93 -14.93,47.66 -14.93,78.96 -3.56,36.29 12.78,66.87 49.78,91.06 v 34.85 l -115.22,-61.89 v 34.85 h -71.86 v -179.25 l 250.39,-410.44 h -195.6 l -189.22,313.69 v -313.69 z m 86.07,1089.08 c 61.2,0 123.09,-0.01 184.26,-0.01 -5.01,33.43 0.69,68.29 -87.52,68.29 -112.4,0 -93.18,-34.86 -96.74,-68.28 z M 781.664,1261.86 c 61.172,0 123.066,0 184.238,0 -4.976,33.43 0.727,68.3 -87.5,68.3 -112.379,0 -93.191,-34.87 -96.738,-68.3 z m 1149.536,4.98 c 61.89,0 123.06,0 184.94,0 -4.94,33.44 0,68.28 -88.18,68.28 -111.7,0 -93.21,-34.84 -96.76,-68.28 z M 298.688,1657.13 c -90.926,101.34 -93.758,236.12 -66.383,365.03 l 7.847,36.97 10.86,-36.2 c 27.258,-90.86 80.511,-160.7 157.859,-211.85 -20.808,65.15 -23.226,134.46 -15.234,202.38 l 6.879,58.5 12.172,-57.63 c 18.433,-87.25 61.203,-155.75 132.406,-206.81 11.789,31.36 23.172,62.87 34.722,94.33 l 3.332,9.07 18.145,-6.67 -3.336,-9.07 c -12.992,-35.38 -25.777,-70.84 -39.16,-106.09 l -4.313,-11.36 -10.101,6.76 c -65.606,43.95 -110.063,101.22 -135.488,172.14 -1.356,-56.14 6.125,-112.25 27.468,-164.75 l 10.637,-26.15 -24.434,14.15 c -83.562,48.41 -143.644,115.45 -178.054,202.76 -18.973,-115.87 -8.934,-234.34 78.113,-322.76 l 10.191,-10.35 -13.492,-5.4 c -56.789,-22.71 -114.847,-23.9 -172.383,-8.76 34.34,-45.25 75.668,-84.96 128.141,-108.71 46.137,-20.89 92.754,-25.99 142.512,-30.37 l 9.625,-0.85 -1.699,-19.25 -9.625,0.85 c -52.157,4.59 -100.403,10.11 -148.786,32.01 -64.648,29.27 -113.23,80.86 -152.824,138.59 l -16.7967,24.49 27.9917,-9.92 c 57.629,-20.41 115.918,-24.27 173.208,-5.08 z m 153.117,600.76 c 47.125,-26.15 97.898,-23.23 147.172,-7.04 -39.813,26.95 -71.129,63.47 -80.075,112.58 l -3.199,17.58 16.461,-6.94 c 49.125,-20.7 101.234,-34 154.664,-33.07 -18.367,174.47 156.246,243.91 297.207,281.76 l 24.225,6.5 -13.6,-21.08 c -7.898,-12.23 -15.406,-28.4 -10.242,-43.13 11.105,-31.68 77.782,-47.12 111.742,-53.81 33.44,71.22 82.4,125.61 156.09,157.98 l 18.24,8.01 -4.99,-19.28 c -23.55,-90.93 -23.9,-187.9 52.41,-253.45 l 7.33,-6.3 -12.6,-14.66 -7.33,6.3 c -76.77,65.95 -83.44,160.63 -63.28,253.04 -61.52,-32.18 -102.63,-82.34 -131.44,-146.52 l -3.12,-6.96 -7.49,1.42 c -39.91,7.56 -118.32,23.66 -133.804,67.84 -4.696,13.39 -3.063,26.92 1.707,39.56 -88.797,-25.45 -201.762,-69.17 -244.528,-152.43 -18.132,-35.3 -21.769,-73.77 -16.058,-112.67 l 1.543,-10.5 -10.594,-0.56 c -53.617,-2.81 -105.996,8.17 -155.797,27.07 13.539,-40.83 45.879,-70.52 83.301,-92.27 l 17.25,-10.02 -18.562,-7.32 c -39.028,-15.39 -79.219,-23.77 -118.461,-19.09 22.261,-19.14 41.003,-41.94 51.418,-69.54 l 3.41,-9.03 -18.082,-6.83 -3.414,9.04 c -16.45,43.59 -57.75,74.42 -96.981,96.98 -1.144,0.63 -2.285,1.28 -3.426,1.95 l -8.281,4.84 9.559,16.64 8.355,-4.73 c 1.09,-0.61 2.18,-1.23 3.27,-1.86 z m -109.032,-77.69 12.09,14.23 119.5,-78.95 h 69.707 l 321.532,179.96 H 835.73 v 83.23 h -51.921 l 26.304,29.19 h 200.607 l 113.82,-110.99 -39.83,-21.35 233.31,-385.53 -128.74,-71.15 v -177.83 l 54.77,-86.06 141.55,13.49 v -51.22 l -114.53,-9.23 24.2,-42.68 h -172.16 l -33.44,56.19 -92.459,41.25 -103.859,127.34 -33.426,-19.91 2.824,-206.29 H 719.074 v 300.18 l 66.864,37.7 -124.481,116.66 -66.164,1.42 -34.855,57.62 -57.618,-1.42 -46.953,75.41 9.246,17.07 z m 600.372,-463.07 88.905,51.22 6.42,-165.05 z m -216.266,214.82 108.851,-99.58 190.64,110.26 -68.296,95.31 -54.769,-108.84 z m -135.859,93.9 278.132,155.79 36.286,-40.55 -66.864,-120.93 z m 1229.92,119.51 v 170.02 h 196.32 v -127.34 h -25.6 l -21.33,-42.68 z m -398.35,703.09 c 782.79,0 1420.86,-638.91 1420.86,-1421.56 C 2843.45,644.242 2205.37,5.33203 1422.59,5.33203 639.883,5.33203 1.03125,644.141 1.03125,1426.89 1.03125,2209.64 639.883,2848.45 1422.59,2848.45 Z M 993.809,438.938 c 62.321,43.542 151.071,-3.071 209.641,-31.95 69.88,-33.613 114.91,-0.758 179.25,25.164 l 8.38,3.375 V 1404.63 H 51.3945 C 63.207,669.895 658.152,72.5078 1391.08,55.8086 V 166.617 c -8.61,-9.512 -26.26,-17.383 -34.14,-21.14 -11.22,-5.352 -24.92,-11.664 -36.85,-15.399 -34.87,-10.297 -97.34,-13.101 -129.36,5.942 -34.54,20.648 -80.35,49.121 -121.57,50.585 -14.63,0.516 -28.54,-2.097 -42.2,-7.214 -7.12,-2.735 -14.17,-5.813 -21.12,-8.977 -6.719,-3.062 -24.254,-10.781 -29.668,-15.254 l -6.738,-6.703 -13.629,13.711 6.851,6.809 c 7.797,7.753 45.584,23.929 57.454,28.484 16.08,6.027 32.55,9.066 49.74,8.457 45.63,-1.617 92.56,-30.453 130.78,-53.297 26.95,-16.031 84.67,-12.664 113.83,-4.051 10.24,3.203 54.09,22.145 62.19,30.567 v 7.582 h 14.43 v 45.109 c -7.36,-10.629 -27.32,-19.613 -35.87,-23.73 -11.08,-5.332 -24.69,-11.68 -36.4,-15.344 -34.75,-11.074 -97.43,-13.219 -129.48,5.836 -34.69,20.394 -79.24,47.316 -120.3,49.527 -15.07,0.817 -29.56,-1.48 -43.8,-6.219 -32.722,-11.339 -79.816,-34.968 -102.527,-61.226 l -6.32,-7.305 -14.617,12.645 6.32,7.308 c 25.133,29.047 74.656,54.313 110.934,66.875 16.58,5.528 33.57,8.164 51.05,7.223 45.16,-2.434 90.94,-29.758 129.1,-52.191 26.98,-16.047 84.68,-13.332 113.82,-4.047 10.14,3.179 53.55,22.125 61.54,30.519 v 7.606 h 16.55 v 47.398 c -62.35,-28.84 -152.62,-70.094 -217.65,-28.234 -41.18,25.91 -59.04,36.371 -108.18,41.226 l -9.61,0.953 1.9,19.231 9.62,-0.949 c 52.33,-5.172 72.84,-16.598 116.65,-44.157 57.53,-37.035 145.2,4.508 199.86,29.801 l 7.41,3.426 v 39.281 l -3.1,-1.32 c -66.16,-28.168 -133.62,-70.727 -204.98,-28.66 -49.05,28.14 -95.59,50.633 -153.88,38.054 l -9.45,-2.039 -4.08,18.891 9.45,2.039 c 63.65,13.738 114.01,-9.449 167.68,-40.238 63.35,-37.344 128.83,4.68 187.69,29.738 l 8.89,3.785 1.78,-4.168 v 41.328 l -1.16,-0.464 c -70.47,-28.391 -117.87,-61.676 -194.94,-24.622 -50.31,24.813 -136.26,71.106 -190.1,33.489 l -7.927,-5.535 -11.066,15.843 z M 556.32,408.773 c 50.485,29.036 114.586,48.637 172.067,30.032 15.636,-4.942 30.547,-12.211 45.25,-19.407 21.75,-10.64 48.074,-24.265 72.761,-24.265 h 9.665 v -19.328 h -9.665 c -43.871,0 -83.125,31.707 -123.898,44.59 -51.965,16.82 -111.09,-2.231 -156.543,-28.372 l -8.379,-4.82 -9.637,16.754 z m 236.149,-62.46 c 16.613,-5.129 33.066,-13.696 50.765,-13.797 l 50.551,3.515 1.344,-19.285 -51.238,-3.562 h -0.332 c -21.563,0 -37.086,8.601 -56.907,14.691 l -0.265,0.086 c -38.129,12.934 -77.559,38.598 -118.547,38.598 -17.18,0 -30.02,-4.149 -42.254,-16.368 l -6.836,-6.832 -13.66,13.676 6.84,6.832 c 15.886,15.871 33.586,22.016 55.91,22.016 45.836,0 82.941,-25.41 124.629,-39.57 z m 122.449,-84.758 c -68.195,-17.2 -151.074,-8.184 -213.738,23.539 l -8.621,4.363 8.73,17.246 8.621,-4.363 c 58.504,-29.617 136.602,-38.106 200.278,-22.047 l 9.371,2.363 4.726,-18.738 z M 1445.55,2798.09 V 1459.1 h 1347.41 c -17.03,733.03 -613.92,1326.81 -1347.41,1338.99 z m 0,-1393.46 V 55.6992 C 2182.35,67.9297 2781.24,667.039 2793.09,1404.63 Z m -54.47,54.47 V 2797.98 C 661.457,2781.36 68.5078,2189.28 51.5156,1459.1 Z M 935.316,688.512 h 450.994 z m 726.284,-547.723 78.95,136.539 -2.12,120.227 130.2,-204.153 z m -207,-52.6523 125.89,217.6683 v 251.808 l -90.32,47.664 315.84,534.933 83.23,42.71 22.76,49.74 h 206.99 l 23.52,-21.3 h -42.71 v -78.97 h -59.75 V 526.785 l 4.8,0.383 0.16,-28.785 15.95,-0.93 c 108.96,-0.676 229.4,0.164 338.36,-0.492 -11.4,-8.652 -24.45,-17.711 -37.48,-25.414 H 2154.85 V 368.398 h -55.31 l -1.43,101.727 -58.06,1.316 v -21.242 h -116.66 v 27.024 h -31.3 c 49.07,-81.086 97.43,-161.446 146.51,-242.567 -176.38,-94.593 -372.01,-143.6755 -584,-146.5193 z m 785.76,512.9413 h 51.68 l 20.6,45.488 201.6,0.817 -7.53,-14.242 c -25.84,-48.895 -57.32,-96.075 -102.45,-129.18 l -2.58,-1.891 -3.2,0.016 c -110,0.723 -220.02,0.723 -330.02,1.422 l -9.55,0.062 -0.84,144.524 182.29,-0.821 z m -169.96,-87.918 39.15,49.574 -41.69,64.102 0.66,-113.664 z m 45.12,40.399 -32.18,-40.473 c 19.57,-0.113 39.13,-0.207 58.7,-0.281 z m -43.27,84.804 83.75,-125.617 46.71,-0.168 -77,125.543 z m -4.45,-1.547 0.72,1.567 h -0.73 z m 71.11,1.247 77.94,-125.532 17.96,-0.066 42.57,78.949 h -46.69 v 46.242 z m 151.2,-46.649 -42.17,-78.988 c 50.31,-0.16 100.54,-0.344 150.61,-0.672 42.68,31.309 73.29,76.09 99.62,125.902 l -179.29,-0.73 -20.61,-45.512 z M 497.828,456.617 c -24.887,61.887 1.438,135.875 46.953,187.793 31.309,36.992 88.199,51.195 162.914,49.09 L 527.008,998.648 h -80.395 v 129.442 h 342.879 v 66.92 h -52.637 l 39.125,28.44 h 198.458 l 167.172,-90.34 249.68,-419.696 c 0,-77.551 0,-154.379 0,-231.176 -39.83,-25.621 -103.15,-40.554 -150.81,-44.129 -96.74,35.579 -119.5,73.262 -169.3,65.465 -33.64,0.594 -67.28,-9.472 -100.918,-25.465 l -60.754,101.985 h -62.074 l -30.766,48.469 -16.32,-10.36 36.457,-57.437 h 61.722 l 54.438,-91.379 -1.285,-0.684 c 34.152,-56.906 69,-114.543 103.15,-172.144 -37.71,-19.231 -75.404,-39.11 -113.107,-59.059 -44.821,72.594 -89.629,144.398 -134.45,216.965 -49.785,29.168 -99.578,54.066 -149.386,44.125 C 578.93,463.746 507.785,433.129 497.828,456.617 Z m 65.445,568.363 H 894.047 L 995.785,857.813 800.867,749.707 H 723.336 L 563.273,1024.98"
			      style="fill:#231f20;fill-opacity:1;fill-rule:evenodd;stroke:none"
			      id="path14"
			      inkscape:connector-curvature="0"/>
		</g>
	</g>
</svg>