<svg version="1.1" xmlns="http://www.w3.org/2000/svg" width="98" height="58" viewbox="78 130 98 58">
	<path d="M80,160 a5,5 180 0 0 5,-5 a5,5 180 1 1 10,0 a5,5 180 1 0 10,0 a5,5 180 1 1 10,0 a5,5 180 0 0 5,5" stroke="{{colorAccent}}" stroke-width="4" fill="none" />
	<path d="M80,174 a5,5 180 0 0 5,-5 a5,5 180 1 1 10,0 a5,5 180 1 0 10,0 a5,5 180 1 1 10,0 a5,5 180 0 0 5,5" stroke="{{colorAccent}}" stroke-width="4" fill="none" />
	<path d="M106,183 l16,0 l12,-48 l24,0 l8,24 l8,0" stroke="{{colorAccent}}" stroke-width="5" fill="none" />
</svg>