<svg version="1.1" xmlns="http://www.w3.org/2000/svg" width="56" height="80" viewbox="100 106 56 80">
	<path d="M104,122 a6,6 180 0 0 6,-6 a6,6 180 1 1 12,0 a6,6 180 1 0 12,0 a6,6 180 1 1 12,0 a6,6 180 0 0 6,6" stroke="{{colorAccent}}" stroke-width="5" fill="none" />
	<path d="M104,138 a6,6 180 0 0 6,-6 a6,6 180 1 1 12,0 a6,6 180 1 0 12,0 a6,6 180 1 1 12,0 a6,6 180 0 0 6,6" stroke="{{colorAccent}}" stroke-width="5" fill="none" />
	<path d="M128,148 l16,16 l-16,16 l-16,-16 Z" stroke="{{colorAccent}}" stroke-width="5" fill="none" />
</svg>