<svg version="1.1"
	xmlns="http://www.w3.org/2000/svg" width="256" height="256" viewbox="0 0 256 256">
	<defs>
		<clipPath id="Measure">
			<path d="M50,192 L128,64 L206,192 Z" />
		</clipPath>
	</defs>
	<path d="M50,192 L128,64 L206,192 Z" stroke-width="5" stroke="#000000" fill="#FFFFFF" />

	{{extinguish
	<g transform="translate(89, 115) scale(0.3 0.3)">
		<path d="M11 128 L245 128 M156 128 L241 69 M156 128 L241 187" stroke="{{colorAccent}}" stroke-width="15" fill="none" />
	</g>
	extinguish}}

	{{medical
	<path d="M64,140 l128,0 M128,64 l0,128" stroke="{{colorAccent}}" stroke-width="5" fill="none" clip-path="url(#Measure)" />
	medical}}

	{{transport
	<ellipse cx="128" cy="150" rx="30" ry="30" stroke-width="5" stroke="{{colorAccent}}" fill="none" />
	<path d="M128,150 l-30,0 l60,0 m-30,0 l0,-30 l0,60 m0,-30 l21,21 M128,150 l-21,-21 M128,150 l21,-21 M128,150 l-21,21" stroke-width="5" stroke="{{colorAccent}}" />
	transport}}

	<text x="128" y="144" style="font-family: 'Lubalin Graph', 'Roboto Slab'; font-weight: bold; dominant-baseline: central; text-anchor: middle; font-size: 32px;" fill="#000000">{{txt}}</text>
</svg>