<svg version="1.1"
	xmlns="http://www.w3.org/2000/svg" width="256" height="256">
	<defs>
		<clipPath id="Person">
			<path d="M64,128 L128,64 L192,128 L128,192 Z" />
		</clipPath>
		<clipPath id="PersonClipTxt">
			<rect x="96" y="{{platoontroop?107:100}}" width="64" height="{{platoontroop?48:56}}" />
		</clipPath>
	</defs>
	<path d="M64,128 L128,64 L192,128 L128,192 Z" stroke-width="10" stroke="{{colorAccent}}" fill="{{colorPrimary}}" clip-path="url(#Person)" />
	
	{{association
	<line x1="128" y1="54" x2="128" y2="18" stroke="#000000" stroke-width="10" />
	association}}

	{{brigade
	<line x1="120" y1="54" x2="120" y2="18" stroke="#000000" stroke-width="10" />
	<line x1="136" y1="54" x2="136" y2="18" stroke="#000000" stroke-width="10" />
	brigade}}

	{{formation
	<line x1="113" y1="54" x2="113" y2="18" stroke="#000000" stroke-width="10" />
	<line x1="128" y1="54" x2="128" y2="18" stroke="#000000" stroke-width="10" />
	<line x1="143" y1="54" x2="143" y2="18" stroke="#000000" stroke-width="10" />
	formation}}

	{{platoon
	<ellipse cx="100" cy="44" rx="10" ry="10" fill="#000000" />
	<ellipse cx="128" cy="44" rx="10" ry="10" fill="#000000" />
	<ellipse cx="156" cy="44" rx="10" ry="10" fill="#000000" />
	platoon}}

	{{platoontroop
	<ellipse cx="128" cy="44" rx="10" ry="10" fill="#000000" />

	<ellipse cx="114" cy="100" rx="5" ry="5" fill="{{colorAccent}}" />
	<ellipse cx="128" cy="100" rx="5" ry="5" fill="{{colorAccent}}" />
	<ellipse cx="142" cy="100" rx="5" ry="5" fill="{{colorAccent}}" />
	platoontroop}}

	{{group
	<ellipse cx="100" cy="44" rx="10" ry="10" fill="#000000" />
	<ellipse cx="156" cy="44" rx="10" ry="10" fill="#000000" />
	group}}

	{{echelon
	<ellipse cx="128" cy="44" rx="10" ry="10" fill="#000000" />
	<ellipse cx="128" cy="20" rx="10" ry="10" fill="#000000" />
	echelon}}

	{{troop
	<ellipse cx="128" cy="44" rx="10" ry="10" fill="#000000" />
	troop}}

	<g clip-path='url(#Person)'>
	{{symbols:cx=128, cy={{platoontroop?131:128}}, width=64, height={{platoontroop?48:56}}}}
	</g>
	
	{{leading
	<rect x="64" y="64" width="128" height="24" fill="{{colorAccent}}" clip-path="url(#Person)" />
	leading}}

	{{specialist
	<path d="M147,88 L108,88" stroke-width="5" stroke="{{colorAccent}}" />
	specialist}}

	<path d="M64,128 L128,64 L192,128 L128,192 Z" stroke-width="1" stroke="#000000" fill="none" />

	<text x="128" y="128" style="font-family: 'Lubalin Graph ITC Turner Bold', 'Lubalin Graph', 'Roboto Slab'; font-weight: bold; text-anchor: middle; dominant-baseline: central; font-size: 48px;" clip-path="url(#PersonClipTxt)" fill="{{colorAccent}}">{{txt}}</text>
	<text style="font-family: 'Lubalin Graph ITC Turner Bold', 'Lubalin Graph', 'Roboto Slab'; font-weight: bold; text-anchor: end;" fill="#000000" x="222" y="200">{{org}}</text>
	<text style="font-family: 'Lubalin Graph ITC Turner Bold', 'Lubalin Graph', 'Roboto Slab'; font-weight: bold; text-anchor: start;" fill="#000000" x="40" y="200">{{spez}}</text>
</svg>