<svg version="1.1" xmlns="http://www.w3.org/2000/svg" width="256" height="256">
	<defs>
		<clipPath id="person">
			<path d="M64,128 L128,64 L192,128 L128,192 Z" />
		</clipPath>
	</defs>
	<path d="M64,128 L128,64 L192,128 L128,192 Z" stroke-width="5" stroke="#FFFFFF" fill="#003399" />
	<path d="M64,128 L128,64 L192,128 L128,192 Z" stroke-width="12" stroke="#FFFFFF" fill="#003399" clip-path="url(#person)" />

	{{FORMATION
	<line x1="128" y1="64" x2="128" y2="28" stroke="#000000" stroke-width="10" />
	FORMATION}}

	{{PLATOON
	<ellipse cx="100" cy="44" rx="10" ry="10" fill="#000000" />
	<ellipse cx="128" cy="44" rx="10" ry="10" fill="#000000" />
	<ellipse cx="156" cy="44" rx="10" ry="10" fill="#000000" />
	PLATOON}}

	{{OFPLATOON
	<ellipse cx="114" cy="100" rx="5" ry="5" fill="#FFFFFF" />
	<ellipse cx="128" cy="100" rx="5" ry="5" fill="#FFFFFF" />
	<ellipse cx="142" cy="100" rx="5" ry="5" fill="#FFFFFF" />
	OFPLATOON}}

	{{GROUP
	<ellipse cx="100" cy="44" rx="10" ry="10" fill="#000000" />
	<ellipse cx="156" cy="44" rx="10" ry="10" fill="#000000" />
	GROUP}}

	{{TROOP
	<ellipse cx="128" cy="44" rx="10" ry="10" fill="#000000" />
	TROOP}}

	{{LEADING
	<rect x="64" y="64" width="128" height="24" fill="#FFFFFF" clip-path="url(#person)" />
	LEADING}}

	{{SPECIALIST
	<path d="M147,88 L108,88" stroke-width="5" stroke="#FFFFFF" />
	SPECIALIST}}

	<path d="M64,128 L128,64 L192,128 L128,192 Z" stroke-width="2" stroke="#000000" fill="none" />
	<text x="128" y="128" style="font-family: 'Lubalin Graph', 'Roboto Slab'; font-weight: bold; dominant-baseline: central; text-anchor: middle; font-size: 32px;" fill="#FFFFFF">{{TXT}}</text>
	<text style="font-family: 'Lubalin Graph', 'Roboto Slab'; font-weight: bold; text-anchor: end;" fill="#000000" x="222" y="220">{{ORG}}</text>
</svg>