<svg version="1.1"
	xmlns="http://www.w3.org/2000/svg" width="256" height="256">
	<defs>
		<clipPath id="Person">
			<path d="M64,128 L128,64 L192,128 L128,192 Z" />
		</clipPath>
	</defs>
	<path d="M64,128 L128,64 L192,128 L128,192 Z" stroke-width="10" stroke="{{colorAccent}}" fill="{{colorPrimary}}" clip-path="url(#Person)" />
	
	{{association
	<line x1="128" y1="54" x2="128" y2="18" stroke="#000000" stroke-width="10" />
	association}}

	{{brigade
	<line x1="120" y1="54" x2="120" y2="18" stroke="#000000" stroke-width="10" />
	<line x1="136" y1="54" x2="136" y2="18" stroke="#000000" stroke-width="10" />
	brigade}}

	{{formation
	<line x1="113" y1="54" x2="113" y2="18" stroke="#000000" stroke-width="10" />
	<line x1="128" y1="54" x2="128" y2="18" stroke="#000000" stroke-width="10" />
	<line x1="143" y1="54" x2="143" y2="18" stroke="#000000" stroke-width="10" />
	formation}}

	{{platoon
	<ellipse cx="100" cy="44" rx="10" ry="10" fill="#000000" />
	<ellipse cx="128" cy="44" rx="10" ry="10" fill="#000000" />
	<ellipse cx="156" cy="44" rx="10" ry="10" fill="#000000" />
	platoon}}

	{{platoontroop
	<ellipse cx="128" cy="44" rx="10" ry="10" fill="#000000" />

	<ellipse cx="114" cy="100" rx="5" ry="5" fill="{{colorAccent}}" />
	<ellipse cx="128" cy="100" rx="5" ry="5" fill="{{colorAccent}}" />
	<ellipse cx="142" cy="100" rx="5" ry="5" fill="{{colorAccent}}" />
	platoontroop}}

	{{group
	<ellipse cx="100" cy="44" rx="10" ry="10" fill="#000000" />
	<ellipse cx="156" cy="44" rx="10" ry="10" fill="#000000" />
	group}}

	{{echelon
	<ellipse cx="128" cy="44" rx="10" ry="10" fill="#000000" />
	<ellipse cx="128" cy="20" rx="10" ry="10" fill="#000000" />
	echelon}}

	{{troop
	<ellipse cx="128" cy="44" rx="10" ry="10" fill="#000000" />
	troop}}

	{{extinguish
	<path d="M67,128 l123,0 M144,128 l23,-23 M144,128 l23,23" stroke-width="5" stroke="{{colorAccent}}" fill="none" />
	extinguish}}

	{{medical
	<path d="M64,128 l128,0 M128,64 l0,128" stroke="{{colorAccent}}" stroke-width="5" fill="none" clip-path="url(#Person)" />
	medical}}

	{{clear
	<g transform="translate(-10, -32) scale(1 1)">
		<path d="M96,160 L150,160 l0,-15 l0,25 l20,10" stroke-width="5" stroke="{{colorAccent}}" fill="none" />
	</g>
	clear}}

	{{bridge
	<path d="M88,113 l10,10 l60,0 l10,-10 M88,143 l10,-10 l60,0 l10,10" stroke-width="5" stroke="{{colorAccent}}" fill="none" />
	bridge}}

	{{transport
	<g transform="translate(32, 32) scale(0.75 0.75)">
		<ellipse cx="128" cy="128" rx="32" ry="32" fill="none" stroke-width="6.25" stroke="{{colorAccent}}" />
		<path d="M128,128 l32,0 l-64,0 m32,0 l0,32 l0,-64" stroke-width="6.25" stroke="{{colorAccent}}" />
		<path d="M128,128 l32,0 l-64,0 m32,0 l0,32 l0,-64" stroke-width="6.25" stroke="{{colorAccent}}" transform="rotate(45,128,128)" />
	</g>
	transport}}

	{{leading
	<rect x="64" y="64" width="128" height="24" fill="{{colorAccent}}" clip-path="url(#Person)" />
	leading}}

	{{specialist
	<path d="M147,88 L108,88" stroke-width="5" stroke="{{colorAccent}}" />
	specialist}}

	<path d="M64,128 L128,64 L192,128 L128,192 Z" stroke-width="1" stroke="#000000" fill="none" />

	<text x="128" y="128" style="font-family: 'Lubalin Graph', 'Roboto Slab'; font-weight: bold; dominant-baseline: central; text-anchor: middle; font-size: 32px;" fill="{{colorAccent}}">{{txt}}</text>
	<text style="font-family: 'Lubalin Graph', 'Roboto Slab'; font-weight: bold; text-anchor: end;" fill="#000000" x="222" y="200">{{org}}</text>
	<text style="font-family: 'Lubalin Graph', 'Roboto Slab'; font-weight: bold; text-anchor: start;" fill="#000000" x="40" y="200">{{spez}}</text>
</svg>