<svg version="1.1"
	xmlns="http://www.w3.org/2000/svg" width="256" height="256" viewbox="0 0 256 256">
	<defs>
		<clipPath id="Place">
			<ellipse cx="128" cy="128" rx="64" ry="64" />
		</clipPath>
	</defs>

	<circle fill="{{colorPrimary}}" stroke="{{colorAccent}}" stroke-width="10" cx="128" cy="128" r="64" clip-path="url(#Place)" />
	<circle fill="none" stroke="#000" stroke-width="1" cx="128" cy="128" r="64"/>

	{{leading
	<rect id="top" x="64" y="64" width="128" height="32" fill="{{colorAccent}}" clip-path="url(#Place)" />
	leading}}

	{{support
	<rect x="64" y="160" width="128" height="32" fill="{{colorAccent}}" clip-path="url(#Place)" />
	support}}

	{{stationary
	<path d="M10 80 L128 48 L246 80" stroke-width="5" stroke="#000" fill="none" />
	stationary}}

	{{extinguish
	<path d="M67,128 l123,0 M144,128 l35,-35 M144,128 l35,35" stroke-width="5" stroke="{{colorAccent}}" fill="none" />
	extinguish}}

	{{medical
	<path d="M64,128 l128,0 M128,64 l0,128" stroke="{{colorAccent}}" stroke-width="5" fill="none" clip-path="url(#Place)" />
	medical}}

	{{clear
	<g transform="translate(0, -32) scale(1 1)">
		<path d="M96,160 L150,160 l0,-15 l0,25 l20,10" stroke-width="5" stroke="{{colorAccent}}" fill="none" />
	</g>
	clear}}

	{{transport
	<ellipse cx="128" cy="128" rx="32" ry="32" fill="none" stroke-width="5" stroke="{{colorAccent}}" />
	<path d="M128,128 l32,0 l-64,0 m32,0 l0,32 l0,-64" stroke-width="5" stroke="{{colorAccent}}" />
	<path d="M128,128 l32,0 l-64,0 m32,0 l0,32 l0,-64" stroke-width="5" stroke="{{colorAccent}}" transform="rotate(45,128,128)" />
	transport}}

	<text x="128" y="128" style="font-family: 'Lubalin Graph', 'Roboto Slab'; font-weight: bold; dominant-baseline: central; text-anchor: middle; font-size: 32px;" fill="{{colorAccent}}">{{txt}}</text>
	<text style="font-family: 'Lubalin Graph', 'Roboto Slab'; font-weight: bold; text-anchor: end;" fill="#000000" x="222" y="200">{{org}}</text>
</svg>