<svg version="1.1"
	xmlns="http://www.w3.org/2000/svg" width="256" height="256" viewbox="0 0 256 256">
	<defs>
		<clipPath id="Unit">
			<rect x="10" y="64" width="236" height="128" />
		</clipPath>
	</defs>
	<rect x="10" y="64" width="236" height="128" fill="{{colorPrimary}}" stroke="{{colorAccent}}" stroke-width="10" clip-path="url(#Unit)" />
	<rect x="10" y="64" width="236" height="128" fill="none" stroke="#000000" stroke-width="1" />

	{{association
	<line x1="128" y1="54" x2="128" y2="18" stroke="#000000" stroke-width="10" />
	association}}

	{{brigade
	<line x1="120" y1="54" x2="120" y2="18" stroke="#000000" stroke-width="10" />
	<line x1="136" y1="54" x2="136" y2="18" stroke="#000000" stroke-width="10" />
	brigade}}

	{{formation
	<line x1="113" y1="54" x2="113" y2="18" stroke="#000000" stroke-width="10" />
	<line x1="128" y1="54" x2="128" y2="18" stroke="#000000" stroke-width="10" />
	<line x1="143" y1="54" x2="143" y2="18" stroke="#000000" stroke-width="10" />
	formation}}

	{{platoon
	<ellipse cx="64" cy="48" rx="10" ry="10" fill="#000000" />
	<ellipse cx="128" cy="48" rx="10" ry="10" fill="#000000" />
	<ellipse cx="192" cy="48" rx="10" ry="10" fill="#000000" />
	platoon}}

	{{platoontroop
	<ellipse cx="128" cy="48" rx="10" ry="10" fill="#000000" />

	<ellipse cx="64" cy="86" rx="10" ry="10" fill="{{colorAccent}}" />
	<ellipse cx="128" cy="86" rx="10" ry="10" fill="{{colorAccent}}" />
	<ellipse cx="192" cy="86" rx="10" ry="10" fill="{{colorAccent}}" />
	platoontroop}}

	{{group
	<ellipse cx="64" cy="48" rx="10" ry="10" fill="#000000" />
	<ellipse cx="192" cy="48" rx="10" ry="10" fill="#000000" />
	group}}

	{{echelon
	<ellipse cx="128" cy="48" rx="10" ry="10" fill="#000000" />
	<ellipse cx="128" cy="24" rx="10" ry="10" fill="#000000" />
	echelon}}

	{{troop
	<ellipse cx="128" cy="48" rx="10" ry="10" fill="#000000" />
	troop}}

	{{symbols:cx=128, cy=128, width=236, height=128}}

	{{leading
	<rect x="11" y="65" width="234" height="25" fill="{{colorAccent}}" />
	leading}}

	{{support
	<rect x="11" y="166" width="234" height="25" fill="{{colorAccent}}" />
	support}}

	<text style="font-family: 'Lubalin Graph', 'Roboto Slab'; font-weight: bold; text-anchor: middle; font-size: 48px; " fill="{{colorAccent}}" x="128" y="145">{{txt}}</text>
	<text style="font-family: 'Lubalin Graph', 'Roboto Slab'; font-weight: bold; text-anchor: start;" fill="{{colorAccent}}" x="20" y="{{support?155:180}}">{{spez}}</text>
	<text style="font-family: 'Lubalin Graph', 'Roboto Slab'; font-weight: bold; text-anchor: end;" fill="{{colorAccent}}" x="{{extinguish?200:236}}" y="{{support?155:180}}">{{org}}</text>
</svg>