<svg version="1.1"
	xmlns="http://www.w3.org/2000/svg" width="256" height="256" viewbox="0 0 256 256">
	<defs>
		<clipPath id="Unit">
			<rect x="10" y="64" width="236" height="128" />
		</clipPath>
	</defs>
	<rect x="10" y="64" width="236" height="128" fill="{{colorPrimary}}" stroke="{{colorAccent}}" stroke-width="10" clip-path="url(#Unit)" />
	<rect x="10" y="64" width="236" height="128" fill="none" stroke="#000000" stroke-width="1" />

	{{association
	<line x1="128" y1="54" x2="128" y2="18" stroke="#000000" stroke-width="10" />
	association}}

	{{brigade
	<line x1="120" y1="54" x2="120" y2="18" stroke="#000000" stroke-width="10" />
	<line x1="136" y1="54" x2="136" y2="18" stroke="#000000" stroke-width="10" />
	brigade}}

	{{formation
	<line x1="113" y1="54" x2="113" y2="18" stroke="#000000" stroke-width="10" />
	<line x1="128" y1="54" x2="128" y2="18" stroke="#000000" stroke-width="10" />
	<line x1="143" y1="54" x2="143" y2="18" stroke="#000000" stroke-width="10" />
	formation}}

	{{platoon
	<ellipse cx="64" cy="48" rx="10" ry="10" fill="#000000" />
	<ellipse cx="128" cy="48" rx="10" ry="10" fill="#000000" />
	<ellipse cx="192" cy="48" rx="10" ry="10" fill="#000000" />
	platoon}}

	{{platoontroop
	<ellipse cx="128" cy="48" rx="10" ry="10" fill="#000000" />

	<ellipse cx="64" cy="86" rx="10" ry="10" fill="{{colorAccent}}" />
	<ellipse cx="128" cy="86" rx="10" ry="10" fill="{{colorAccent}}" />
	<ellipse cx="192" cy="86" rx="10" ry="10" fill="{{colorAccent}}" />
	platoontroop}}

	{{group
	<ellipse cx="64" cy="48" rx="10" ry="10" fill="#000000" />
	<ellipse cx="192" cy="48" rx="10" ry="10" fill="#000000" />
	group}}

	{{echelon
	<ellipse cx="128" cy="48" rx="10" ry="10" fill="#000000" />
	<ellipse cx="128" cy="24" rx="10" ry="10" fill="#000000" />
	echelon}}

	{{troop
	<ellipse cx="128" cy="48" rx="10" ry="10" fill="#000000" />
	troop}}

	{{extinguish
	<path d="M11 128 L245 128 M156 128 L241 69 M156 128 L241 187" stroke="{{colorAccent}}" stroke-width="10" />
	extinguish}}

	{{medical
	<path d="M128,65 l0,126 M11,128 l234,0" stroke="{{colorAccent}}" stroke-width="5" fill="none" />
	medical}}

	{{clear
	<g transform="translate(-118, -175) scale(1.85 1.85)">
		<path d="M96,160 L150,160 l0,-15 l0,25 l20,10" stroke-width="5" stroke="{{colorAccent}}" fill="none" />
	</g>
	clear}}

	{{bridge
	<path d="M88,113 l10,10 l60,0 l10,-10 M88,143 l10,-10 l60,0 l10,10" stroke-width="5" stroke="{{colorAccent}}" fill="none" />
	bridge}}

	{{transport
	<ellipse cx="128" cy="128" rx="32" ry="32" fill="none" stroke-width="5" stroke="{{colorAccent}}" />
	<path d="M128,128 l32,0 l-64,0 m32,0 l0,32 l0,-64" stroke-width="5" stroke="{{colorAccent}}" />
	<path d="M128,128 l32,0 l-64,0 m32,0 l0,32 l0,-64" stroke-width="5" stroke="{{colorAccent}}" transform="rotate(45,128,128)" />
	transport}}

	{{leading
	<rect x="11" y="65" width="234" height="25" fill="{{colorAccent}}" />
	leading}}

	{{support
	<rect x="11" y="166" width="234" height="25" fill="{{colorAccent}}" />
	support}}

	<text style="font-family: 'Lubalin Graph', 'Roboto Slab'; font-weight: bold; text-anchor: middle; font-size: 48px; " fill="{{colorAccent}}" x="128" y="145">{{txt}}</text>
	<text style="font-family: 'Lubalin Graph', 'Roboto Slab'; font-weight: bold; text-anchor: start;" fill="{{colorAccent}}" x="20" y="180">{{spez}}</text>
	<text style="font-family: 'Lubalin Graph', 'Roboto Slab'; font-weight: bold; text-anchor: end;" fill="{{colorAccent}}" x="236" y="180">{{org}}</text>
</svg>