<svg version="1.1" xmlns="http://www.w3.org/2000/svg" width="256" height="256" viewbox="0 0 256 256">
	<defs>
		<clipPath id="symbol">
			<rect x="10" y="64" width="236" height="128" />
		</clipPath>
	</defs>
	<rect x="10" y="64" width="236" height="128" fill="{{colorPrimary}}" stroke="{{colorAccent}}" stroke-width="10" clip-path="url(#symbol)" />
	<rect x="10" y="64" width="236" height="128" fill="none" stroke="#000000" stroke-width="1" />

	{{formation
	<line x1="128" y1="64" x2="128" y2="28" stroke="#000000" stroke-width="10" />
	formation}}

	{{platoon
	<ellipse cx="64"  cy="48" rx="10" ry="10" fill="#000000" />
	<ellipse cx="128" cy="48" rx="10" ry="10" fill="#000000" />
	<ellipse cx="192" cy="48" rx="10" ry="10" fill="#000000" />
	platoon}}

	{{platoontroop
	<ellipse cx="128" cy="48" rx="10" ry="10" fill="#000000" />

	<ellipse cx="64"  cy="86" rx="10" ry="10" fill="{{colorAccent}}" />
	<ellipse cx="128" cy="86" rx="10" ry="10" fill="{{colorAccent}}" />
	<ellipse cx="192" cy="86" rx="10" ry="10" fill="{{colorAccent}}" />
	platoontroop}}

	{{group
	<ellipse cx="64"  cy="48" rx="10" ry="10" fill="#000000" />
	<ellipse cx="192" cy="48" rx="10" ry="10" fill="#000000" />
	group}}

	{{echelon
	<ellipse cx="128" cy="48" rx="10" ry="10" fill="#000000" />
	<ellipse cx="128" cy="24" rx="10" ry="10" fill="#000000" />
	echelon}}

	{{troop
	<ellipse cx="128" cy="48" rx="10" ry="10" fill="#000000" />
	troop}}

	{{leading
	<rect x="11" y="65" width="234" height="25" fill="#FFFFFF" />
	leading}}

	{{support
	<rect x="11" y="166" width="234" height="25" fill="#FFFFFF" />
	support}}

	<text style="font-family: 'Lubalin Graph', 'Roboto Slab'; font-weight: bold; text-anchor: middle; font-size: 48px; " fill="{{colorAccent}}" x="128" y="145">{{txt}}</text>
	<text style="font-family: 'Lubalin Graph', 'Roboto Slab'; font-weight: bold; text-anchor: start;" fill="{{colorAccent}}" x="20" y="180">{{spez}}</text>
	<text style="font-family: 'Lubalin Graph', 'Roboto Slab'; font-weight: bold; text-anchor: end;" fill="{{colorAccent}}" x="236" y="180">{{org}}</text>
</svg>