<svg version="1.1" xmlns="http://www.w3.org/2000/svg" width="256" height="256" viewbox="0 0 256 256">
	<defs>
		<clipPath id="Vehicle">
			<path d="M10,64 L10,192 L246,192 L246,64 Q128,100 10,64 Z" />
		</clipPath>
		<clipPath id="Hook">
			<rect x="0" y="44" width="10.5" height="148" />
		</clipPath>
	</defs>
	<path d="M10,64 L10,192 L246,192 L246,64 Q128,100 10,64 Z" fill="{{colorPrimary}}" stroke-width="10" stroke="{{colorAccent}}" clip-path="url(#Vehicle)" />
	<path d="M10,64 L10,192 L246,192 L246,64 Q128,100 10,64 Z" fill="none" stroke-width="1" stroke="#000000" />

	{{trailer
	<rect x="1.5" y="131.5" width="11" height="9" fill="{{colorAccent}}" />
	<path d="M10,131 l-8,0 l0,10 l8,0" stroke="#000" stroke-width="1" fill="none" />
	trailer}}

	{{swapbody
	<ellipse cx="8" cy="80" rx="6" ry="6" stroke="#000" fill="{{colorAccent}}" stroke-width="1" clip-path="url(#Hook)" />
	<ellipse cx="8" cy="80" rx="3" ry="3" stroke="#000" fill="#FFF" stroke-width="1"/>
	swapbody}}

	{{swapable
	<path d="M5.5,63 l0,133.5 l240.5,0 l0,-3 l-237.5,0 L8.5,63 Z" fill="#000" stroke-width="1" stroke="#000" />
	swapable}}

	{{automotive
	<ellipse cx="40" cy="210" rx="10" ry="10" stroke="#000000" fill="none" stroke-width="5" />
	<ellipse cx="216" cy="210" rx="10" ry="10" stroke="#000000" fill="none" stroke-width="5" />
	automotive}}

	{{offroad
	<ellipse cx="128" cy="210" rx="10" ry="10" stroke="#000000" fill="none" stroke-width="5" />
	offroad}}

	{{chain
	<path d="M24,200 l208,0 a10,10 180 0 1 0,20 l-208,0 a10,10 180 0 1 0,-20 Z" stroke="#000" fill="none" stroke-width="5" />
	chain}}

	{{rail
	<ellipse cx="24" cy="210" rx="10" ry="10" stroke="#000000" fill="none" stroke-width="5" />
	<ellipse cx="50" cy="210" rx="10" ry="10" stroke="#000000" fill="none" stroke-width="5" />
	<ellipse cx="206" cy="210" rx="10" ry="10" stroke="#000000" fill="none" stroke-width="5" />
	<ellipse cx="232" cy="210" rx="10" ry="10" stroke="#000000" fill="none" stroke-width="5" />
	rail}}

	<g clip-path='url(#Vehicle)'>
	{{symbols:cx=128, cy=128, width=226, height=74}}
	</g>

	<text style="font-family: 'Lubalin Graph', 'Roboto Slab'; font-weight: bold; text-anchor: middle; font-size: 48px; " fill="{{colorAccent}}" x="128" y="145">{{txt}}</text>
	<text style="font-family: 'Lubalin Graph', 'Roboto Slab'; font-weight: bold; text-anchor: start;" fill="{{colorAccent}}" x="20" y="{{support?155:180}}">{{spez}}</text>
	<text style="font-family: 'Lubalin Graph', 'Roboto Slab'; font-weight: bold; text-anchor: end;" fill="{{colorAccent}}" x="{{extinguish?200:236}}" y="{{support?155:180}}">{{org}}</text>
</svg>