<svg version="1.1" xmlns="http://www.w3.org/2000/svg" width="256" height="256" viewbox="0 0 256 256">
	<defs>
		<clipPath id="Vehicle">
			<path d="M10,64 L10,192 L246,192 L246,64 Q128,100 10,64 Z" />
		</clipPath>
		<clipPath id="Hook">
			<rect x="0" y="44" width="10" height="148" />
		</clipPath>
	</defs>
	<path d="M10,64 L10,192 L246,192 L246,64 Q128,100 10,64 Z" fill="{{colorPrimary}}" stroke-width="10" stroke="{{colorAccent}}" clip-path="url(#Vehicle)" />
	<path d="M10,64 L10,192 L246,192 L246,64 Q128,100 10,64 Z" fill="none" stroke-width="1" stroke="#000000" />

	{{trailer
	<rect x="0" y="121.5" width="11" height="15" fill="{{colorAccent}}" />
	<path d="M10,121 L10,121.5 L0,121.5 M0,136.5 L10,136.5 L10,137" stroke="#000000" stroke-width="1" />
	trailer}}

	{{swappable
	<ellipse cx="8" cy="80" rx="5" ry="5" stroke="#000" fill="none" stroke-width="5" clip-path="url(#Hook)" />
	swappable}}

	{{automotive
	<ellipse cx="40" cy="210" rx="10" ry="10" stroke="#000000" fill="none" stroke-width="5" />
	<ellipse cx="216" cy="210" rx="10" ry="10" stroke="#000000" fill="none" stroke-width="5" />
	automotive}}

	{{offroad
	<ellipse cx="128" cy="210" rx="10" ry="10" stroke="#000000" fill="none" stroke-width="5" />
	offroad}}

	{{chain
	<path d="M24,200 l208,0 a10,10 180 0 1 0,20 l-208,0 a10,10 180 0 1 0,-20 Z" stroke="#000" fill="none" stroke-width="5" />
	chain}}

	{{rail
	<ellipse cx="24" cy="210" rx="10" ry="10" stroke="#000000" fill="none" stroke-width="5" />
	<ellipse cx="50" cy="210" rx="10" ry="10" stroke="#000000" fill="none" stroke-width="5" />
	<ellipse cx="206" cy="210" rx="10" ry="10" stroke="#000000" fill="none" stroke-width="5" />
	<ellipse cx="232" cy="210" rx="10" ry="10" stroke="#000000" fill="none" stroke-width="5" />
	rail}}

	<g clip-path='url(#Vehicle)'>
	{{symbols:cx=128, cy=128, width=226, height=74}}
	</g>

	<text style="font-family: 'Lubalin Graph', 'Roboto Slab'; font-weight: bold; text-anchor: middle; font-size: 48px; " fill="{{colorAccent}}" x="128" y="145">{{txt}}</text>
	<text style="font-family: 'Lubalin Graph', 'Roboto Slab'; font-weight: bold; text-anchor: start;" fill="{{colorAccent}}" x="20" y="{{support?155:180}}">{{spez}}</text>
	<text style="font-family: 'Lubalin Graph', 'Roboto Slab'; font-weight: bold; text-anchor: end;" fill="{{colorAccent}}" x="{{extinguish?200:236}}" y="{{support?155:180}}">{{org}}</text>
</svg>